<?xml version="1.0" encoding="UTF-8" standalone="no"?>
<!DOCTYPE svg PUBLIC "-//W3C//DTD SVG 1.1//EN" "http://www.w3.org/Graphics/SVG/1.1/DTD/svg11.dtd">
<!-- Generated by Microsoft Visio, SVG Export function-subnet-mask.svg Page-1 -->
<svg xmlns="http://www.w3.org/2000/svg" xmlns:xlink="http://www.w3.org/1999/xlink" xmlns:ev="http://www.w3.org/2001/xml-events"
		xmlns:v="http://schemas.microsoft.com/visio/2003/SVGExtensions/" width="7.50798in" height="2.73264in"
		viewBox="0 0 540.575 196.75" xml:space="preserve" color-interpolation-filters="sRGB" class="st17">
	<v:documentProperties v:langID="1033" v:viewMarkup="false"/>

	<style type="text/css">
	<![CDATA[
		.st1 {marker-end:url(#mrkr4-7);stroke:#126d99;stroke-linecap:round;stroke-linejoin:round;stroke-width:1.25}
		.st2 {fill:#126d99;fill-opacity:1;stroke:#126d99;stroke-opacity:1;stroke-width:0.33156480634232}
		.st3 {fill:#ffffff;stroke:#126d99;stroke-linecap:round;stroke-linejoin:round;stroke-width:1.5}
		.st4 {fill:#000000;font-family:Verdana;font-size:1.16666em;font-weight:bold}
		.st5 {fill:#126d99;stroke:none;stroke-linecap:butt;stroke-width:10.2}
		.st6 {fill:none;stroke:none;stroke-linecap:round;stroke-linejoin:round;stroke-width:0.749999}
		.st7 {fill:#000000;font-family:Verdana;font-size:1.16666em}
		.st8 {font-size:1em;font-weight:bold}
		.st9 {font-size:1em}
		.st10 {fill:#126d99;stroke:#000000;stroke-linecap:round;stroke-linejoin:round;stroke-width:1}
		.st11 {fill:#ffffff;font-family:Verdana;font-size:1.16666em;font-weight:bold}
		.st12 {fill:#fee599;stroke:#000000;stroke-linecap:round;stroke-linejoin:round;stroke-width:1}
		.st13 {fill:#126d99;font-family:Verdana;font-size:1.16666em;font-weight:bold}
		.st14 {fill:#000000;font-size:1em}
		.st15 {fill:none}
		.st16 {stroke:#126d99;stroke-linecap:butt;stroke-width:3.5}
		.st17 {fill:none;fill-rule:evenodd;font-size:12px;overflow:visible;stroke-linecap:square;stroke-miterlimit:3}
	]]>
	</style>

	<defs id="Markers">
		<g id="lend4">
			<path d="M 2 1 L 0 0 L 2 -1 L 2 1 " style="stroke:none"/>
		</g>
		<marker id="mrkr4-7" class="st2" v:arrowType="4" v:arrowSize="2" v:setback="0" refX="-0" orient="auto"
				markerUnits="strokeWidth" overflow="visible">
			<use xlink:href="#lend4" transform="scale(-3.0160016409207,-3.0160016409207) "/>
		</marker>
	</defs>
	<g v:mID="0" v:index="1" v:groupContext="foregroundPage">
		<title>Page-1</title>
		<v:pageProperties v:drawingScale="0.0393701" v:pageScale="0.0393701" v:drawingUnits="24" v:shadowOffsetX="9"
				v:shadowOffsetY="-9"/>
		<g id="group34-1" transform="translate(8.42997,-10.2)" v:mID="34" v:groupContext="group">
			<title>Sheet.34</title>
			<g id="shape4-2" v:mID="4" v:groupContext="shape" transform="translate(5.66138E-07,-106.777) rotate(1.64865E-07)">
				<title>Sheet.4</title>
				<path d="M0 196.75 L156.87 196.75 L164.41 196.75" class="st1"/>
			</g>
			<g id="shape5-8" v:mID="5" v:groupContext="shape" transform="translate(124.724,-140.793) rotate(6.83017E-07)">
				<title>Sheet.5</title>
				<path d="M0 196.75 L32.15 196.75 L39.69 196.75" class="st1"/>
			</g>
			<g id="shape21-13" v:mID="21" v:groupContext="shape" transform="translate(164.409,-123.785)">
				<title>Rectangle.21</title>
				<desc>11000000.10101000.00000001 .00001010</desc>
				<v:userDefs>
					<v:ud v:nameU="visVersion" v:val="VT0(15):26"/>
				</v:userDefs>
				<v:textBlock v:margins="rect(4,4,4,4)" v:tabSpace="42.5197"/>
				<v:textRect cx="178.451" cy="179.74" width="356.91" height="34.02"/>
				<rect x="0" y="162.73" width="356.901" height="34.02" class="st3"/>
				<text x="4" y="183.94" class="st4" v:langID="1026"><v:paragraph/><v:tabList/>11000000.10101000.00000001 .00001010</text>			</g>
			<g id="shape28-16" v:mID="28" v:groupContext="shape" transform="translate(1.59872E-14,-123.785)">
				<title>Round Same Side Corner Rectangl</title>
				<desc>192.168.1.10</desc>
				<v:userDefs>
					<v:ud v:nameU="visVersion" v:val="VT0(15):26"/>
				</v:userDefs>
				<v:textBlock v:margins="rect(4,4,4,4)" v:tabSpace="42.5197"/>
				<v:textRect cx="62.3599" cy="179.74" width="124.72" height="34.02"/>
				<rect x="0" y="162.73" width="124.72" height="34.02" class="st3"/>
				<text x="4" y="183.94" class="st4" v:langID="1026"><v:paragraph/><v:tabList/>192.168.1.10</text>			</g>
			<g id="group12-19" transform="translate(521.945,310.84) rotate(180)" v:mID="12" v:groupContext="group">
				<title>Sheet.12</title>
				<g id="group13-20" v:mID="13" v:groupContext="group">
					<title>Sheet.13</title>
					<g id="shape14-21" v:mID="14" v:groupContext="shape">
						<title>Sheet.14</title>
						<path d="M183.29 114.09 L20.37 114.09 C9.33 114.09 0 118.22 0 123.11 L0 172.7 C0 177.59 9.33 181.72 20.37
									 181.72 L69.77 181.72 L99.31 196.25 C99.95 196.57 100.86 196.75 101.83 196.75 C102.79 196.75
									 103.71 196.57 104.35 196.25 L133.89 181.72 L183.29 181.72 C194.33 181.72 203.66 177.59 203.66
									 172.7 L203.66 123.11 C203.66 118.22 194.33 114.09 183.29 114.09 ZM196.87 172.7 C196.87 175.96
									 190.65 178.71 183.29 178.71 L140.73 178.71 L148.59 175.27 C149.92 174.69 149.93 173.74 148.61
									 173.15 C147.29 172.56 145.14 172.55 143.81 173.14 L130.19 179.1 C130.09 179.14 129.95 179.16
									 129.85 179.21 L101.83 193 L73.8 179.21 C73.78 179.2 73.75 179.2 73.73 179.19 C73.7 179.18 73.69
									 179.16 73.67 179.15 L59.95 173.14 C58.62 172.55 56.47 172.56 55.15 173.15 C53.83 173.74 53.84
									 174.69 55.17 175.27 L63.02 178.71 L20.37 178.71 C13.01 178.71 6.79 175.96 6.79 172.7 L6.79 123.11
									 C6.79 119.85 13.01 117.09 20.37 117.09 L183.29 117.09 C190.65 117.09 196.87 119.85 196.87 123.11
									 L196.87 172.7 Z" class="st5"/>
					</g>
				</g>
				<g id="shape15-23" v:mID="15" v:groupContext="shape" transform="translate(4.32379,-18.402)">
					<title>Sheet.15</title>
					<desc>The subnet mask determines the network and the host portions</desc>
					<v:userDefs/>
					<v:textBlock v:margins="rect(4,4,4,4)" v:tabSpace="42.5197"/>
					<v:textRect cx="96.7356" cy="166.183" width="193.48" height="61.1313" transform="rotate(-180)"/>
					<rect x="0" y="135.619" width="193.471" height="61.1313" class="st6"/>
					<text x="-157.17" y="-178.78" transform="rotate(180)" class="st7" v:langID="1026"><v:paragraph v:horizAlign="1"/><v:tabList/>The subnet mask <tspan
								x="-185.86" dy="1.2em" class="st8">determines </tspan>the network <tspan x="-172.16" dy="1.2em"
								class="st9">and the host portions</tspan></text>				</g>
			</g>
			<g id="shape18-28" v:mID="18" v:groupContext="shape" transform="translate(0.343486,-157.643)">
				<title>Sheet.18</title>
				<desc>IP Address</desc>
				<v:userDefs/>
				<v:textBlock v:margins="rect(4,4,4,4)" v:tabSpace="42.5197"/>
				<v:textRect cx="63.0708" cy="186.75" width="126.15" height="20"/>
				<rect x="0" y="176.75" width="126.142" height="20" class="st6"/>
				<text x="4" y="190.95" class="st4" v:langID="1026"><v:paragraph/><v:tabList/>IP Address</text>			</g>
			<g id="shape19-31" v:mID="19" v:groupContext="shape" transform="translate(0.343486,-68.4307)">
				<title>Sheet.19</title>
				<desc>Subnet Mask</desc>
				<v:userDefs/>
				<v:textBlock v:margins="rect(4,4,4,4)" v:tabSpace="42.5197"/>
				<v:textRect cx="63.0708" cy="186.75" width="126.15" height="20"/>
				<rect x="0" y="176.75" width="126.142" height="20" class="st6"/>
				<text x="4" y="190.95" class="st4" v:langID="1026"><v:paragraph/><v:tabList/>Subnet Mask</text>			</g>
			<g id="shape20-34" v:mID="20" v:groupContext="shape" transform="translate(164.409,-161.105)">
				<title>Rectangle</title>
				<desc>Network</desc>
				<v:userDefs>
					<v:ud v:nameU="visVersion" v:val="VT0(15):26"/>
				</v:userDefs>
				<v:textBlock v:margins="rect(4,4,4,4)" v:tabSpace="42.5197"/>
				<v:textRect cx="126.011" cy="184.278" width="252.03" height="24.9449"/>
				<rect x="0" y="171.805" width="252.022" height="24.9449" class="st10"/>
				<text x="92.41" y="188.48" class="st11" v:langID="1033"><v:paragraph v:horizAlign="1"/><v:tabList/>Network</text>			</g>
			<g id="shape27-37" v:mID="27" v:groupContext="shape" transform="translate(424.397,-161.105)">
				<title>Rectangle.2</title>
				<desc>Host</desc>
				<v:userDefs>
					<v:ud v:nameU="visVersion" v:val="VT0(15):26"/>
				</v:userDefs>
				<v:textBlock v:margins="rect(4,4,4,4)" v:tabSpace="42.5197"/>
				<v:textRect cx="48.4577" cy="184.278" width="96.92" height="24.9449"/>
				<rect x="0" y="171.805" width="96.9154" height="24.9449" class="st12"/>
				<text x="30.45" y="188.48" class="st4" v:langID="1033"><v:paragraph v:horizAlign="1"/><v:tabList/>Host</text>			</g>
			<g id="shape30-40" v:mID="30" v:groupContext="shape" transform="translate(1.59872E-14,-89.6678)">
				<title>Round Same Side Corner Rectangl.30</title>
				<desc>255.255.255.0</desc>
				<v:userDefs>
					<v:ud v:nameU="visVersion" v:val="VT0(15):26"/>
				</v:userDefs>
				<v:textBlock v:margins="rect(4,4,4,4)" v:tabSpace="42.5197"/>
				<v:textRect cx="62.3599" cy="179.74" width="124.72" height="34.02"/>
				<rect x="0" y="162.73" width="124.72" height="34.02" class="st3"/>
				<text x="4" y="183.94" class="st4" v:langID="1026"><v:paragraph/><v:tabList/>255.255.255.0</text>			</g>
			<g id="shape32-43" v:mID="32" v:groupContext="shape" transform="translate(164.409,-89.6678)">
				<title>Rectangle.32</title>
				<desc>11111111.11111111.11111111 .00000000</desc>
				<v:userDefs>
					<v:ud v:nameU="visVersion" v:val="VT0(15):26"/>
				</v:userDefs>
				<v:textBlock v:margins="rect(4,4,4,4)" v:tabSpace="42.5197"/>
				<v:textRect cx="178.451" cy="179.74" width="356.91" height="34.02"/>
				<rect x="0" y="162.73" width="356.901" height="34.02" class="st3"/>
				<text x="4" y="183.94" class="st13" v:langID="1026"><v:paragraph/><v:tabList/>11111111.11111111.11111111<tspan
							class="st14"> </tspan><tspan class="st14">.00000000</tspan></text>			</g>
			<g id="shape9-48" v:mID="9" v:groupContext="shape" transform="translate(617.164,33.2797) rotate(90)">
				<title>Sheet.9</title>
				<path d="M0 196.75 L79.37 196.75 L0 196.75 Z" class="st15"/>
				<path d="M0 196.75 L79.37 196.75" class="st16"/>
			</g>
		</g>
	</g>
</svg>
