<svg fill="none" height="893" viewBox="0 0 1200 893" width="1200" xmlns="http://www.w3.org/2000/svg" xmlns:xlink="http://www.w3.org/1999/xlink"><clipPath id="clip0_2430_19626"><path d="M0 0H1200V892.8H0Z"/></clipPath><g clip-path="url(#clip0_2430_19626)"><path d="M1200 0H0V892.9H1200V0Z" fill="#305eb2"/><path d="M196.801 273.2C192.801 273.2 189.801 270.4 189.801 266.5 189.801 262.6 192.801 259.9 196.801 259.9 200.801 259.9 203.801 262.6 203.801 266.5 203.801 270.4 200.801 273.2 196.801 273.2ZM196.801 271C199.501 271 201.501 269.1 201.501 266.5 201.501 263.9 199.501 262 196.801 262 194.201 262 192.201 263.9 192.201 266.5 192.201 269.2 194.201 271 196.801 271ZM212.001 282.3V284.3H193.901V275.7H196.401V282.3H212.001ZM211.201 277.7H208.701V258.1H211.201V277.7Z" fill="#ffffff"/><path d="M220.102 276.5C225.002 276.5 228.102 276.3 231.702 275.7L232.002 277.7C228.102 278.4 224.802 278.5 219.702 278.5H217.602V260.5H230.002V262.5H220.002V268H228.802V270H220.002V276.5H220.102ZM238.602 258V285H236.102V270.2H230.602V268.2H236.102V258H238.602Z" fill="#ffffff"/><path d="M256.501 272C253.001 272.8 250.001 272.9 246.901 272.9H245.201V260.4H247.601V270.8C250.401 270.8 253.101 270.6 256.201 269.9L256.501 272ZM258.801 275.8C258.801 279.3 263.201 282.2 267.901 282.9L267.001 284.8C263.001 284.1 259.201 282.1 257.601 279.1 255.901 282.1 252.201 284.1 248.201 284.8L247.301 282.9C252.001 282.2 256.401 279.3 256.401 275.8V274.8H258.901V275.8H258.801ZM258.801 266.2H253.101V264.2H258.801V258.6H261.101V273.8H258.801V266.2ZM266.601 276.2H264.301V258H266.601V276.2Z" fill="#ffffff"/><path d="M301.8 272.3V274.3H277.4V272.3H288.3V269.7H280.6V258.9H298.7V260.8H283V263.3H298V265.2H283V267.8H299V269.7H290.9V272.3H301.8V272.3ZM298.8 280.6C298.8 283.4 295.4 284.9 289.6 284.9 283.8 284.9 280.4 283.4 280.4 280.6 280.4 277.8 283.8 276.3 289.6 276.3 295.4 276.3 298.8 277.8 298.8 280.6ZM296.4 280.6C296.4 279 294 278.1 289.6 278.1 285.3 278.1 282.8 279 282.8 280.6 282.8 282.2 285.2 283.1 289.6 283.1 294 283 296.4 282.2 296.4 280.6Z" fill="#ffffff"/><path d="M319.702 273.4C316.602 272.2 314.302 269.8 313.102 266.7 312.002 270 309.502 272.6 306.402 273.9L305.102 271.9C309.102 270.3 311.902 266.4 311.902 262.2V259.5H314.402V262.2C314.402 266.2 317.102 269.9 321.102 271.4L319.702 273.4ZM327.702 282.3V284.3H309.602V275.9H312.102V282.3H327.702ZM326.902 277.8H324.402V258H326.902V277.8Z" fill="#ffffff"/><path d="M362.8 271.7V273.7H338.4V271.7H349.4V268.3H341.6V259.2H359.7V268.3H351.9V271.7H362.8ZM341.2 276.4H359.8V284.9H357.3V278.4H341.1V276.4H341.2ZM344 266.3H357.3V261.1H344V266.3Z" fill="#ffffff"/><path d="M380.401 273.1C377.401 272 375.101 269.8 373.901 267 372.801 270.1 370.301 272.5 367.101 273.7L365.801 271.7C369.801 270.3 372.601 266.7 372.601 262.9V261.8H366.601V259.8H381.001V261.8H375.101V262.9C375.101 266.4 377.701 269.7 381.601 271.1L380.401 273.1ZM370.001 275.6H388.001V285H385.501V277.6H370.001V275.6ZM388.001 258V274.1H385.501V267H380.301V265H385.501V258H388.001Z" fill="#ffffff"/><path d="M417.502 279.3V281.3H393.102V279.3H417.502ZM415.002 267.1C415.002 271.6 410.802 274.5 405.202 274.5 399.602 274.5 395.402 271.6 395.402 267.1 395.402 262.6 399.602 259.7 405.202 259.7 410.802 259.7 415.002 262.7 415.002 267.1ZM397.802 267.1C397.802 270.4 401.002 272.5 405.202 272.5 409.502 272.5 412.602 270.3 412.602 267.1 412.602 263.9 409.402 261.7 405.202 261.7 401.002 261.7 397.802 263.9 397.802 267.1Z" fill="#ffffff"/><path d="M444.8 279.6V281.6H420.4V279.6H431.3V274.5H423.4V266.2H439.4V262H423.4V260H441.8V268.2H425.9V272.5H442.5V274.5H433.9V279.6H444.8Z" fill="#ffffff"/><path d="M463.101 265.2C463.101 269.9 466.201 274.8 469.901 276.7L468.401 278.7C465.601 277.2 463.101 274 461.901 270.3 460.701 274.2 458.201 277.6 455.201 279.2L453.701 277.2C457.601 275.2 460.601 270.1 460.601 265.2V260.4H463.001V265.2H463.101ZM479.301 271H474.901V284.9H472.401V258H474.901V268.9H479.301V271Z" fill="#ffffff"/><path d="M505.701 271.3V273.3H481.301V271.3H487.301V267.5C485.201 266.6 484.001 265.3 484.001 263.5 484.001 260.3 487.601 258.5 493.401 258.5 499.301 258.5 502.901 260.4 502.901 263.5 502.901 265.3 501.701 266.7 499.601 267.5V271.3H505.701ZM502.801 280.1C502.801 283.2 499.401 284.9 493.601 284.9 487.801 284.9 484.401 283.2 484.401 280.1 484.401 277 487.801 275.3 493.601 275.3 499.401 275.3 502.801 277 502.801 280.1ZM493.601 266.6C497.901 266.6 500.501 265.4 500.501 263.5 500.501 261.5 497.901 260.4 493.601 260.4 489.301 260.4 486.701 261.5 486.701 263.5 486.601 265.4 489.301 266.6 493.601 266.6ZM500.301 280.1C500.301 278.3 497.801 277.2 493.601 277.2 489.401 277.2 486.901 278.2 486.901 280.1 486.901 282 489.401 283 493.601 283 497.801 283 500.301 282 500.301 280.1ZM489.801 271.3H497.301V268.2C496.201 268.4 494.901 268.5 493.501 268.5 492.201 268.5 490.901 268.4 489.801 268.2V271.3Z" fill="#ffffff"/><path d="M195.6 591.299C191.6 591.299 188.6 588.499 188.6 584.599 188.6 580.699 191.6 577.999 195.6 577.999 199.6 577.999 202.6 580.699 202.6 584.599 202.6 588.499 199.6 591.299 195.6 591.299ZM195.6 589.099C198.3 589.099 200.2 587.199 200.2 584.599 200.2 581.999 198.2 580.099 195.6 580.099 193 580.099 191 581.999 191 584.599 191 587.299 193 589.099 195.6 589.099ZM210.8 600.399V602.399H192.7V593.799H195.2V600.399H210.8ZM210 595.799H207.5V576.199H210V595.799Z" fill="#ffffff"/><path d="M218.9 594.6C223.8 594.6 226.9 594.4 230.5 593.8L230.8 595.8C226.9 596.5 223.6 596.6 218.5 596.6H216.4V578.6H228.9V580.6H218.9V586.1H227.7V588.1H218.9V594.6ZM237.4 576.1V603.1H235V588.3H229.5V586.3H235V576.1H237.4Z" fill="#ffffff"/><path d="M255.3 590.1C251.8 590.9 248.9 591 245.7 591H244V578.5H246.4V589C249.2 589 251.9 588.8 255 588.1L255.3 590.1ZM257.6 593.9C257.6 597.4 262 600.3 266.7 601L265.8 602.9C261.8 602.2 258 600.2 256.4 597.2 254.8 600.2 251 602.2 247 602.9L246 601C250.7 600.3 255.1 597.4 255.1 593.9V592.9H257.6V593.9ZM257.6 584.2H251.9V582.2H257.6V576.6H259.9V591.8H257.6V584.2ZM265.4 594.3H263V576.1H265.3V594.3H265.4Z" fill="#ffffff"/><path d="M285 576.7H287.3V601.7H285V588.6H281.6C281.4 593.9 279.2 597.1 275.9 597.1 272.4 597.1 270.1 593.5 270.1 587.7 270.1 582 272.3 578.4 275.9 578.4 279.1 578.4 281.3 581.6 281.6 586.6H285V576.7ZM279.4 587.7C279.4 583.4 278 580.7 275.9 580.7 273.7 580.7 272.4 583.4 272.4 587.7 272.4 592.1 273.7 594.8 275.9 594.8 278 594.8 279.4 592.1 279.4 587.7ZM292.7 576.1V603H290.4V576.1H292.7Z" fill="#ffffff"/><path d="M306.599 583.3C306.599 588.2 309.699 593.1 313.599 594.9L312.199 596.9C309.099 595.4 306.699 592.2 305.399 588.4 304.199 592.4 301.699 595.8 298.699 597.4L297.199 595.5C301.099 593.5 304.199 588.4 304.199 583.4V578.6H306.699V583.3H306.599ZM319.299 576.1V603H316.799V587.2H310.599V585.2H316.799V576.1H319.299Z" fill="#ffffff"/><path d="M345.9 590.7C342.8 589.6 340.4 587.3 339.2 584.3 338 587.5 335.6 590 332.4 591.2L331.1 589.2C335.2 587.7 337.9 584 337.9 580V577.4H340.4V580C340.4 583.9 343.2 587.4 347.2 588.8L345.9 590.7ZM335 593.7H353V603.1H350.5V595.7H335V593.7ZM353 576.1V592.3H350.5V576.1H353Z" fill="#ffffff"/><path d="M371.6 589.1H359.5V577.4H361.9V581.2H369.2V577.4H371.6V579.9H377.8V576.1H380.3V590.1H377.8V586.7H371.6V589.1 589.1ZM369.2 583.1H362V587.1H369.3V583.1H369.2ZM381.3 600.7V602.6H363V596H377.8V593.4H363V591.4H380.3V597.8H365.5V600.7H381.3V600.7ZM371.6 581.9V584.9H377.8V581.9H371.6Z" fill="#ffffff"/><path d="M405.6 579C405.6 586.7 402.1 593.6 393.4 597.9L392.1 596C399 592.5 402.7 587.4 403.2 581H393.3V579H405.6ZM416.9 589.1H412.6V603H410.1V576.1H412.6V587H416.9V589.1Z" fill="#ffffff"/><path d="M443.599 588.699V590.699H419.299V588.699H443.599ZM440.599 597.999C440.599 601.099 437.099 602.899 431.399 602.899 425.699 602.899 422.199 601.099 422.199 597.999 422.199 594.799 425.699 593.099 431.399 593.099 437.099 593.099 440.599 594.899 440.599 597.999ZM440.799 585.599H422.499V576.699H424.999V583.599H440.799V585.599ZM438.099 597.999C438.099 596.099 435.599 594.999 431.399 594.999 427.199 594.999 424.699 596.099 424.699 597.999 424.699 599.899 427.199 600.999 431.399 600.999 435.499 600.999 438.099 599.899 438.099 597.999Z" fill="#ffffff"/><path d="M196.301 437.4C192.301 437.4 189.301 434.6 189.301 430.7 189.301 426.8 192.301 424.1 196.301 424.1 200.301 424.1 203.301 426.8 203.301 430.7 203.401 434.6 200.301 437.4 196.301 437.4ZM196.301 435.3C199.001 435.3 200.901 433.4 200.901 430.8 200.901 428.2 198.901 426.3 196.301 426.3 193.701 426.3 191.701 428.2 191.701 430.8 191.701 433.4 193.701 435.3 196.301 435.3ZM211.601 446.5V448.5H193.501V439.9H196.001V446.5H211.601ZM210.801 441.9H208.301V422.3H210.801V441.9Z" fill="#ffffff"/><path d="M219.701 440.7C224.601 440.7 227.701 440.5 231.301 439.9L231.601 441.9C227.701 442.6 224.401 442.7 219.301 442.7H217.201V424.7H229.601V426.7H219.601V432.2H228.401V434.2H219.601V440.7H219.701ZM238.201 422.2V449.2H235.701V434.4H230.201V432.4H235.701V422.2H238.201Z" fill="#ffffff"/><path d="M256.101 436.2C252.601 437 249.601 437.1 246.501 437.1H244.801V424.6H247.201V435C250.001 435 252.701 434.8 255.801 434.1L256.101 436.2ZM258.301 440.1C258.301 443.6 262.701 446.5 267.401 447.2L266.501 449.1C262.501 448.4 258.701 446.4 257.101 443.4 255.401 446.4 251.701 448.4 247.701 449.1L246.801 447.2C251.501 446.5 255.901 443.6 255.901 440.1V439.1H258.401V440.1H258.301ZM258.401 430.4H252.701V428.4H258.401V422.8H260.701V438H258.401V430.4ZM266.101 440.4H263.801V422.2H266.101V440.4Z" fill="#ffffff"/><path d="M299.2 422.3V436.7H296.7V430.7H291.2C290.7 433.9 288 436 284.3 436 280.3 436 277.4 433.5 277.4 429.8 277.4 426.1 280.3 423.6 284.3 423.6 287.9 423.6 290.6 425.6 291.1 428.8H296.6V422.4H299.2V422.3ZM289 429.7C289 427.2 287.1 425.5 284.4 425.5 281.7 425.5 279.8 427.2 279.8 429.7 279.8 432.2 281.7 433.9 284.4 433.9 287.1 433.9 289 432.2 289 429.7ZM296.7 438H299.2V448.8H282V438H284.4V441.4H296.7V438ZM296.7 443.3H284.4V446.8H296.7V443.3Z" fill="#ffffff"/><path d="M312.201 430.5C312.201 434.8 314.401 439.2 318.001 441.2L316.601 443.1C314.001 441.6 312.101 438.9 311.101 435.7 310.201 439.1 308.301 442.1 305.601 443.7L304.201 441.9C307.801 439.7 309.901 435 309.901 430.6V429.3H304.901V427.3H309.901V423.3H312.301V427.3H317.301V429.3H312.301V430.5H312.201ZM319.401 422.9H321.701V447.8H319.401V435H315.301V433H319.401V422.9ZM327.201 422.2V449.1H324.801V422.2H327.201Z" fill="#ffffff"/><path d="M345.4 425.1C345.4 432.8 341.9 439.7 333.2 444L331.9 442.1C338.8 438.6 342.5 433.5 343 427.1H333.1V425.1H345.4ZM356.6 435.2H352.3V449.1H349.8V422.2H352.3V433.1H356.6V435.2Z" fill="#ffffff"/><path d="M381.3 426.6H365.4V424.7H372.1V422H374.6V424.7H381.3V426.6ZM373.4 436.6C369.5 436.6 367 434.9 367 432.2 367 429.5 369.6 427.8 373.4 427.8 377.3 427.8 379.9 429.5 379.9 432.2 379.8 434.9 377.3 436.6 373.4 436.6ZM371.6 447H387.2V448.9H369.2V442.6H383.8V440.3H369.1V438.5H386.2V444.5H371.6V447 447ZM373.4 434.8C375.9 434.8 377.5 433.8 377.5 432.2 377.5 430.6 375.9 429.6 373.4 429.6 370.9 429.6 369.3 430.6 369.3 432.2 369.3 433.8 370.9 434.8 373.4 434.8ZM390.2 428.6V430.6H386.2V437H383.7V422.1H386.2V428.6H390.2Z" fill="#ffffff"/><path d="M408.501 435.2C404.801 436 401.601 436.1 395.901 436.1H393.801V424.3H405.701V426.3H396.201V434.1C401.501 434.1 404.601 433.9 408.201 433.2L408.501 435.2ZM413.801 444C413.801 447.2 410.401 449.2 405.001 449.2 399.501 449.2 396.101 447.3 396.101 444 396.101 440.8 399.501 438.8 405.001 438.8 410.401 438.8 413.801 440.7 413.801 444ZM411.401 444C411.401 442 408.901 440.8 405.001 440.8 401.001 440.8 398.501 442 398.501 444 398.501 446 401.001 447.2 405.001 447.2 408.901 447.1 411.401 445.9 411.401 444ZM417.501 429.2V431.2H413.501V438.2H411.001V422.2H413.501V429.2H417.501Z" fill="#ffffff"/><path d="M192.3 756.5C197.1 756.5 200.5 756.3 204.4 755.6L204.7 757.6C200.6 758.4 197.1 758.6 192 758.6H189.9V740.9H202.4V742.9H192.4V756.5H192.3ZM213.9 751H209.5V765.3H207V738.3H209.5V749H213.9V751Z" fill="#ffffff"/><path d="M240.4 753.3V755.3H216V753.3H240.4ZM234.9 741.2H219.1V739.3H237.3V746H221.6V748.9H237.9V750.8H219.2V744.1H234.9V741.2ZM221.7 762.7H237.9V764.7H219.2V757.4H221.7V762.7Z" fill="#ffffff"/><path d="M251.1 741H253.9V763H251.1V741Z" fill="#ffffff"/><path d="M259.6 741H265.9C270.8 741 274.1 742.7 274.1 747.5 274.1 752.1 270.8 754.3 266 754.3H262.4V763H259.6V741 741ZM265.7 752.1C269.6 752.1 271.4 750.7 271.4 747.5 271.4 744.3 269.5 743.3 265.6 743.3H262.5V752.1H265.7V752.1Z" fill="#ffffff"/><path d="M307.701 755.7H296.701V765.3H294.201V755.7H283.301V753.7H307.601L307.701 755.7ZM284.801 749.5C289.501 748.8 294.101 745.7 294.101 742.2V742H285.601V740H305.201V742H296.801V742.2C296.801 745.7 301.401 748.8 306.201 749.5L305.201 751.5C301.001 750.8 297.001 748.5 295.401 745.4 293.801 748.6 289.801 750.8 285.601 751.5L284.801 749.5Z" fill="#ffffff"/><path d="M335 759.7V761.7H310.6V759.7H321.5V753.2H324V759.7H335ZM332.8 753.5C328.7 752.6 324.5 749.8 322.7 746 321 749.8 316.8 752.6 312.6 753.5L311.6 751.5C316.3 750.7 321.4 746.7 321.4 742.2V740.1H324V742.2C324 746.7 329.1 750.6 333.8 751.5L332.8 753.5Z" fill="#ffffff"/><path d="M347.201 757.2C349.701 757.1 352.101 756.9 354.501 756.6L354.701 758.4C349.001 759.4 342.701 759.4 338.001 759.4L337.701 757.3C339.801 757.3 342.301 757.3 344.801 757.2V752.6C341.301 752.2 338.901 749.7 338.901 746.4 338.901 742.6 341.901 740.1 346.001 740.1 350.101 740.1 353.101 742.6 353.101 746.4 353.101 749.8 350.701 752.2 347.201 752.6V757.2 757.2ZM345.901 750.7C348.601 750.7 350.601 749 350.601 746.5 350.601 744 348.601 742.2 345.901 742.2 343.101 742.2 341.201 743.9 341.201 746.5 341.201 749 343.201 750.7 345.901 750.7ZM362.901 751.5H358.601V765.2H356.101V738.3H358.601V749.4H362.901V751.5Z" fill="#ffffff"/><path d="M385 752.9V755.8C390 756 392.9 757.7 392.9 760.5 392.9 763.6 389.5 765.2 383.7 765.2 377.9 765.2 374.5 763.5 374.5 760.5 374.5 757.7 377.5 756.1 382.5 755.8V752.9H371.6V750.9H395.9V752.9H385ZM373 747.4C377.7 746.9 382 744.6 382.2 741.6H373.9V739.6H393.8V741.6H385.4C385.6 744.6 389.9 746.9 394.6 747.4L393.7 749.4C389.3 748.9 385.3 746.9 383.8 743.9 382.3 746.9 378.3 748.9 373.9 749.4L373 747.4ZM383.8 757.7C379.6 757.7 377.1 758.7 377.1 760.5 377.1 762.3 379.6 763.3 383.8 763.3 388 763.3 390.5 762.3 390.5 760.5 390.5 758.7 388 757.7 383.8 757.7Z" fill="#ffffff"/><path d="M423.201 752.2V754.2H398.801V752.2H409.801V749H402.101V739H404.501V742.1H417.601V739H420.001V749H412.301V752.2H423.201ZM401.601 756.9H420.201V765.3H417.701V758.9H401.501V756.9H401.601ZM404.601 747.1H417.701V744H404.601V747.1Z" fill="#ffffff"/><path d="M436.3 757.2C438.9 757.1 441.5 756.9 443.9 756.6L444.1 758.4C438.2 759.3 431.8 759.4 426.7 759.4L426.4 757.3C428.7 757.3 431.3 757.3 433.9 757.2V752H428.4V740.9H442V742.9H430.8V749.9H442.1V751.9H436.3V757.2ZM448.1 738.3V765.3H445.6V738.3H448.1Z" fill="#ffffff"/><path d="M463.1 746.599C463.1 751.199 466.3 755.799 470.3 757.499L468.9 759.499C465.8 758.099 463.1 754.999 461.9 751.299 460.7 755.199 458 758.599 455 760.199L453.6 758.199C457.5 756.399 460.7 751.299 460.7 746.699V743.299H454.5V741.299H469.5V743.299H463.2V746.599H463.1ZM475.5 738.399V765.299H473V738.399H475.5Z" fill="#ffffff"/><path d="M494.701 752.3C490.701 752.3 487.701 749.8 487.701 746.1 487.701 742.4 490.601 739.9 494.701 739.9 498.701 739.9 501.601 742.4 501.601 746.1 501.601 749.8 498.701 752.3 494.701 752.3ZM492.501 762.5C494.101 762.4 496.001 762.2 497.901 761.6L498.301 763.6C495.701 764.4 493.201 764.6 491.401 764.6H490.101V754.7H492.501V762.5 762.5ZM494.701 750.3C497.301 750.3 499.201 748.6 499.201 746.1 499.201 743.6 497.201 741.9 494.701 741.9 492.101 741.9 490.101 743.6 490.101 746.1 490.101 748.6 492.101 750.3 494.701 750.3ZM505.201 754.9H510.701V756.7H497.201V754.9H502.801V752.5H505.201V754.9ZM509.001 761.4C509.001 763.7 506.901 765.2 504.001 765.2 501.101 765.2 499.001 763.7 499.001 761.4 499.001 759.1 501.101 757.6 504.001 757.6 506.901 757.6 509.001 759.1 509.001 761.4ZM506.801 761.4C506.801 760.2 505.601 759.4 504.001 759.4 502.301 759.4 501.201 760.2 501.201 761.4 501.201 762.6 502.301 763.5 504.001 763.5 505.701 763.5 506.801 762.7 506.801 761.4ZM512.101 744.4V746.4H508.101V751.7H505.601V738.3H508.101V744.3H512.101V744.4Z" fill="#ffffff"/><path d="M538.9 751.4V753.4H514.6V751.4H538.9ZM536.1 744.1C536.1 747.3 532.5 749.2 526.7 749.2 520.9 749.2 517.3 747.3 517.3 744.1 517.3 740.9 520.9 739 526.7 739 532.5 739 536.1 740.8 536.1 744.1ZM535.9 756.1V764.9H517.5V756.1H535.9ZM519.8 744.1C519.8 746.1 522.5 747.3 526.7 747.3 530.9 747.3 533.6 746.1 533.6 744.1 533.6 742.1 530.9 741 526.7 741 522.5 741 519.8 742.1 519.8 744.1ZM519.9 758V762.9H533.5V758H519.9Z" fill="#ffffff"/><path d="M43.8008 81.4004H577.801" stroke="#e7e7e8" stroke-miterlimit="10"/><path d="M577.801 168.3H43.8008" stroke="#e7e7e8" stroke-miterlimit="10"/><path d="M96.9004 122.6V126.2H61.9004V122.6H75.7004V115.5H80.2004V122.6H96.9004ZM92.9004 136.4C92.9004 140.9 87.6004 143.7 79.3004 143.7 70.9004 143.7 65.6004 140.9 65.6004 136.4 65.6004 131.9 70.9004 129.2 79.3004 129.2 87.5004 129.2 92.9004 131.9 92.9004 136.4ZM87.2004 119.8C88.2004 116 88.2004 113.2 88.2004 110.3H65.9004V106.7H92.6004V110C92.6004 113.1 92.6004 116.3 91.5004 120.3L87.2004 119.8ZM88.4004 136.4C88.4004 134 85.0004 132.6 79.2004 132.6 73.4004 132.6 69.9004 134 69.9004 136.4 69.9004 138.9 73.4004 140.3 79.2004 140.3 85.0004 140.3 88.4004 138.9 88.4004 136.4Z" fill="#ffffff"/><path d="M112.501 126.9C106.701 126.9 102.201 122.8 102.201 117.2 102.201 111.5 106.701 107.5 112.501 107.5 118.301 107.5 122.801 111.5 122.801 117.2 122.701 122.8 118.301 126.9 112.501 126.9ZM112.501 123C115.901 123 118.501 120.6 118.501 117.1 118.501 113.5 115.901 111.2 112.501 111.2 109.101 111.2 106.501 113.5 106.501 117.1 106.501 120.7 109.001 123 112.501 123ZM134.501 139.3V142.9H108.001V130.2H112.501V139.3H134.501ZM133.401 133.1H129.001V104.9H133.401V133.1Z" fill="#ffffff"/><path d="M152.6 108.7H157.6V140.4H152.6V108.7Z" fill="#ffffff"/><path d="M165.9 108.7H175.5C182.6 108.7 187.6 111.2 187.6 118.3 187.6 125.2 182.6 128.4 175.7 128.4H170.9V140.4H165.9V108.7 108.7ZM175.2 124.4C180.3 124.4 182.7 122.5 182.7 118.3 182.7 114.1 180.1 112.8 175 112.8H170.9V124.5H175.2V124.4Z" fill="#ffffff"/><path d="M622.801 81.4004H1156.8" stroke="#e7e7e8" stroke-miterlimit="10"/><path d="M1156.8 168.3H622.801" stroke="#e7e7e8" stroke-miterlimit="10"/><g fill="#ffffff"><path d="M654.399 114.399C654.399 121.299 657.999 128.299 663.899 131.199L661.199 134.699C656.999 132.499 653.899 128.299 652.299 123.299 650.599 128.699 647.399 133.199 642.899 135.499L640.199 131.899C646.299 128.899 649.999 121.599 649.999 114.399V107.999H654.399V114.399 114.399ZM676.999 123.899H670.899V143.699H666.499V104.899H670.899V120.299H676.999V123.899Z"/><path d="M700.999 124.1C696.799 122.7 693.699 119.8 692.099 116.2 690.399 120.2 687.199 123.4 682.599 125L680.299 121.5C686.399 119.5 689.799 114.7 689.799 109.3V106H694.199V109.3C694.199 114.2 697.599 118.8 703.399 120.7L700.999 124.1ZM713.899 139.7V143.2H687.399V133.1H708.199V130H687.299V126.6H712.599V136.4H691.799V139.7H713.899V139.7ZM708.099 114.9H700.199V111.3H708.099V104.8H712.499V124.8H708.099V114.9Z"/><path d="M731.6 108.7H736.6V140.4H731.6V108.7Z"/><path d="M744.898 108.7H754.498C761.598 108.7 766.598 111.2 766.598 118.3 766.598 125.2 761.598 128.4 754.698 128.4H749.898V140.4H744.898V108.7 108.7ZM754.198 124.4C759.298 124.4 761.698 122.5 761.698 118.3 761.698 114.1 759.098 112.8 753.998 112.8H749.898V124.5H754.198V124.4Z"/><path d="M793.599 258.4V260.4H769.199V258.4H780.099V253.3H772.199V245H788.199V240.8H772.199V238.8H790.599V247H774.699V251.3H791.299V253.3H782.699V258.4H793.599V258.4Z"/><path d="M810.3 238.2C810.3 245 806.5 249.5 798.1 251.7L797.2 249.8C801.7 248.7 804.5 246.9 806.2 244.6L797.5 245.3 797.1 243.4 807.1 242.9C807.4 242.1 807.6 241.2 807.7 240.3H798.4V238.3H810.3V238.2ZM819.5 261.4V263.3H801.3V256.6H816.1V253.9H801.2V251.9H818.5V258.4H803.7V261.4H819.5ZM816.1 245.3H810.3V243.3H816.1V236.8H818.6V250.7H816.1V245.3Z"/><path d="M833.9 254.8C836.8 254.8 839.5 254.6 842.6 254L842.9 256.1C839.4 256.8 836.4 257 833.1 257H831.4V239.8H833.8V254.8H833.9ZM845 237.5H847.3V262.4H845V247.9H839V245.9H845V237.5ZM853 236.8V263.7H850.7V236.8H853V236.8Z"/><path d="M881.9 258.2V260.2H857.5V258.2H881.9ZM879.1 253.3H860.6V239.1H878.8V241.1H863.1V245.1H878.2V247.1H863.1V251.4H879.1V253.3Z"/><path d="M902.5 251.999C899.9 252.499 897.2 252.699 894.5 252.899V262.999H892V252.999C889.5 253.099 887 253.099 884.9 253.099L884.6 250.999C889.7 250.999 896.4 250.999 902.3 250.099L902.5 251.999ZM886.7 243.499C886.7 240.399 889.5 238.199 893.5 238.199 897.5 238.199 900.3 240.299 900.3 243.499 900.3 246.699 897.5 248.799 893.5 248.799 889.5 248.799 886.7 246.599 886.7 243.499ZM889 243.499C889 245.599 890.8 246.899 893.4 246.899 896 246.899 897.8 245.599 897.8 243.499 897.8 241.499 896 240.099 893.4 240.099 890.8 240.099 889 241.499 889 243.499ZM906.9 236.899V263.799H904.4V257.199H898.3V255.299H904.4V236.899H906.9V236.899Z"/><path d="M936.4 258V260H912.1V258H936.4ZM931 247C931.1 245.6 931.1 244.2 931.1 242.8V241.5H915.1V239.5H933.5V242.8C933.5 246.8 933.5 250.4 932.3 255.9L929.9 255.7C930.5 253.1 930.8 250.9 930.9 248.8L914.7 249.7 914.3 247.7 931 247Z"/><path d="M970.099 251.1V253.1H945.699V251.1H956.599V248.5H948.999V237.7H967.099V239.6H951.399V242.1H966.399V244H951.399V246.6H967.199V248.5H959.099V251.1H970.099ZM967.199 259.4C967.199 262.2 963.799 263.7 957.999 263.7 952.199 263.7 948.799 262.2 948.799 259.4 948.799 256.6 952.199 255.1 957.999 255.1 963.799 255.1 967.199 256.6 967.199 259.4ZM964.699 259.4C964.699 257.8 962.299 256.9 957.899 256.9 953.599 256.9 951.099 257.8 951.099 259.4 951.099 261 953.499 261.9 957.899 261.9 962.299 261.9 964.699 261 964.699 259.4Z"/><path d="M988 252.199C984.9 250.999 982.6 248.599 981.4 245.499 980.3 248.799 977.8 251.399 974.7 252.699L973.4 250.699C977.5 249.099 980.2 245.199 980.2 240.999V238.299H982.7V240.999C982.7 244.999 985.4 248.699 989.4 250.199L988 252.199ZM996 261.099V263.099H977.9V254.699H980.4V261.099H996ZM995.2 256.599H992.7V236.899H995.2V256.599Z"/><path d="M793.5 303.5V305.5H769.1V303.5H780.1V300.1H772.3V291H790.4V300.1H782.6V303.5H793.5ZM771.9 308.3H790.5V316.8H788V310.3H771.8V308.3H771.9ZM774.7 298.1H788V292.9H774.7V298.1Z"/><path d="M811.1 304.9C808.1 303.8 805.8 301.6 804.6 298.8 803.5 301.9 801 304.3 797.8 305.5L796.5 303.5C800.5 302.1 803.3 298.5 803.3 294.7V293.6H797.3V291.6H811.7V293.6H805.8V294.7C805.8 298.2 808.4 301.5 812.3 302.9L811.1 304.9ZM800.6 307.4H818.6V316.8H816.1V309.4H800.6V307.4ZM818.6 289.8V305.9H816.1V298.8H810.9V296.8H816.1V289.8H818.6Z"/><path d="M848.199 311.1V313.1H823.799V311.1H848.199ZM845.699 299C845.699 303.5 841.499 306.4 835.899 306.4 830.299 306.4 826.099 303.5 826.099 299 826.099 294.5 830.299 291.6 835.899 291.6 841.499 291.5 845.699 294.5 845.699 299ZM828.499 299C828.499 302.3 831.699 304.4 835.899 304.4 840.199 304.4 843.299 302.2 843.299 299 843.299 295.8 840.099 293.6 835.899 293.6 831.699 293.5 828.499 295.7 828.499 299Z"/><path d="M875.5 311.4V313.4H851V311.4H862V306.3H854.1V298H870.1V293.8H854.1V291.8H872.5V300H856.6V304.3H873.2V306.3H864.6V311.4H875.5V311.4Z"/><path d="M893.8 297C893.8 301.7 896.9 306.6 900.6 308.5L899.1 310.5C896.3 309 893.8 305.8 892.6 302.1 891.4 306 888.9 309.4 885.9 311L884.4 309C888.3 307 891.3 301.9 891.3 297V292.2H893.7V297H893.8ZM909.9 302.8H905.5V316.7H903V289.8H905.5V300.7H909.9V302.8Z"/><path d="M936.4 303.199V305.199H912V303.199H918V299.399C915.9 298.499 914.7 297.199 914.7 295.399 914.7 292.199 918.3 290.399 924.1 290.399 930 290.399 933.6 292.299 933.6 295.399 933.6 297.199 932.4 298.599 930.3 299.399V303.199H936.4ZM933.4 311.899C933.4 314.999 930 316.699 924.2 316.699 918.4 316.699 915 314.999 915 311.899 915 308.799 918.4 307.099 924.2 307.099 930 307.099 933.4 308.899 933.4 311.899ZM924.2 298.399C928.5 298.399 931.1 297.199 931.1 295.299 931.1 293.299 928.5 292.199 924.2 292.199 919.9 292.199 917.3 293.299 917.3 295.299 917.3 297.199 919.9 298.399 924.2 298.399ZM930.9 311.899C930.9 310.099 928.4 308.999 924.2 308.999 920 308.999 917.5 309.999 917.5 311.899 917.5 313.799 920 314.799 924.2 314.799 928.4 314.799 930.9 313.799 930.9 311.899ZM920.5 303.199H928V299.999C926.9 300.199 925.6 300.299 924.2 300.299 922.9 300.299 921.6 300.199 920.5 299.999V303.199Z"/><path d="M775.6 596.6C771.6 596.6 768.6 593.8 768.6 589.9 768.6 586 771.6 583.3 775.6 583.3 779.6 583.3 782.7 586 782.7 589.9 782.6 593.8 779.6 596.6 775.6 596.6ZM775.6 594.4C778.3 594.4 780.3 592.5 780.3 589.9 780.3 587.3 778.3 585.4 775.6 585.4 773 585.4 771 587.3 771 589.9 771 592.6 773 594.4 775.6 594.4ZM790.8 605.7V607.7H772.7V599.1H775.2V605.7H790.8ZM790 601.1H787.5V581.5H790V601.1Z"/><path d="M798.9 599.9C803.8 599.9 806.9 599.7 810.5 599.1L810.8 601.1C806.9 601.8 803.6 601.9 798.5 601.9H796.4V583.9H808.9V585.9H798.9V591.4H807.7V593.4H798.9V599.9ZM817.4 581.4V608.4H815V593.6H809.4V591.6H815V581.4H817.4Z"/><path d="M835.3 595.4C831.8 596.2 828.9 596.3 825.7 596.3H824V583.8H826.4V594.2C829.2 594.2 831.9 594 835 593.3L835.3 595.4ZM837.6 599.2C837.6 602.7 842 605.6 846.7 606.3L845.8 608.2C841.8 607.5 838 605.5 836.4 602.5 834.8 605.5 831 607.5 827 608.2L826.1 606.3C830.8 605.6 835.2 602.7 835.2 599.2V598.2H837.7V599.2H837.6ZM837.6 589.5H831.9V587.5H837.6V582H839.9V597.2H837.6V589.5ZM845.4 599.6H843V581.4H845.3V599.6H845.4Z"/><path d="M865 582H867.3V607H865V593.9H861.6C861.4 599.2 859.2 602.4 855.9 602.4 852.4 602.4 850.1 598.8 850.1 593 850.1 587.3 852.3 583.7 855.9 583.7 859.1 583.7 861.3 586.9 861.6 591.9H865V582ZM859.4 593C859.4 588.7 858 586 855.9 586 853.7 586 852.4 588.7 852.4 593 852.4 597.4 853.7 600.1 855.9 600.1 858 600.1 859.4 597.4 859.4 593ZM872.7 581.4V608.3H870.4V581.4H872.7Z"/><path d="M886.599 588.6C886.599 593.5 889.699 598.4 893.599 600.2L892.199 602.2C889.099 600.7 886.699 597.5 885.499 593.7 884.299 597.7 881.799 601.1 878.799 602.7L877.299 600.8C881.199 598.8 884.299 593.7 884.299 588.7V583.9H886.799V588.6H886.599ZM899.299 581.4V608.3H896.799V592.5H890.599V590.5H896.799V581.4H899.299Z"/><path d="M925.9 596C922.8 594.9 920.4 592.6 919.2 589.6 918 592.8 915.6 595.3 912.4 596.5L911.1 594.5C915.1 593 917.9 589.3 917.9 585.3V582.7H920.4V585.3C920.4 589.2 923.2 592.7 927.2 594.1L925.9 596ZM915 599H933V608.4H930.5V601H915V599ZM933 581.4V597.6H930.5V581.4H933Z"/><path d="M951.6 594.4H939.5V582.7H941.9V586.5H949.2V582.7H951.6V585.2H957.8V581.4H960.3V595.4H957.8V592H951.6V594.4 594.4ZM949.2 588.4H942V592.4H949.3V588.4H949.2ZM961.3 606V607.9H943V601.2H957.8V598.6H943V596.6H960.3V603H945.5V605.9H961.3V606ZM951.6 587.2V590.2H957.8V587.2H951.6Z"/><path d="M985.3 594.901V597.501H993.1V603.501H977.3V606.101H993.9V608.001H974.9V601.701H990.7V599.401H974.8V597.501H982.8V594.901H971.9V592.901H996.3V594.901H985.3V594.901ZM993 590.701H975.1V581.801H977.5V584.301H990.6V581.801H993V590.701ZM990.6 586.201H977.5V588.801H990.6V586.201Z"/><path d="M1012.9 584.3C1012.9 592 1009.4 598.9 1000.7 603.2L999.4 601.3C1006.3 597.8 1010 592.7 1010.5 586.3H1000.6V584.3H1012.9ZM1024.2 594.4H1019.9V608.3H1017.4V581.4H1019.9V592.3H1024.2V594.4Z"/><path d="M772.5 443.101C775.4 443.101 778.1 442.901 781.2 442.301L781.5 444.401C778 445.101 775 445.301 771.7 445.301H770V428.001H772.4V443.101H772.5ZM783.5 425.801H785.8V450.701H783.5V436.201H777.5V434.201H783.5V425.801ZM791.6 425.101V452.001H789.3V425.101H791.6Z"/><path d="M820.4 446.6V448.6H796V446.6H820.4ZM817.6 441.6H799.1V427.4H817.3V429.4H801.6V433.4H816.7V435.4H801.6V439.7H817.6V441.6Z"/><path d="M841.099 440.3C838.499 440.8 835.799 441 833.099 441.2V451.3H830.599V441.3C828.099 441.4 825.599 441.4 823.499 441.4L823.199 439.3C828.299 439.3 834.999 439.3 840.899 438.4L841.099 440.3ZM825.199 431.8C825.199 428.6 827.999 426.5 831.999 426.5 835.999 426.5 838.699 428.6 838.699 431.8 838.699 435 835.899 437.1 831.999 437.1 827.999 437.1 825.199 434.9 825.199 431.8ZM827.499 431.8C827.499 433.9 829.299 435.2 831.899 435.2 834.499 435.2 836.299 433.9 836.299 431.8 836.299 429.8 834.499 428.4 831.899 428.4 829.399 428.4 827.499 429.8 827.499 431.8ZM845.399 425.2V452.1H842.999V445.5H836.899V443.6H842.999V425.2H845.399Z"/><path d="M874.999 446.301V448.301H850.699V446.301H874.999ZM869.499 435.301C869.599 433.901 869.599 432.501 869.599 431.101V429.801H853.599V427.801H871.999V431.101C871.999 435.101 871.999 438.701 870.799 444.201L868.399 444.001C868.999 441.401 869.299 439.201 869.399 437.101L853.199 438.001 852.799 436.001 869.499 435.301Z"/><path d="M901.199 440.001C895.599 440.901 889.199 441.101 884.399 441.101L884.199 439.101C885.899 439.101 887.899 439.101 889.899 439.001V433.201H892.299V438.901C895.199 438.801 898.299 438.501 900.999 438.201L901.199 440.001ZM895.999 436.401C896.599 433.301 896.699 431.001 896.699 429.301H885.699V427.301H899.099V428.701C899.099 430.501 899.099 433.101 898.399 436.701L895.999 436.401ZM890.699 449.401H906.099V451.401H888.199V443.501H890.699V449.401ZM909.099 433.901V435.901H905.299V445.401H902.799V425.101H905.299V433.901H909.099Z"/><path d="M915.6 443.501C920 443.501 924 443.301 928.7 442.501L928.9 444.501C924 445.301 920 445.501 915.3 445.501H913.1V435.201H923V429.601H913V427.601H925.5V437.201H915.6V443.501ZM933.7 425.101V452.101H931.2V425.101H933.7Z"/><path d="M948 433.4C948 437.7 951.1 442.5 955 444.3L953.6 446.3C950.6 444.8 948.1 441.7 946.8 438.1 945.6 442 943 445.4 939.9 447L938.5 445C942.3 443.1 945.6 438 945.6 433.4V430H939.5V428H954V430H948V433.4ZM964.1 438.1H959.7V452.1H957.2V425.2H959.7V436H964.1V438.1Z"/><path d="M969.701 443.201C973.601 443.201 977.601 442.901 981.901 442.001L982.201 444.001C977.601 444.901 973.501 445.201 969.401 445.201H967.301V427.701H969.701V443.201ZM991.201 437.901H986.901V452.001H984.401V425.101H986.901V435.801H991.201V437.901Z"/><path d="M1014.4 440.1C1011.3 439.1 1009 437 1007.9 434.3 1006.8 437.4 1004.3 439.8 1001.1 440.9L999.801 438.9C1003.8 437.5 1006.6 434 1006.6 430.1V429.1H1000.6V427.1H1015V429.1H1009.1V430.1C1009.1 433.6 1011.7 436.8 1015.6 438.1L1014.4 440.1ZM1021.1 447C1021.1 450.2 1017.7 452 1012.3 452 1006.8 452 1003.4 450.2 1003.4 447 1003.4 443.9 1006.8 442.1 1012.3 442.1 1017.7 442.1 1021.1 443.9 1021.1 447ZM1018.7 447C1018.7 445.1 1016.3 444 1012.3 444 1008.3 444 1005.9 445.1 1005.9 447 1005.9 448.9 1008.3 450 1012.3 450 1016.2 450.1 1018.7 449 1018.7 447ZM1024.8 431.9V434H1020.8V441.4H1018.3V425.2H1020.8V432H1024.8V431.9Z"/><path d="M1037.1 433.801C1037.1 438.301 1040.2 442.701 1044.1 444.401L1042.8 446.301C1039.7 444.901 1037.2 442.001 1035.9 438.401 1034.7 442.201 1032.2 445.201 1029.1 446.701L1027.7 444.801C1031.7 442.901 1034.7 438.401 1034.7 433.701V431.601H1028.5V429.601H1034.7V425.401H1037.2V429.601H1043.3V431.601H1037.2V433.801H1037.1ZM1049.3 425.101V452.001H1046.8V425.101H1049.3Z"/><path d="M1068.3 428.001C1068.3 435.601 1064.8 442.601 1056.1 446.901L1054.8 445.001C1061.7 441.601 1065.4 436.401 1065.9 430.001H1056V428.001H1068.3ZM1079.6 438.101H1075.3V452.001H1072.8V425.101H1075.3V436.001H1079.6V438.101Z"/><path d="M1104.2 429.5H1088.3V427.6H1095V424.9H1097.5V427.6H1104.2V429.5ZM1096.3 439.5C1092.4 439.5 1089.9 437.8 1089.9 435.1 1089.9 432.4 1092.5 430.7 1096.3 430.7 1100.2 430.7 1102.8 432.4 1102.8 435.1 1102.7 437.8 1100.2 439.5 1096.3 439.5ZM1094.5 449.9H1110.1V451.8H1092.1V445.5H1106.7V443.2H1092V441.4H1109.1V447.4H1094.5V449.9ZM1096.3 437.7C1098.8 437.7 1100.4 436.7 1100.4 435.1 1100.4 433.5 1098.8 432.5 1096.3 432.5 1093.8 432.5 1092.2 433.5 1092.2 435.1 1092.2 436.7 1093.8 437.7 1096.3 437.7ZM1113.1 431.5V433.5H1109.1V439.9H1106.6V425H1109.1V431.5H1113.1Z"/><path d="M1131.4 438.101C1127.7 438.901 1124.5 439.001 1118.8 439.001H1116.7V427.201H1128.6V429.201H1119.1V437.001C1124.4 437.001 1127.5 436.801 1131.1 436.101L1131.4 438.101ZM1136.7 446.901C1136.7 450.101 1133.3 452.101 1127.9 452.101 1122.4 452.101 1119 450.201 1119 446.901 1119 443.601 1122.4 441.701 1127.9 441.701 1133.3 441.701 1136.7 443.601 1136.7 446.901ZM1134.3 446.901C1134.3 444.901 1131.8 443.701 1127.9 443.701 1123.9 443.701 1121.4 444.901 1121.4 446.901 1121.4 448.901 1123.9 450.101 1127.9 450.101 1131.9 450.001 1134.3 448.801 1134.3 446.901ZM1140.4 432.101V434.101H1136.4V441.101H1133.9V425.101H1136.4V432.101H1140.4Z"/><path d="M772.3 730.5C777.1 730.5 780.5 730.3 784.4 729.6L784.7 731.6C780.6 732.4 777.1 732.6 772 732.6H769.9V714.9H782.4V716.9H772.4V730.5H772.3ZM793.9 725H789.5V739.3H787V712.3H789.5V723H793.9V725Z"/><path d="M820.4 727.3V729.3H796V727.3H820.4ZM814.9 715.2H799.1V713.3H817.3V720H801.6V722.9H817.9V724.8H799.2V718.1H814.9V715.2ZM801.7 736.7H817.9V738.7H799.2V731.4H801.7V736.7Z"/><path d="M833.5 730.3C836.4 730.3 839.1 730.1 842.2 729.5L842.5 731.6C839 732.3 836 732.5 832.7 732.5H831V715.3H833.4V730.3H833.5ZM844.5 713H846.8V737.9H844.5V723.4H838.5V721.4H844.5V713ZM852.6 712.3V739.2H850.3V712.3H852.6Z"/><path d="M881.4 733.8V735.8H857V733.8H881.4ZM878.6 728.9H860.1V714.7H878.3V716.7H862.6V720.7H877.7V722.7H862.6V727H878.6V728.9Z"/><path d="M902.101 727.499C899.501 727.999 896.801 728.199 894.101 728.399V738.499H891.601V728.499C889.001 728.599 886.601 728.599 884.501 728.599L884.201 726.499C889.301 726.499 896.001 726.499 901.901 725.599L902.101 727.499ZM886.301 718.999C886.301 715.799 889.101 713.699 893.101 713.699 897.101 713.699 899.901 715.799 899.901 718.999 899.901 722.199 897.101 724.299 893.101 724.299 889.101 724.299 886.301 722.199 886.301 718.999ZM888.601 718.999C888.601 721.099 890.401 722.399 893.001 722.399 895.601 722.399 897.401 721.099 897.401 718.999 897.401 716.999 895.601 715.599 893.001 715.599 890.401 715.599 888.601 716.999 888.601 718.999ZM906.401 712.399V739.299H904.001V732.699H897.901V730.799H904.001V712.399H906.401Z"/><path d="M936.001 733.5V735.5H911.701V733.5H936.001ZM930.501 722.6C930.601 721.2 930.601 719.8 930.601 718.4V717.1H914.601V715.1H933.001V718.4C933.001 722.4 933.001 726 931.801 731.5L929.401 731.3C930.001 728.7 930.301 726.5 930.501 724.4L914.301 725.3 913.901 723.3 930.501 722.6Z"/><path d="M939.102 731.299C944.002 731.299 950.702 731.299 956.602 730.399L956.802 732.199C950.702 733.299 944.202 733.399 939.402 733.399L939.102 731.299ZM954.902 720.699C954.902 724.499 951.902 726.999 947.702 726.999 943.502 726.999 940.502 724.399 940.502 720.699 940.502 716.899 943.502 714.399 947.702 714.399 951.902 714.299 954.902 716.899 954.902 720.699ZM942.902 720.699C942.902 723.199 944.902 724.899 947.702 724.899 950.502 724.899 952.502 723.199 952.502 720.699 952.502 718.199 950.502 716.499 947.702 716.499 944.902 716.399 942.902 718.099 942.902 720.699ZM960.902 712.399V739.399H958.402V712.399H960.902Z"/><path d="M974.102 715H976.902V737H974.102V715Z"/><path d="M982.602 715H988.902C993.802 715 997.102 716.7 997.102 721.5 997.102 726.1 993.802 728.3 989.002 728.3H985.402V737H982.602V715ZM988.602 726.1C992.502 726.1 994.302 724.7 994.302 721.5 994.302 718.3 992.402 717.3 988.502 717.3H985.402V726.1H988.602V726.1Z"/><path d="M1030.6 729.7H1019.6V739.3H1017.1V729.7H1006.2V727.7H1030.5L1030.6 729.7ZM1007.7 723.5C1012.4 722.8 1017 719.7 1017 716.2V716H1008.5V714H1028.1V716H1019.7V716.2C1019.7 719.7 1024.3 722.8 1029.1 723.5L1028.1 725.5C1023.9 724.8 1019.9 722.5 1018.3 719.4 1016.7 722.6 1012.7 724.8 1008.5 725.5L1007.7 723.5Z"/><path d="M1057.9 733.7V735.7H1033.5V733.7H1044.4V727.2H1046.9V733.7H1057.9ZM1055.7 727.5C1051.6 726.6 1047.4 723.8 1045.6 720 1043.9 723.8 1039.7 726.6 1035.5 727.5L1034.5 725.5C1039.2 724.7 1044.3 720.7 1044.3 716.2V714.1H1046.9V716.2C1046.9 720.7 1052 724.6 1056.7 725.5L1055.7 727.5Z"/><path d="M1070.1 731.2C1072.6 731.1 1075 730.9 1077.4 730.6L1077.6 732.4C1071.9 733.4 1065.6 733.4 1060.9 733.4L1060.6 731.3C1062.7 731.3 1065.2 731.3 1067.7 731.2V726.6C1064.2 726.2 1061.8 723.7 1061.8 720.4 1061.8 716.6 1064.8 714.1 1068.9 714.1 1073 714.1 1076 716.6 1076 720.4 1076 723.8 1073.6 726.2 1070.1 726.6V731.2 731.2ZM1068.9 724.7C1071.6 724.7 1073.6 723 1073.6 720.5 1073.6 718 1071.6 716.2 1068.9 716.2 1066.1 716.2 1064.2 717.9 1064.2 720.5 1064.1 723 1066.1 724.7 1068.9 724.7ZM1085.8 725.5H1081.5V739.2H1079V712.3H1081.5V723.4H1085.8V725.5Z"/><path d="M782.101 779.9V782.8C787.101 783 790.101 784.7 790.101 787.5 790.101 790.6 786.601 792.2 780.901 792.2 775.101 792.2 771.701 790.5 771.701 787.5 771.701 784.7 774.701 783.1 779.701 782.8V779.9H768.801V777.9H793.001V779.9H782.101ZM770.101 774.4C774.801 773.9 779.101 771.6 779.301 768.6H771.001V766.6H790.901V768.6H782.501C782.701 771.6 787.001 773.9 791.701 774.4L790.801 776.4C786.401 775.9 782.401 773.9 780.901 770.9 779.401 773.9 775.401 775.9 771.001 776.4L770.101 774.4ZM780.901 784.7C776.701 784.7 774.201 785.7 774.201 787.5 774.201 789.3 776.701 790.3 780.901 790.3 785.101 790.3 787.601 789.3 787.601 787.5 787.601 785.7 785.101 784.7 780.901 784.7Z"/><path d="M820.3 779.2V781.2H796V779.2H807V776H799.3V766H801.7V769.1H814.8V766H817.2V776H809.5V779.2H820.3ZM798.7 783.9H817.3V792.3H814.8V785.9H798.6V783.9H798.7ZM801.7 774.1H814.8V771H801.7V774.1Z"/><path d="M841 778.199C835.3 778.999 828.8 779.199 823.8 779.199L823.5 777.199C825.8 777.199 828.5 777.199 831.1 777.099V774.299H825.9V766.499H838.5V768.399H828.4V772.399H838.8V774.299H833.5V776.999C836 776.899 838.5 776.699 840.8 776.399L841 778.199ZM846.3 789.999V791.899H827.7V785.399H843V782.999H827.7V781.099H845.5V787.299H830.2V789.999H846.3V789.999ZM845.4 779.799H842.9V765.399H845.4V779.799Z"/><path d="M881.4 782.5H870.4V792.2H867.9V782.5H857V780.5H881.3L881.4 782.5ZM879.2 777.6C875 776.9 871 774.5 869.2 771.3 867.5 774.6 863.5 776.9 859.3 777.6L858.3 775.6C863.2 774.9 867.9 771.6 867.9 767.8V766.3H870.5V767.8C870.5 771.5 875.3 774.9 880.2 775.6L879.2 777.6Z"/><path d="M891.4 773.2C891.4 769.5 894.3 766.9 898.4 766.9 902.5 766.9 905.5 769.4 905.5 773.2 905.5 777 902.5 779.5 898.4 779.5 894.3 779.5 891.4 776.9 891.4 773.2ZM909.8 783.4C909.8 786.2 911.8 788.9 915.2 790.1L914 792C911.4 791 909.5 789.2 908.6 786.9 907.8 789.1 906.1 791.1 903.6 792.2 901 791.2 899.4 789.2 898.6 787 897.6 789.2 895.8 791 893.3 792L892.1 790.1C895.5 788.9 897.5 786 897.5 783.4V782H899.9V783.4C899.9 785.8 901.1 788.3 903.6 789.8 906.2 788.2 907.5 785.5 907.5 783.4V782H909.9V783.4H909.8ZM893.8 773.2C893.8 775.7 895.7 777.4 898.4 777.4 901.1 777.4 903.1 775.7 903.1 773.2 903.1 770.7 901.1 769 898.4 769 895.7 769 893.8 770.8 893.8 773.2ZM912.8 780.7H910.3V765.3H912.8V780.7Z"/><path d="M942.402 778.4V780.4H918.102V778.4H942.402ZM939.602 771.1C939.602 774.3 936.002 776.2 930.202 776.2 924.402 776.2 920.802 774.3 920.802 771.1 920.802 767.9 924.402 766 930.202 766 936.002 766 939.602 767.8 939.602 771.1ZM939.402 783.1V791.9H921.002V783.1H939.402ZM923.302 771.1C923.302 773.1 926.002 774.3 930.202 774.3 934.402 774.3 937.102 773.1 937.102 771.1 937.102 769.1 934.402 768 930.202 768 926.002 768 923.302 769.1 923.302 771.1ZM923.502 785V789.9H937.002V785H923.502Z"/></g><path d="M98.6996 326.8C127.75 326.8 151.3 303.25 151.3 274.2 151.3 245.149 127.75 221.6 98.6996 221.6 69.6494 221.6 46.0996 245.149 46.0996 274.2 46.0996 303.25 69.6494 326.8 98.6996 326.8Z" fill="#bdd4ff"/><path d="M97.7992 486.4C126.849 486.4 150.399 462.85 150.399 433.8 150.399 404.75 126.849 381.2 97.7992 381.2 68.749 381.2 45.1992 404.75 45.1992 433.8 45.1992 462.85 68.749 486.4 97.7992 486.4Z" fill="#bdd4ff"/><path d="M97.7992 646.1C126.849 646.1 150.399 622.551 150.399 593.5 150.399 564.45 126.849 540.9 97.7992 540.9 68.749 540.9 45.1992 564.45 45.1992 593.5 45.1992 622.551 68.749 646.1 97.7992 646.1Z" fill="#bdd4ff"/><path d="M97.7992 805.7C126.849 805.7 150.399 782.15 150.399 753.1 150.399 724.05 126.849 700.5 97.7992 700.5 68.749 700.5 45.1992 724.05 45.1992 753.1 45.1992 782.15 68.749 805.7 97.7992 805.7Z" fill="#bdd4ff"/><path d="M678.7 326.8C707.75 326.8 731.3 303.25 731.3 274.2 731.3 245.149 707.75 221.6 678.7 221.6 649.649 221.6 626.1 245.149 626.1 274.2 626.1 303.25 649.649 326.8 678.7 326.8Z" fill="#bdd4ff"/><path d="M677.799 486.4C706.849 486.4 730.399 462.85 730.399 433.8 730.399 404.75 706.849 381.2 677.799 381.2 648.749 381.2 625.199 404.75 625.199 433.8 625.199 462.85 648.749 486.4 677.799 486.4Z" fill="#bdd4ff"/><path d="M677.799 646.1C706.849 646.1 730.399 622.551 730.399 593.5 730.399 564.45 706.849 540.9 677.799 540.9 648.749 540.9 625.199 564.45 625.199 593.5 625.199 622.551 648.749 646.1 677.799 646.1Z" fill="#bdd4ff"/><path d="M677.799 805.7C706.849 805.7 730.399 782.15 730.399 753.1 730.399 724.05 706.849 700.5 677.799 700.5 648.749 700.5 625.199 724.05 625.199 753.1 625.199 782.15 648.749 805.7 677.799 805.7Z" fill="#bdd4ff"/><path d="M98.1004 725.8C82.5004 725.8 69.9004 738.5 69.9004 754 69.9004 769.6 82.6004 782.2 98.1004 782.2 113.6 782.2 126.3 769.5 126.3 754 126.3 738.5 113.7 725.8 98.1004 725.8ZM119.5 748.7C119 748 119.1 745.8 118.9 743.4 120.5 746.6 121.5 750.2 121.5 754 121.5 766.9 111 777.4 98.1004 777.4 95.2004 777.4 92.5004 776.9 89.9004 775.9 90.9004 775 92.0004 773 92.2004 772.3 92.5004 771.5 91.6004 769.5 91.6004 769.1 91.6004 768.7 89.2004 765.9 88.6004 765.5 88.0004 765.1 88.6004 762.9 88.6004 761.4 88.6004 760 85.4004 759.2 84.2004 758.4 83.0004 757.6 82.6004 760.6 81.2004 760 79.8004 759.4 80.0004 757.4 79.8004 755.8 79.7004 754.6 76.5004 754.3 74.8004 754.2 74.8004 744 81.4004 735.2 90.6004 732.1 90.5004 732.2 90.4004 732.3 90.4004 732.4 89.6004 733.5 88.2004 732.4 88.6004 735.9 89.0004 739.4 88.5004 741 91.0004 741.5 93.5004 742 94.4004 741.4 96.1004 741.5 97.8004 741.6 97.7004 745.9 98.1004 746 98.1004 746 100.4 752.2 107 754 108.4 754.4 105.5 757.3 103.6 758.1 101.6 759 99.8004 759.1 99.5004 761.2 99.2004 763.3 102.3 762.1 103.1 762.4 103.9 762.8 107.3 764.1 108.7 762.1 110.1 760.2 115.8 760.8 115.3 758.8 113.9 753.9 121.8 751.8 119.5 748.7Z" fill="#305eb2"/><path d="M113.5 425.1H120.6V452.3H113.5V425.1Z" fill="#305eb2"/><path d="M122.1 418.2 98.1996 408 74.2996 418.3C73.5996 418.6 73.0996 419.3 73.0996 420.1V421.2C73.0996 422.3 73.9996 423.1 74.9996 423.1H121.4C122.5 423.1 123.3 422.2 123.3 421.2V420C123.3 419.2 122.8 418.5 122.1 418.2ZM98.1996 420.2C95.8996 420.2 94.0996 418.4 94.0996 416.1 94.0996 413.8 95.8996 412 98.1996 412 100.5 412 102.3 413.8 102.3 416.1 102.3 418.4 100.4 420.2 98.1996 420.2Z" fill="#305eb2"/><path d="M74.5995 452.3H123.199C124.399 452.3 125.399 453.3 125.399 454.5V456.4C125.399 457.6 124.399 458.6 123.199 458.6H74.5995C73.3995 458.6 72.3995 457.6 72.3995 456.4V454.5C72.2995 453.3 73.2995 452.3 74.5995 452.3Z" fill="#305eb2"/><path d="M76.7988 425.1H83.1988V452.3H76.7988V425.1Z" fill="#305eb2"/><path d="M88.7988 425.1H95.6988V452.3H88.7988V425.1Z" fill="#305eb2"/><path d="M101.299 425.1H108.199V452.3H101.299V425.1Z" fill="#305eb2"/><path d="M131.8 581.7C123.3 573.2 111.9 568 99.0004 568 86.1004 568 74.5004 573.2 66.2004 581.7 65.7004 582.2 65.4004 582.7 65.4004 583.5 65.4004 584.3 65.7004 584.8 66.2004 585.3L69.8004 588.9C70.8004 589.9 72.4004 589.9 73.4004 588.9 79.9004 582.4 88.9004 578.3 98.9004 578.3 108.9 578.3 118 582.4 124.4 588.9 125.4 589.9 127 589.9 128 588.9L131.6 585.3C132.1 584.8 132.4 584.3 132.4 583.5 132.4 582.7 132.3 582.2 131.8 581.7Z" fill="#305eb2"/><path d="M99.1 588.7C91.9 588.7 85.7 591.5 81 596.2 80 597.2 80 598.8 81 599.8L84.6 603.4C85.6 604.4 87.2 604.4 88.2 603.4 91 600.6 94.9 599 99 599 103.1 599 107 600.8 109.8 603.4 110.8 604.4 112.4 604.4 113.4 603.4L117 599.8C118 598.8 118 597.2 117 596.2 112.5 591.5 106.3 588.7 99.1 588.7Z" fill="#305eb2"/><path d="M99.1004 619.7C101.972 619.7 104.3 617.372 104.3 614.5 104.3 611.628 101.972 609.3 99.1004 609.3 96.2285 609.3 93.9004 611.628 93.9004 614.5 93.9004 617.372 96.2285 619.7 99.1004 619.7Z" fill="#305eb2"/><path d="M695.9 582.8C697.3 582.4 698.9 582.1 700.5 582.1 704.2 582.1 707.7 583.4 710.4 585.5L710.9 585C711.4 584.5 711.7 584 711.7 583.2 711.7 582.4 711.4 581.8 710.9 581.4 702.4 572.9 691 567.7 678.1 567.7 665.2 567.7 653.6 572.9 645.3 581.4 644.8 581.9 644.5 582.4 644.5 583.2 644.5 584 644.8 584.5 645.3 585L648.9 588.6C649.9 589.6 651.5 589.6 652.5 588.6 659 582.1 668 578 678 578 684.6 578.1 690.7 579.8 695.9 582.8Z" fill="#305eb2"/><path d="M678.1 588.4C670.9 588.4 664.7 591.2 660 595.9 659 596.9 659 598.5 660 599.5L663.6 603.1C664.6 604.1 666.2 604.1 667.2 603.1 670 600.3 673.9 598.7 678 598.7 680.2 598.7 682.3 599.2 684.2 600.1 684.1 599.5 684.1 599 684.1 598.4 684.1 595.3 685 592.4 686.5 589.9 684 588.9 681.1 588.4 678.1 588.4Z" fill="#305eb2"/><path d="M678.1 619.4C680.972 619.4 683.3 617.072 683.3 614.2 683.3 611.328 680.972 609 678.1 609 675.228 609 672.9 611.328 672.9 614.2 672.9 617.072 675.228 619.4 678.1 619.4Z" fill="#305eb2"/><path d="M707 588.8C705.5 587.7 703.6 587 701.7 586.8 701.3 586.8 700.9 586.7 700.5 586.7 696.5 586.7 693 588.7 690.9 591.7 689.6 593.6 688.9 595.8 688.9 598.2 688.9 600.2 689.4 602 690.3 603.6 692.2 607.3 696.1 609.8 700.5 609.8 706.9 609.8 712.1 604.6 712.1 598.2 712.1 594.4 710.1 590.9 707 588.8ZM704.3 599.8C705 600.5 705 601.5 704.3 602.2 703.6 602.9 702.6 602.9 701.9 602.2L700.5 600.8 699.1 602.2C698.4 602.9 697.4 602.9 696.7 602.2 696 601.5 696 600.5 696.7 599.8L698.1 598.4 696.9 597.2 696.7 597C696.4 596.7 696.3 596.3 696.2 596 696.2 595.5 696.3 595 696.7 594.6 697.4 593.9 698.4 593.9 699.1 594.6L700.5 596 701.9 594.6C702.6 593.9 703.6 593.9 704.3 594.6 705 595.3 705 596.3 704.3 597L702.9 598.4 704.3 599.8Z" fill="#305eb2"/><path d="M98.6 294.7C95.7 294.7 93 294.2 90.4 293.2 91.4 292.3 92.5 290.3 92.7 289.6 93 288.8 92.1 286.8 92.1 286.4 92.1 286 89.7 283.2 89.1 282.8 88.5 282.4 89.1 280.2 89.1 278.7 89.1 277.3 85.9 276.5 84.7 275.7 83.5 274.9 83.1 277.9 81.7 277.3 80.3 276.7 80.5 274.7 80.3 273.1 80.2 271.9 77 271.6 75.3 271.5 75.3 261.3 81.9 252.5 91.1 249.4 91 249.5 90.9 249.6 90.9 249.7 90.1 250.8 88.7 249.7 89.1 253.2 89.5 256.7 89 258.3 91.5 258.8 94 259.3 94.9 258.7 96.6 258.8 98.3 258.9 98.2 263.2 98.6 263.3 98.6 263.3 100.9 269.5 107.5 271.3 108.8 271.6 106.5 274.1 104.5 275.2L112.8 278C114.5 277.6 116 277.3 115.7 276.2 114.5 271.5 122.3 269.4 120.1 266.3 119.6 265.6 119.7 263.4 119.5 261 121.1 264.2 122.1 267.8 122.1 271.6 122.1 274.7 121.5 277.7 120.3 280.5L124.9 282C126.2 278.8 126.9 275.3 126.9 271.6 126.9 256 114.2 243.4 98.7 243.4 83.2 243.4 70.5 256.1 70.5 271.6 70.5 287.2 83.2 299.8 98.7 299.8 100.2 299.8 101.7 299.6 103.1 299.4L101.5 294.7C100.5 294.7 99.6 294.7 98.6 294.7Z" fill="#305eb2"/><path d="M129.201 299.2 121.201 291.2 125.101 287.3C125.401 287 125.601 286.5 125.501 286 125.401 285.5 125.101 285.2 124.601 285L123.501 284.6 118.801 283 108.601 279.6 101.301 277.2C100.901 277.1 100.401 277.1 100.101 277.4 100.001 277.4 100.001 277.5 99.9009 277.6 99.5009 278 99.4009 278.5 99.5009 279L104.501 293.9 106.001 298.5 107.201 302.2C107.401 302.7 107.701 303 108.201 303.1 108.701 303.2 109.201 303.1 109.501 302.7L113.401 298.8 121.401 306.8C121.701 307.1 122.001 307.2 122.401 307.2 122.701 307.2 123.101 307.1 123.401 306.8L129.201 301C129.801 300.6 129.801 299.7 129.201 299.2Z" fill="#305eb2"/><path d="M702.9 421.5C702.3 421.4 701.7 421.3 701.1 421.3H690C684.9 421.3 680.8 425.4 680.8 430.5V443.4H656.8C653.7 443.4 651.3 440.9 651.3 437.9V415.8C651.3 412.7 653.8 410.3 656.8 410.3H697.4C700.5 410.3 702.9 412.8 702.9 415.8V421.5ZM680.8 447.1V454.5H651.3C649.3 454.5 647.6 452.8 647.6 450.8 647.6 448.8 649.3 447.1 651.3 447.1H680.8ZM690 425H701.1C704.2 425 706.6 427.5 706.6 430.5V456.3C706.6 459.4 704.1 461.8 701.1 461.8H690C686.9 461.8 684.5 459.3 684.5 456.3V430.5C684.5 427.5 686.9 425 690 425ZM693.7 454.5C692.7 454.5 691.9 455.3 691.9 456.3 691.9 457.3 692.7 458.1 693.7 458.1H697.4C698.4 458.1 699.2 457.3 699.2 456.3 699.2 455.3 698.4 454.5 697.4 454.5H693.7Z" fill="#305eb2"/><path d="M662.699 777.7H650.099C649.099 777.7 648.199 776.9 648.199 775.8V763.2C648.199 762.2 648.999 761.3 650.099 761.3H662.699C663.699 761.3 664.599 762.1 664.599 763.2V775.8C664.599 776.8 663.799 777.7 662.699 777.7Z" fill="#305eb2"/><path d="M684.799 777.7H672.199C671.199 777.7 670.299 776.9 670.299 775.8V763.2C670.299 762.2 671.099 761.3 672.199 761.3H684.799C685.799 761.3 686.699 762.1 686.699 763.2V775.8C686.599 776.8 685.799 777.7 684.799 777.7Z" fill="#305eb2"/><path d="M684.898 736.1H672.298C671.298 736.1 670.398 735.3 670.398 734.2V721.6C670.398 720.6 671.198 719.7 672.298 719.7H684.898C685.898 719.7 686.798 720.5 686.798 721.6V734.2C686.698 735.3 685.898 736.1 684.898 736.1Z" fill="#305eb2"/><path d="M706.898 777.7H694.298C693.298 777.7 692.398 776.9 692.398 775.8V763.2C692.398 762.2 693.198 761.3 694.298 761.3H706.898C707.898 761.3 708.798 762.1 708.798 763.2V775.8C708.798 776.8 707.898 777.7 706.898 777.7Z" fill="#305eb2"/><path d="M679.999 727.601H676.799V769.401H679.999V727.601Z" fill="#305eb2"/><path d="M679.9 763.9H676.9V750.4H657.1V763.4H654.1V747.4H679.9V763.9Z" fill="#305eb2"/><path d="M702.698 763.9H699.698V750.4H679.898V763.4H676.898V747.4H702.698V763.9Z" fill="#305eb2"/><path d="M646.6 291C646.6 293.3 648.4 295.1 650.7 295.1H675.4L670 278.8C669.5 277.2 669.9 275.4 671.1 274.2 672.3 273 674.1 272.6 675.7 273.1L699 280.9C700.5 281.4 701.6 282.6 701.9 284.1 702.3 285.6 701.8 287.2 700.7 288.3L699 290 704.1 295.1H707.8C710.1 295.1 711.9 293.3 711.9 291V259.2H646.6V291 291Z" fill="#305eb2"/><path d="M711.8 253.8C711.8 251.5 710 249.7 707.7 249.7H650.7C648.4 249.7 646.6 251.5 646.6 253.8V255.3H711.9V253.8H711.8Z" fill="#305eb2"/><path d="M702.599 298 699.699 295.1 694.599 290 698.499 286.1C698.799 285.8 698.999 285.3 698.899 284.8 698.799 284.3 698.499 284 697.999 283.8L674.699 276C674.199 275.8 673.699 276 673.299 276.4 672.899 276.8 672.799 277.3 672.899 277.8L678.699 295 680.699 301C680.899 301.5 681.199 301.8 681.699 301.9 682.199 302 682.699 301.9 682.999 301.5L686.899 297.6 694.899 305.6C695.199 305.9 695.499 306 695.899 306 696.199 306 696.599 305.9 696.899 305.6L702.699 299.8C703.099 299.4 703.099 298.6 702.599 298Z" fill="#305eb2"/></g></svg>