<svg viewBox="0 0 900 700" xmlns="http://www.w3.org/2000/svg">
  <!-- Background -->
  <rect width="900" height="700" fill="#f8f9fa"/>
  
  <!-- Title -->
  <text x="450" y="30" text-anchor="middle" fill="#2c3e50" font-size="20" font-weight="bold">
    Addressing Schemes 구조 및 아키텍처
  </text>
  
  <!-- Layer 4 - Transport Layer -->
  <g transform="translate(50, 60)">
    <rect x="0" y="0" width="800" height="120" fill="#fff3e0" stroke="#f57c00" stroke-width="2" rx="10"/>
    <text x="20" y="25" fill="#f57c00" font-size="16" font-weight="bold">Layer 4 - Transport Layer (포트 주소)</text>
    
    <!-- Port Structure -->
    <g transform="translate(50, 40)">
      <rect x="0" y="0" width="200" height="60" fill="#ffffff" stroke="#f57c00" stroke-width="1" rx="5"/>
      <text x="100" y="20" text-anchor="middle" fill="#f57c00" font-size="12" font-weight="bold">Port Number (16-bit)</text>
      <text x="100" y="35" text-anchor="middle" fill="#f57c00" font-size="11">0 - 65535</text>
      <text x="100" y="50" text-anchor="middle" fill="#f57c00" font-size="10">Process Identification</text>
    </g>
    
    <!-- Well-known Ports -->
    <g transform="translate(300, 40)">
      <rect x="0" y="0" width="150" height="60" fill="#ffffff" stroke="#f57c00" stroke-width="1" rx="5"/>
      <text x="75" y="15" text-anchor="middle" fill="#f57c00" font-size="11" font-weight="bold">Well-known Ports</text>
      <text x="75" y="28" text-anchor="middle" fill="#f57c00" font-size="9">HTTP: 80</text>
      <text x="75" y="40" text-anchor="middle" fill="#f57c00" font-size="9">HTTPS: 443</text>
      <text x="75" y="52" text-anchor="middle" fill="#f57c00" font-size="9">SSH: 22</text>
    </g>
    
    <!-- TCP/UDP -->
    <g transform="translate(500, 40)">
      <rect x="0" y="0" width="120" height="60" fill="#ffffff" stroke="#f57c00" stroke-width="1" rx="5"/>
      <text x="60" y="20" text-anchor="middle" fill="#f57c00" font-size="11" font-weight="bold">Protocol Types</text>
      <text x="60" y="35" text-anchor="middle" fill="#f57c00" font-size="10">TCP (연결지향)</text>
      <text x="60" y="50" text-anchor="middle" fill="#f57c00" font-size="10">UDP (비연결)</text>
    </g>
    
    <!-- Multiplexing -->
    <g transform="translate(650, 40)">
      <rect x="0" y="0" width="120" height="60" fill="#ffffff" stroke="#f57c00" stroke-width="1" rx="5"/>
      <text x="60" y="20" text-anchor="middle" fill="#f57c00" font-size="11" font-weight="bold">Multiplexing</text>
      <text x="60" y="35" text-anchor="middle" fill="#f57c00" font-size="10">다중 프로세스</text>
      <text x="60" y="50" text-anchor="middle" fill="#f57c00" font-size="10">동시 통신</text>
    </g>
  </g>
  
  <!-- Layer 3 - Network Layer -->
  <g transform="translate(50, 200)">
    <rect x="0" y="0" width="800" height="150" fill="#e8f5e8" stroke="#388e3c" stroke-width="2" rx="10"/>
    <text x="20" y="25" fill="#388e3c" font-size="16" font-weight="bold">Layer 3 - Network Layer (IP 주소)</text>
    
    <!-- IPv4 Structure -->
    <g transform="translate(50, 40)">
      <rect x="0" y="0" width="250" height="90" fill="#ffffff" stroke="#388e3c" stroke-width="1" rx="5"/>
      <text x="125" y="20" text-anchor="middle" fill="#388e3c" font-size="12" font-weight="bold">IPv4 (32-bit)</text>
      
      <!-- IPv4 Address Fields -->
      <rect x="10" y="30" width="50" height="20" fill="#c8e6c9" stroke="#388e3c"/>
      <text x="35" y="42" text-anchor="middle" fill="#388e3c" font-size="8">Network</text>
      <rect x="65" y="30" width="50" height="20" fill="#a5d6a7" stroke="#388e3c"/>
      <text x="90" y="42" text-anchor="middle" fill="#388e3c" font-size="8">Subnet</text>
      <rect x="120" y="30" width="50" height="20" fill="#81c784" stroke="#388e3c"/>
      <text x="145" y="42" text-anchor="middle" fill="#388e3c" font-size="8">Host</text>
      <rect x="175" y="30" width="50" height="20" fill="#66bb6a" stroke="#388e3c"/>
      <text x="200" y="42" text-anchor="middle" fill="#388e3c" font-size="8">Broadcast</text>
      
      <text x="125" y="65" text-anchor="middle" fill="#388e3c" font-size="10">예: 192.168.1.10/24</text>
      <text x="125" y="80" text-anchor="middle" fill="#388e3c" font-size="9">4.3억개 주소 공간</text>
    </g>
    
    <!-- IPv6 Structure -->
    <g transform="translate(350, 40)">
      <rect x="0" y="0" width="250" height="90" fill="#ffffff" stroke="#388e3c" stroke-width="1" rx="5"/>
      <text x="125" y="20" text-anchor="middle" fill="#388e3c" font-size="12" font-weight="bold">IPv6 (128-bit)</text>
      
      <!-- IPv6 Address Fields -->
      <rect x="10" y="30" width="110" height="20" fill="#c8e6c9" stroke="#388e3c"/>
      <text x="65" y="42" text-anchor="middle" fill="#388e3c" font-size="8">Prefix (64-bit)</text>
      <rect x="130" y="30" width="110" height="20" fill="#81c784" stroke="#388e3c"/>
      <text x="185" y="42" text-anchor="middle" fill="#388e3c" font-size="8">Interface ID (64-bit)</text>
      
      <text x="125" y="65" text-anchor="middle" fill="#388e3c" font-size="10">예: 2001:db8::1/64</text>
      <text x="125" y="80" text-anchor="middle" fill="#388e3c" font-size="9">340언데실리언 주소</text>
    </g>
    
    <!-- Routing Information -->
    <g transform="translate(650, 40)">
      <rect x="0" y="0" width="120" height="90" fill="#ffffff" stroke="#388e3c" stroke-width="1" rx="5"/>
      <text x="60" y="20" text-anchor="middle" fill="#388e3c" font-size="11" font-weight="bold">Routing</text>
      <text x="60" y="35" text-anchor="middle" fill="#388e3c" font-size="9">Longest Prefix</text>
      <text x="60" y="47" text-anchor="middle" fill="#388e3c" font-size="9">Match</text>
      <text x="60" y="62" text-anchor="middle" fill="#388e3c" font-size="9">CIDR</text>
      <text x="60" y="75" text-anchor="middle" fill="#388e3c" font-size="9">BGP</text>
    </g>
  </g>
  
  <!-- Layer 2 - Data Link Layer -->
  <g transform="translate(50, 370)">
    <rect x="0" y="0" width="800" height="120" fill="#fce4ec" stroke="#c2185b" stroke-width="2" rx="10"/>
    <text x="20" y="25" fill="#c2185b" font-size="16" font-weight="bold">Layer 2 - Data Link Layer (MAC 주소)</text>
    
    <!-- MAC Structure -->
    <g transform="translate(50, 40)">
      <rect x="0" y="0" width="300" height="60" fill="#ffffff" stroke="#c2185b" stroke-width="1" rx="5"/>
      <text x="150" y="20" text-anchor="middle" fill="#c2185b" font-size="12" font-weight="bold">MAC Address (48-bit)</text>
      
      <!-- OUI and NIC -->
      <rect x="20" y="30" width="120" height="20" fill="#f8bbd9" stroke="#c2185b"/>
      <text x="80" y="42" text-anchor="middle" fill="#c2185b" font-size="9">OUI (24-bit)</text>
      <rect x="160" y="30" width="120" height="20" fill="#f48fb1" stroke="#c2185b"/>
      <text x="220" y="42" text-anchor="middle" fill="#c2185b" font-size="9">NIC Specific (24-bit)</text>
    </g>
    
    <!-- MAC Types -->
    <g transform="translate(400, 40)">
      <rect x="0" y="0" width="150" height="60" fill="#ffffff" stroke="#c2185b" stroke-width="1" rx="5"/>
      <text x="75" y="15" text-anchor="middle" fill="#c2185b" font-size="11" font-weight="bold">MAC Types</text>
      <text x="75" y="28" text-anchor="middle" fill="#c2185b" font-size="9">Unicast</text>
      <text x="75" y="40" text-anchor="middle" fill="#c2185b" font-size="9">Multicast</text>
      <text x="75" y="52" text-anchor="middle" fill="#c2185b" font-size="9">Broadcast</text>
    </g>
    
    <!-- Switching -->
    <g transform="translate(600, 40)">
      <rect x="0" y="0" width="150" height="60" fill="#ffffff" stroke="#c2185b" stroke-width="1" rx="5"/>
      <text x="75" y="15" text-anchor="middle" fill="#c2185b" font-size="11" font-weight="bold">Switching</text>
      <text x="75" y="28" text-anchor="middle" fill="#c2185b" font-size="9">Learning</text>
      <text x="75" y="40" text-anchor="middle" fill="#c2185b" font-size="9">Flooding</text>
      <text x="75" y="52" text-anchor="middle" fill="#c2185b" font-size="9">Forwarding</text>
    </g>
  </g>
  
  <!-- Layer 1 - Physical Layer -->
  <g transform="translate(50, 510)">
    <rect x="0" y="0" width="800" height="80" fill="#f3e5f5" stroke="#7b1fa2" stroke-width="2" rx="10"/>
    <text x="20" y="25" fill="#7b1fa2" font-size="16" font-weight="bold">Layer 1 - Physical Layer (물리적 신호)</text>
    
    <!-- Physical Components -->
    <g transform="translate(50, 35)">
      <rect x="0" y="0" width="150" height="35" fill="#ffffff" stroke="#7b1fa2" stroke-width="1" rx="5"/>
      <text x="75" y="15" text-anchor="middle" fill="#7b1fa2" font-size="11" font-weight="bold">전기 신호</text>
      <text x="75" y="28" text-anchor="middle" fill="#7b1fa2" font-size="9">Bits → Signals</text>
    </g>
    
    <g transform="translate(220, 35)">
      <rect x="0" y="0" width="150" height="35" fill="#ffffff" stroke="#7b1fa2" stroke-width="1" rx="5"/>
      <text x="75" y="15" text-anchor="middle" fill="#7b1fa2" font-size="11" font-weight="bold">광신호</text>
      <text x="75" y="28" text-anchor="middle" fill="#7b1fa2" font-size="9">Fiber Optic</text>
    </g>
    
    <g transform="translate(390, 35)">
      <rect x="0" y="0" width="150" height="35" fill="#ffffff" stroke="#7b1fa2" stroke-width="1" rx="5"/>
      <text x="75" y="15" text-anchor="middle" fill="#7b1fa2" font-size="11" font-weight="bold">무선 신호</text>
      <text x="75" y="28" text-anchor="middle" fill="#7b1fa2" font-size="9">Radio Waves</text>
    </g>
    
    <g transform="translate(560, 35)">
      <rect x="0" y="0" width="150" height="35" fill="#ffffff" stroke="#7b1fa2" stroke-width="1" rx="5"/>
      <text x="75" y="15" text-anchor="middle" fill="#7b1fa2" font-size="11" font-weight="bold">매체</text>
      <text x="75" y="28" text-anchor="middle" fill="#7b1fa2" font-size="9">Cable/Wireless</text>
    </g>
  </g>
  
  <!-- Address Resolution Components -->
  <g transform="translate(50, 610)">
    <rect x="0" y="0" width="800" height="70" fill="#fffde7" stroke="#fbc02d" stroke-width="2" rx="10"/>
    <text x="20" y="25" fill="#fbc02d" font-size="16" font-weight="bold">주소 해석 구성 요소</text>
    
    <g transform="translate(50, 35)">
      <rect x="0" y="0" width="120" height="25" fill="#ffffff" stroke="#fbc02d" stroke-width="1" rx="3"/>
      <text x="60" y="17" text-anchor="middle" fill="#fbc02d" font-size="10">DNS</text>
    </g>
    
    <g transform="translate(190, 35)">
      <rect x="0" y="0" width="120" height="25" fill="#ffffff" stroke="#fbc02d" stroke-width="1" rx="3"/>
      <text x="60" y="17" text-anchor="middle" fill="#fbc02d" font-size="10">ARP</text>
    </g>
    
    <g transform="translate(330, 35)">
      <rect x="0" y="0" width="120" height="25" fill="#ffffff" stroke="#fbc02d" stroke-width="1" rx="3"/>
      <text x="60" y="17" text-anchor="middle" fill="#fbc02d" font-size="10">NDP</text>
    </g>
    
    <g transform="translate(470, 35)">
      <rect x="0" y="0" width="120" height="25" fill="#ffffff" stroke="#fbc02d" stroke-width="1" rx="3"/>
      <text x="60" y="17" text-anchor="middle" fill="#fbc02d" font-size="10">DHCP</text>
    </g>
    
    <g transform="translate(610, 35)">
      <rect x="0" y="0" width="120" height="25" fill="#ffffff" stroke="#fbc02d" stroke-width="1" rx="3"/>
      <text x="60" y="17" text-anchor="middle" fill="#fbc02d" font-size="10">NAT</text>
    </g>
  </g>
  
  <!-- Vertical arrows showing layer interaction -->
  <path d="M 450 180 L 450 200" stroke="#666" stroke-width="2" fill="none" marker-end="url(#arrow)"/>
  <path d="M 450 350 L 450 370" stroke="#666" stroke-width="2" fill="none" marker-end="url(#arrow)"/>
  <path d="M 450 490 L 450 510" stroke="#666" stroke-width="2" fill="none" marker-end="url(#arrow)"/>
  <path d="M 450 590 L 450 610" stroke="#666" stroke-width="2" fill="none" marker-end="url(#arrow)"/>
  
  <!-- Arrow marker -->
  <defs>
    <marker id="arrow" markerWidth="10" markerHeight="10" refX="9" refY="3" orient="auto" markerUnits="strokeWidth">
      <path d="M0,0 L0,6 L9,3 z" fill="#666"/>
    </marker>
  </defs>
</svg>