<svg viewBox="0 0 900 650" xmlns="http://www.w3.org/2000/svg">
  <!-- 배경 -->
  <rect width="900" height="650" fill="#f8f9fa"/>
  
  <!-- 제목 -->
  <text x="450" y="35" text-anchor="middle" font-size="22" font-weight="bold">Docker 아키텍처</text>
  
  <!-- Docker Client 영역 -->
  <rect x="40" y="70" width="320" height="500" fill="#e8f5e9" stroke="#4caf50" stroke-width="3"/>
  <text x="200" y="95" text-anchor="middle" font-size="18" font-weight="bold">Docker Client</text>
  
  <!-- Docker CLI -->
  <rect x="60" y="120" width="280" height="80" fill="#66bb6a" stroke="#4caf50" stroke-width="2"/>
  <text x="200" y="145" text-anchor="middle" fill="white" font-size="16" font-weight="bold">Docker CLI</text>
  <text x="200" y="170" text-anchor="middle" fill="white" font-size="13">$ docker command</text>
  <text x="200" y="190" text-anchor="middle" fill="white" font-size="13">Command Line Interface</text>
  
  <!-- CLI 명령어 예시 -->
  <rect x="70" y="220" width="260" height="90" fill="#e8f5e9" stroke="#4caf50" stroke-width="1"/>
  <text x="80" y="240" font-family="monospace" font-size="12" fill="#333">$ docker build -t myapp .</text>
  <text x="80" y="260" font-family="monospace" font-size="12" fill="#333">$ docker run -p 8080:80 myapp</text>
  <text x="80" y="280" font-family="monospace" font-size="12" fill="#333">$ docker push repo/myapp:v1</text>
  <text x="80" y="300" font-family="monospace" font-size="12" fill="#333">$ docker pull ubuntu:22.04</text>
  
  <!-- Docker Desktop -->
  <rect x="60" y="330" width="130" height="70" fill="#66bb6a" stroke="#4caf50" stroke-width="2"/>
  <text x="125" y="350" text-anchor="middle" fill="white" font-size="14" font-weight="bold">Docker</text>
  <text x="125" y="370" text-anchor="middle" fill="white" font-size="14" font-weight="bold">Desktop</text>
  <text x="125" y="390" text-anchor="middle" fill="white" font-size="11">(Developer Tool)</text>
  
  <!-- Docker Compose -->
  <rect x="210" y="330" width="130" height="70" fill="#66bb6a" stroke="#4caf50" stroke-width="2"/>
  <text x="275" y="350" text-anchor="middle" fill="white" font-size="14" font-weight="bold">Docker</text>
  <text x="275" y="370" text-anchor="middle" fill="white" font-size="14" font-weight="bold">Compose</text>
  <text x="275" y="390" text-anchor="middle" fill="white" font-size="11">(Multi-container)</text>
  
  <!-- REST API 통신 화살표 -->
  <line x1="360" y1="160" x2="530" y2="160" stroke="#333" stroke-width="4" marker-end="url(#arrowhead)"/>
  <line x1="530" y1="180" x2="360" y2="180" stroke="#333" stroke-width="4" marker-end="url(#arrowhead)"/>
  <text x="445" y="140" text-anchor="middle" font-size="14" font-weight="bold">REST API</text>
  <text x="445" y="205" text-anchor="middle" font-size="12">JSON/HTTP</text>
  
  <!-- Docker Host (Daemon) 영역 -->
  <rect x="540" y="70" width="320" height="500" fill="#e3f2fd" stroke="#2196f3" stroke-width="3"/>
  <text x="700" y="95" text-anchor="middle" font-size="18" font-weight="bold">Docker Host</text>
  
  <!-- Docker Daemon -->
  <rect x="560" y="120" width="280" height="80" fill="#1976d2" stroke="#1565c0" stroke-width="2"/>
  <text x="700" y="145" text-anchor="middle" fill="white" font-size="16" font-weight="bold">Docker Daemon</text>
  <text x="700" y="170" text-anchor="middle" fill="white" font-size="13">(dockerd)</text>
  <text x="700" y="190" text-anchor="middle" fill="white" font-size="13">Container Management</text>
  
  <!-- Images -->
  <rect x="560" y="220" width="130" height="140" fill="#90caf9" stroke="#1976d2" stroke-width="2"/>
  <text x="625" y="240" text-anchor="middle" font-weight="bold" font-size="15">Images</text>
  
  <!-- 이미지 레이어들 -->
  <rect x="570" y="260" width="110" height="25" fill="#1e88e5" stroke="#1976d2" stroke-width="1"/>
  <text x="625" y="275" text-anchor="middle" font-size="11" fill="white">Layer 3: App Code</text>
  
  <rect x="570" y="285" width="110" height="25" fill="#1976d2" stroke="#1565c0" stroke-width="1"/>
  <text x="625" y="300" text-anchor="middle" font-size="11" fill="white">Layer 2: Libraries</text>
  
  <rect x="570" y="310" width="110" height="25" fill="#0d47a1" stroke="#0a3a87" stroke-width="1"/>
  <text x="625" y="325" text-anchor="middle" font-size="11" fill="white">Layer 1: Base OS</text>
  
  <!-- Image 목록 -->
  <text x="625" y="350" text-anchor="middle" font-size="12">nginx:latest</text>
  
  <!-- Containers -->
  <rect x="710" y="220" width="130" height="350" fill="#90caf9" stroke="#1976d2" stroke-width="2"/>
  <text x="775" y="240" text-anchor="middle" font-weight="bold" font-size="15">Containers</text>
  
  <!-- 컨테이너 인스턴스들 -->
  <rect x="720" y="260" width="110" height="80" fill="#64b5f6" stroke="#1976d2" stroke-width="1"/>
  <text x="775" y="280" text-anchor="middle" font-size="12" font-weight="bold">Web Container</text>
  <text x="775" y="300" text-anchor="middle" font-size="10">ID: abc123</text>
  <text x="775" y="315" text-anchor="middle" font-size="10">Status: Running</text>
  <text x="775" y="330" text-anchor="middle" font-size="10">Port: 80→8080</text>
  
  <rect x="720" y="350" width="110" height="80" fill="#64b5f6" stroke="#1976d2" stroke-width="1"/>
  <text x="775" y="370" text-anchor="middle" font-size="12" font-weight="bold">API Container</text>
  <text x="775" y="390" text-anchor="middle" font-size="10">ID: def456</text>
  <text x="775" y="405" text-anchor="middle" font-size="10">Status: Running</text>
  <text x="775" y="420" text-anchor="middle" font-size="10">Port: 3000→3000</text>
  
  <rect x="720" y="440" width="110" height="80" fill="#64b5f6" stroke="#1976d2" stroke-width="1"/>
  <text x="775" y="460" text-anchor="middle" font-size="12" font-weight="bold">DB Container</text>
  <text x="775" y="480" text-anchor="middle" font-size="10">ID: ghi789</text>
  <text x="775" y="495" text-anchor="middle" font-size="10">Status: Running</text>
  <text x="775" y="510" text-anchor="middle" font-size="10">Volume: /data</text>
  
  <!-- Image에서 Container로의 화살표 -->
  <line x1="690" y1="290" x2="720" y2="290" stroke="#333" stroke-width="2" marker-end="url(#arrowhead)"/>
  <text x="705" y="285" text-anchor="middle" font-size="10">run</text>
  
  <!-- Volumes -->
  <rect x="560" y="380" width="130" height="80" fill="#64b5f6" stroke="#1976d2" stroke-width="2"/>
  <text x="625" y="400" text-anchor="middle" font-weight="bold" font-size="15">Volumes</text>
  <text x="625" y="425" text-anchor="middle" font-size="12">Persistent Storage</text>
  <text x="625" y="445" text-anchor="middle" font-size="11">/var/lib/docker/volumes</text>
  
  <!-- Networks -->
  <rect x="560" y="480" width="130" height="80" fill="#42a5f5" stroke="#1976d2" stroke-width="2"/>
  <text x="625" y="500" text-anchor="middle" font-weight="bold" font-size="15">Networks</text>
  <text x="625" y="520" text-anchor="middle" font-size="12">bridge</text>
  <text x="625" y="535" text-anchor="middle" font-size="12">overlay</text>
  <text x="625" y="550" text-anchor="middle" font-size="12">host</text>
  
  <!-- Docker Registry -->
  <rect x="340" y="450" width="220" height="110" fill="#fff3e0" stroke="#ff9800" stroke-width="3"/>
  <text x="450" y="470" text-anchor="middle" font-size="16" font-weight="bold">Docker Registry</text>
  
  <!-- Docker Hub -->
  <rect x="350" y="490" width="90" height="60" fill="#ffe0b2" stroke="#ff9800" stroke-width="2"/>
  <text x="395" y="510" text-anchor="middle" font-size="13" font-weight="bold">Docker Hub</text>
  <text x="395" y="525" text-anchor="middle" font-size="11">(Public)</text>
  <text x="395" y="540" text-anchor="middle" font-size="11">docker.io</text>
  
  <!-- Private Registry -->
  <rect x="460" y="490" width="90" height="60" fill="#ffcc80" stroke="#ff9800" stroke-width="2"/>
  <text x="505" y="510" text-anchor="middle" font-size="13" font-weight="bold">Private</text>
  <text x="505" y="525" text-anchor="middle" font-size="13" font-weight="bold">Registry</text>
  <text x="505" y="540" text-anchor="middle" font-size="11">registry.company.com</text>
  
  <!-- Registry 연결선 -->
  <line x1="440" y1="450" x2="625" y2="360" stroke="#ff9800" stroke-width="2" stroke-dasharray="4 4" marker-end="url(#arrowhead)"/>
  <text x="530" y="405" text-anchor="middle" font-size="11" fill="#ff9800">pull/push</text>
  
  <!-- Host OS 기반 -->
  <rect x="40" y="600" width="820" height="30" fill="#37474f" stroke="#263238" stroke-width="2"/>
  <text x="450" y="620" text-anchor="middle" fill="white" font-size="16" font-weight="bold">Host Operating System (Linux/Windows/macOS)</text>
  
  <!-- Container Runtime 표시 -->
  <rect x="560" y="570" width="280" height="20" fill="#64b5f6" stroke="#1976d2" stroke-width="1"/>
  <text x="700" y="584" text-anchor="middle" font-size="11">Container Runtime (containerd/runc)</text>
  
  <!-- 주요 구성 요소 설명 -->
  <rect x="60" y="430" width="280" height="130" fill="#f0f4c3" stroke="#afb42b" stroke-width="2"/>
  <text x="200" y="450" text-anchor="middle" font-size="15" font-weight="bold">주요 구성 요소</text>
  <text x="75" y="475" font-size="12">• Client: CLI, Desktop, Compose</text>
  <text x="75" y="495" font-size="12">• Daemon: 이미지/컨테이너 관리</text>
  <text x="75" y="515" font-size="12">• Registry: 이미지 저장/공유</text>
  <text x="75" y="535" font-size="12">• Images: 읽기 전용 템플릿</text>
  <text x="75" y="555" font-size="12">• Containers: 실행 중인 인스턴스</text>
  
  <!-- Volume 연결선 -->
  <line x1="690" y1="420" x2="720" y2="500" stroke="#1976d2" stroke-width="2"/>
  
  <!-- Network 연결선 -->
  <line x1="690" y1="520" x2="710" y2="520" stroke="#1976d2" stroke-width="2"/>
  
  <!-- Arrow marker definition -->
  <defs>
    <marker id="arrowhead" markerWidth="10" markerHeight="7" 
    refX="0" refY="3.5" orient="auto">
      <polygon points="0 0, 10 3.5, 0 7" fill="#333"/>
    </marker>
  </defs>
  
  <!-- 흐름 번호 -->
  <circle cx="100" cy="160" r="18" fill="#ff5722" stroke="#fff" stroke-width="2"/>
  <text x="100" y="166" text-anchor="middle" fill="white" font-size="14" font-weight="bold">1</text>
  
  <circle cx="445" cy="125" r="18" fill="#ff5722" stroke="#fff" stroke-width="2"/>
  <text x="445" y="131" text-anchor="middle" fill="white" font-size="14" font-weight="bold">2</text>
  
  <circle cx="700" cy="200" r="18" fill="#ff5722" stroke="#fff" stroke-width="2"/>
  <text x="700" y="206" text-anchor="middle" fill="white" font-size="14" font-weight="bold">3</text>
  
  <circle cx="450" cy="425" r="18" fill="#ff5722" stroke="#fff" stroke-width="2"/>
  <text x="450" y="431" text-anchor="middle" fill="white" font-size="14" font-weight="bold">4</text>
  
  <!-- 아키텍처 플로우 -->
  <rect x="40" y="10" width="820" height="25" fill="#d9e6f2" stroke="#bbb" stroke-width="1"/>
  <text x="450" y="27" text-anchor="middle" font-size="13" font-weight="bold">
    1. CLI 명령 실행 → 2. REST API 통신 → 3. Daemon 처리 → 4. Registry 연동
  </text>
</svg>