<svg viewBox="0 0 800 600" xmlns="http://www.w3.org/2000/svg">
  <!-- 배경 -->
  <rect width="800" height="600" fill="#f8f9fa"/>
  
  <!-- 제목 -->
  <text x="400" y="30" text-anchor="middle" font-size="20" font-weight="bold">전자상거래 플랫폼 컨테이너 아키텍처</text>
  
  <!-- 클라이언트 레이어 -->
  <rect x="340" y="50" width="120" height="40" fill="#6c757d" stroke="#495057" stroke-width="2"/>
  <text x="400" y="72" text-anchor="middle" fill="white" font-size="12" font-weight="bold">클라이언트</text>
  
  <!-- 로드 밸런서 -->
  <rect x="340" y="110" width="120" height="40" fill="#17a2b8" stroke="#138496" stroke-width="2"/>
  <text x="400" y="132" text-anchor="middle" fill="white" font-size="12" font-weight="bold">로드 밸런서</text>
  
  <!-- API Gateway 컨테이너 -->
  <rect x="320" y="170" width="160" height="60" fill="#28a745" stroke="#218838" stroke-width="2"/>
  <text x="400" y="190" text-anchor="middle" fill="white" font-size="14" font-weight="bold">API Gateway</text>
  <text x="400" y="210" text-anchor="middle" fill="white" font-size="11">Container</text>
  
  <!-- 마이크로서비스 컨테이너들 -->
  <!-- 사용자 서비스 -->
  <rect x="40" y="260" width="160" height="90" fill="#007bff" stroke="#0056b3" stroke-width="2"/>
  <text x="120" y="280" text-anchor="middle" fill="white" font-size="13" font-weight="bold">사용자 서비스</text>
  <text x="120" y="300" text-anchor="middle" fill="white" font-size="11">Container</text>
  <text x="120" y="320" text-anchor="middle" fill="white" font-size="10">- 인증/로그인</text>
  <text x="120" y="335" text-anchor="middle" fill="white" font-size="10">- 프로필 관리</text>
  
  <!-- 상품 서비스 -->
  <rect x="220" y="260" width="160" height="90" fill="#dc3545" stroke="#c82333" stroke-width="2"/>
  <text x="300" y="280" text-anchor="middle" fill="white" font-size="13" font-weight="bold">상품 서비스</text>
  <text x="300" y="300" text-anchor="middle" fill="white" font-size="11">Container</text>
  <text x="300" y="320" text-anchor="middle" fill="white" font-size="10">- 상품 카탈로그</text>
  <text x="300" y="335" text-anchor="middle" fill="white" font-size="10">- 검색 기능</text>
  
  <!-- 주문 서비스 -->
  <rect x="400" y="260" width="160" height="90" fill="#fd7e14" stroke="#e8590c" stroke-width="2"/>
  <text x="480" y="280" text-anchor="middle" fill="white" font-size="13" font-weight="bold">주문 서비스</text>
  <text x="480" y="300" text-anchor="middle" fill="white" font-size="11">Container</text>
  <text x="480" y="320" text-anchor="middle" fill="white" font-size="10">- 장바구니</text>
  <text x="480" y="335" text-anchor="middle" fill="white" font-size="10">- 주문 처리</text>
  
  <!-- 결제 서비스 -->
  <rect x="580" y="260" width="160" height="90" fill="#6f42c1" stroke="#5a32aa" stroke-width="2"/>
  <text x="660" y="280" text-anchor="middle" fill="white" font-size="13" font-weight="bold">결제 서비스</text>
  <text x="660" y="300" text-anchor="middle" fill="white" font-size="11">Container</text>
  <text x="660" y="320" text-anchor="middle" fill="white" font-size="10">- 결제 처리</text>
  <text x="660" y="335" text-anchor="middle" fill="white" font-size="10">- 보안 관리</text>
  
  <!-- 데이터베이스 레이어 -->
  <rect x="40" y="370" width="160" height="60" fill="#495057" stroke="#343a40" stroke-width="2"/>
  <text x="120" y="390" text-anchor="middle" fill="white" font-size="12" font-weight="bold">사용자 DB</text>
  <text x="120" y="410" text-anchor="middle" fill="white" font-size="10">PostgreSQL Container</text>
  
  <rect x="220" y="370" width="160" height="60" fill="#495057" stroke="#343a40" stroke-width="2"/>
  <text x="300" y="390" text-anchor="middle" fill="white" font-size="12" font-weight="bold">상품 DB</text>
  <text x="300" y="410" text-anchor="middle" fill="white" font-size="10">MongoDB Container</text>
  
  <rect x="400" y="370" width="160" height="60" fill="#495057" stroke="#343a40" stroke-width="2"/>
  <text x="480" y="390" text-anchor="middle" fill="white" font-size="12" font-weight="bold">주문 DB</text>
  <text x="480" y="410" text-anchor="middle" fill="white" font-size="10">MySQL Container</text>
  
  <rect x="580" y="370" width="160" height="60" fill="#dc3545" stroke="#c82333" stroke-width="2"/>
  <text x="660" y="390" text-anchor="middle" fill="white" font-size="12" font-weight="bold">Redis 캐시</text>
  <text x="660" y="410" text-anchor="middle" fill="white" font-size="10">Redis Container</text>
  
  <!-- 메시지 큐 및 지원 서비스 -->
  <rect x="220" y="450" width="160" height="60" fill="#20c997" stroke="#1a9d74" stroke-width="2"/>
  <text x="300" y="470" text-anchor="middle" fill="white" font-size="12" font-weight="bold">메시지 큐</text>
  <text x="300" y="490" text-anchor="middle" fill="white" font-size="10">RabbitMQ Container</text>
  
  <rect x="400" y="450" width="160" height="60" fill="#20c997" stroke="#1a9d74" stroke-width="2"/>
  <text x="480" y="470" text-anchor="middle" fill="white" font-size="12" font-weight="bold">모니터링</text>
  <text x="480" y="490" text-anchor="middle" fill="white" font-size="10">Prometheus/Grafana</text>
  
  <!-- 연결선들 -->
  <!-- 클라이언트 -> 로드밸런서 -->
  <line x1="400" y1="90" x2="400" y2="110" stroke="#666" stroke-width="2"/>
  
  <!-- 로드밸런서 -> API Gateway -->
  <line x1="400" y1="150" x2="400" y2="170" stroke="#666" stroke-width="2"/>
  
  <!-- API Gateway -> 마이크로서비스 -->
  <line x1="370" y1="230" x2="120" y2="260" stroke="#666" stroke-width="2"/>
  <line x1="385" y1="230" x2="300" y2="260" stroke="#666" stroke-width="2"/>
  <line x1="415" y1="230" x2="480" y2="260" stroke="#666" stroke-width="2"/>
  <line x1="430" y1="230" x2="660" y2="260" stroke="#666" stroke-width="2"/>
  
  <!-- 마이크로서비스 -> 데이터베이스 -->
  <line x1="120" y1="350" x2="120" y2="370" stroke="#666" stroke-width="2"/>
  <line x1="300" y1="350" x2="300" y2="370" stroke="#666" stroke-width="2"/>
  <line x1="480" y1="350" x2="480" y2="370" stroke="#666" stroke-width="2"/>
  <line x1="660" y1="350" x2="660" y2="370" stroke="#666" stroke-width="2"/>
  
  <!-- 메시지 큐 연결 (점선) -->
  <line x1="300" y1="350" x2="300" y2="450" stroke="#666" stroke-width="2" stroke-dasharray="4 4"/>
  <line x1="480" y1="350" x2="480" y2="450" stroke="#666" stroke-width="2" stroke-dasharray="4 4"/>
  
  <!-- Kubernetes 클러스터 표시 -->
  <rect x="20" y="240" width="740" height="330" fill="none" stroke="#007bff" stroke-width="3" stroke-dasharray="8 4"/>
  <text x="30" y="230" font-size="14" font-weight="bold" fill="#007bff">Kubernetes 클러스터</text>
  
  <!-- 범례 -->
  <rect x="20" y="540" width="760" height="50" fill="#f8f9fa" stroke="#dee2e6" stroke-width="1"/>
  <text x="400" y="555" text-anchor="middle" font-size="12" font-weight="bold">범례</text>
  <rect x="40" y="560" width="15" height="15" fill="#28a745"/>
  <text x="60" y="573" font-size="10">API Gateway</text>
  <rect x="140" y="560" width="15" height="15" fill="#007bff"/>
  <text x="160" y="573" font-size="10">사용자 서비스</text>
  <rect x="240" y="560" width="15" height="15" fill="#dc3545"/>
  <text x="260" y="573" font-size="10">상품 서비스</text>
  <rect x="340" y="560" width="15" height="15" fill="#fd7e14"/>
  <text x="360" y="573" font-size="10">주문 서비스</text>
  <rect x="440" y="560" width="15" height="15" fill="#6f42c1"/>
  <text x="460" y="573" font-size="10">결제 서비스</text>
  <rect x="540" y="560" width="15" height="15" fill="#495057"/>
  <text x="560" y="573" font-size="10">데이터베이스</text>
  <rect x="640" y="560" width="15" height="15" fill="#20c997"/>
  <text x="660" y="573" font-size="10">지원 서비스</text>
</svg>