<svg viewBox="0 0 900 700" xmlns="http://www.w3.org/2000/svg">
  <!-- 배경 -->
  <rect width="900" height="700" fill="#f8f9fa"/>
  
  <!-- 제목 -->
  <text x="450" y="30" text-anchor="middle" font-size="20" font-weight="bold" fill="#2c3e50">
    캡슐화/역캡슐화 아키텍처
  </text>
  
  <!-- 송신측 -->
  <g transform="translate(80, 80)">
    <text x="100" y="0" text-anchor="middle" font-size="16" font-weight="bold" fill="#2c3e50">송신측 (캡슐화)</text>
    
    <!-- Application Layer -->
    <rect x="20" y="30" width="160" height="50" fill="#3498db" stroke="#2c3e50" stroke-width="2"/>
    <text x="100" y="60" text-anchor="middle" fill="white" font-weight="bold">Application Data</text>
    
    <!-- Transport Layer -->
    <rect x="10" y="100" width="20" height="50" fill="#f39c12" stroke="#2c3e50" stroke-width="2"/>
    <text x="20" y="115" text-anchor="middle" fill="white" font-size="10" font-weight="bold">T</text>
    <text x="20" y="130" text-anchor="middle" fill="white" font-size="10" font-weight="bold">H</text>
    <rect x="30" y="100" width="160" height="50" fill="#3498db" stroke="#2c3e50" stroke-width="2"/>
    <text x="110" y="130" text-anchor="middle" fill="white" font-weight="bold">Application Data</text>
    <text x="5" y="175" font-size="12" fill="#7f8c8d">Segment</text>
    
    <!-- Network Layer -->
    <rect x="0" y="170" width="20" height="50" fill="#27ae60" stroke="#2c3e50" stroke-width="2"/>
    <text x="10" y="185" text-anchor="middle" fill="white" font-size="10" font-weight="bold">N</text>
    <text x="10" y="200" text-anchor="middle" fill="white" font-size="10" font-weight="bold">H</text>
    <rect x="20" y="170" width="180" height="50" fill="#ecf0f1" stroke="#2c3e50" stroke-width="2"/>
    <text x="110" y="200" text-anchor="middle" fill="#2c3e50" font-weight="bold">TH + Application Data</text>
    <text x="-5" y="245" font-size="12" fill="#7f8c8d">Packet</text>
    
    <!-- Data Link Layer -->
    <rect x="0" y="240" width="20" height="50" fill="#16a085" stroke="#2c3e50" stroke-width="2"/>
    <text x="10" y="255" text-anchor="middle" fill="white" font-size="10" font-weight="bold">D</text>
    <text x="10" y="270" text-anchor="middle" fill="white" font-size="10" font-weight="bold">H</text>
    <rect x="20" y="240" width="200" height="50" fill="#ecf0f1" stroke="#2c3e50" stroke-width="2"/>
    <text x="120" y="270" text-anchor="middle" fill="#2c3e50" font-weight="bold">NH + TH + Application Data</text>
    <rect x="220" y="240" width="20" height="50" fill="#16a085" stroke="#2c3e50" stroke-width="2"/>
    <text x="230" y="255" text-anchor="middle" fill="white" font-size="10" font-weight="bold">D</text>
    <text x="230" y="270" text-anchor="middle" fill="white" font-size="10" font-weight="bold">T</text>
    <text x="-5" y="315" font-size="12" fill="#7f8c8d">Frame</text>
    
    <!-- Physical Layer -->
    <rect x="0" y="330" width="240" height="40" fill="#34495e" stroke="#2c3e50" stroke-width="2"/>
    <text x="120" y="355" text-anchor="middle" fill="white" font-weight="bold">Bits (101010...)</text>
    <text x="-5" y="390" font-size="12" fill="#7f8c8d">Bits</text>
  </g>
  
  <!-- 수신측 -->
  <g transform="translate(580, 80)">
    <text x="100" y="0" text-anchor="middle" font-size="16" font-weight="bold" fill="#2c3e50">수신측 (역캡슐화)</text>
    
    <!-- Physical Layer -->
    <rect x="0" y="330" width="240" height="40" fill="#34495e" stroke="#2c3e50" stroke-width="2"/>
    <text x="120" y="355" text-anchor="middle" fill="white" font-weight="bold">Bits (101010...)</text>
    <text x="245" y="355" font-size="12" fill="#7f8c8d">Bits</text>
    
    <!-- Data Link Layer -->
    <rect x="0" y="240" width="20" height="50" fill="#95a5a6" stroke="#2c3e50" stroke-width="2" stroke-dasharray="3,3"/>
    <text x="10" y="255" text-anchor="middle" fill="white" font-size="10">D</text>
    <text x="10" y="270" text-anchor="middle" fill="white" font-size="10">H</text>
    <rect x="20" y="240" width="200" height="50" fill="#ecf0f1" stroke="#2c3e50" stroke-width="2"/>
    <text x="120" y="270" text-anchor="middle" fill="#2c3e50" font-weight="bold">NH + TH + Application Data</text>
    <rect x="220" y="240" width="20" height="50" fill="#95a5a6" stroke="#2c3e50" stroke-width="2" stroke-dasharray="3,3"/>
    <text x="230" y="255" text-anchor="middle" fill="white" font-size="10">D</text>
    <text x="230" y="270" text-anchor="middle" fill="white" font-size="10">T</text>
    <text x="245" y="270" font-size="12" fill="#7f8c8d">헤더 제거</text>
    
    <!-- Network Layer -->
    <rect x="0" y="170" width="20" height="50" fill="#95a5a6" stroke="#2c3e50" stroke-width="2" stroke-dasharray="3,3"/>
    <text x="10" y="185" text-anchor="middle" fill="white" font-size="10">N</text>
    <text x="10" y="200" text-anchor="middle" fill="white" font-size="10">H</text>
    <rect x="20" y="170" width="180" height="50" fill="#ecf0f1" stroke="#2c3e50" stroke-width="2"/>
    <text x="110" y="200" text-anchor="middle" fill="#2c3e50" font-weight="bold">TH + Application Data</text>
    <text x="205" y="200" font-size="12" fill="#7f8c8d">헤더 제거</text>
    
    <!-- Transport Layer -->
    <rect x="10" y="100" width="20" height="50" fill="#95a5a6" stroke="#2c3e50" stroke-width="2" stroke-dasharray="3,3"/>
    <text x="20" y="115" text-anchor="middle" fill="white" font-size="10">T</text>
    <text x="20" y="130" text-anchor="middle" fill="white" font-size="10">H</text>
    <rect x="30" y="100" width="160" height="50" fill="#3498db" stroke="#2c3e50" stroke-width="2"/>
    <text x="110" y="130" text-anchor="middle" fill="white" font-weight="bold">Application Data</text>
    <text x="195" y="130" font-size="12" fill="#7f8c8d">헤더 제거</text>
    
    <!-- Application Layer -->
    <rect x="20" y="30" width="160" height="50" fill="#3498db" stroke="#2c3e50" stroke-width="2"/>
    <text x="100" y="60" text-anchor="middle" fill="white" font-weight="bold">Application Data</text>
  </g>
  
  <!-- 네트워크 전송 -->
  <g transform="translate(350, 450)">
    <rect x="0" y="0" width="200" height="80" fill="#ecf0f1" stroke="#2c3e50" stroke-width="2"/>
    <text x="100" y="25" text-anchor="middle" font-size="14" font-weight="bold" fill="#2c3e50">네트워크 매체</text>
    <text x="100" y="45" text-anchor="middle" font-size="12" fill="#7f8c8d">물리적 전송</text>
    <text x="100" y="65" text-anchor="middle" font-size="12" fill="#7f8c8d">(Frame → Bits → Frame)</text>
  </g>
  
  <!-- 전송 화살표 -->
  <path d="M 320 470 L 350 490" stroke="#34495e" stroke-width="3" marker-end="url(#arrow)"/>
  <path d="M 550 490 L 580 470" stroke="#34495e" stroke-width="3" marker-end="url(#arrow)"/>
  
  <!-- PDU 레이블 -->
  <g transform="translate(50, 550)">
    <text x="0" y="0" font-size="16" font-weight="bold" fill="#2c3e50">PDU (Protocol Data Unit) 유형:</text>
    
    <rect x="0" y="20" width="15" height="15" fill="#3498db"/>
    <text x="25" y="32" font-size="12" fill="#2c3e50">Data (응용계층 데이터)</text>
    
    <rect x="200" y="20" width="15" height="15" fill="#f39c12"/>
    <text x="225" y="32" font-size="12" fill="#2c3e50">Segment (전송계층)</text>
    
    <rect x="400" y="20" width="15" height="15" fill="#27ae60"/>
    <text x="425" y="32" font-size="12" fill="#2c3e50">Packet (네트워크계층)</text>
    
    <rect x="0" y="50" width="15" height="15" fill="#16a085"/>
    <text x="25" y="62" font-size="12" fill="#2c3e50">Frame (데이터링크계층)</text>
    
    <rect x="200" y="50" width="15" height="15" fill="#34495e"/>
    <text x="225" y="62" font-size="12" fill="#2c3e50">Bits (물리계층)</text>
  </g>
  
  <!-- 헤더 정보 -->
  <g transform="translate(50, 630)">
    <text x="0" y="0" font-size="16" font-weight="bold" fill="#2c3e50">헤더 정보:</text>
    <text x="0" y="20" font-size="12" fill="#2c3e50">• TH (Transport Header): 포트번호, 시퀀스번호, 체크섬</text>
    <text x="0" y="40" font-size="12" fill="#2c3e50">• NH (Network Header): 송신/수신 IP주소, TTL</text>
    <text x="0" y="60" font-size="12" fill="#2c3e50">• DH/DT: MAC주소, 프레임 체크 시퀀스</text>
  </g>
  
  <!-- 화살표 마커 -->
  <defs>
    <marker id="arrow" markerWidth="10" markerHeight="7" refX="9" refY="3.5" orient="auto">
      <polygon points="0 0, 10 3.5, 0 7" fill="#34495e"/>
    </marker>
  </defs>
</svg>