<svg xmlns="http://www.w3.org/2000/svg" viewBox="0 0 1400 2200">
  <defs>
    <linearGradient id="seoul" x1="0%" y1="0%" x2="100%" y2="100%">
      <stop offset="0%" style="stop-color:#667eea;stop-opacity:1" />
      <stop offset="100%" style="stop-color:#764ba2;stop-opacity:1" />
    </linearGradient>
    
    <linearGradient id="tokyo" x1="0%" y1="0%" x2="100%" y2="100%">
      <stop offset="0%" style="stop-color:#f093fb;stop-opacity:1" />
      <stop offset="100%" style="stop-color:#f5576c;stop-opacity:1" />
    </linearGradient>
    
    <linearGradient id="newyork" x1="0%" y1="0%" x2="100%" y2="100%">
      <stop offset="0%" style="stop-color:#4facfe;stop-opacity:1" />
      <stop offset="100%" style="stop-color:#00f2fe;stop-opacity:1" />
    </linearGradient>
    
    <linearGradient id="london" x1="0%" y1="0%" x2="100%" y2="100%">
      <stop offset="0%" style="stop-color:#43e97b;stop-opacity:1" />
      <stop offset="100%" style="stop-color:#38f9d7;stop-opacity:1" />
    </linearGradient>
    
    <linearGradient id="workflow" x1="0%" y1="0%" x2="100%" y2="100%">
      <stop offset="0%" style="stop-color:#ffecd2;stop-opacity:1" />
      <stop offset="100%" style="stop-color:#fcb69f;stop-opacity:1" />
    </linearGradient>
    
    <linearGradient id="protocols" x1="0%" y1="0%" x2="100%" y2="100%">
      <stop offset="0%" style="stop-color:#a8edea;stop-opacity:1" />
      <stop offset="100%" style="stop-color:#fed6e3;stop-opacity:1" />
    </linearGradient>
  </defs>
  
  <!-- Title -->
  <text x="700" y="50" text-anchor="middle" fill="#333" font-size="32" font-weight="bold" font-family="Arial, sans-serif">
    🌐 대규모 기업 네트워크 구축 사례
  </text>
  
  <!-- Network Map Background -->
  <rect x="50" y="100" width="1300" height="400" fill="#f5f7fa" rx="15"/>
  
  <!-- Tokyo Office -->
  <rect x="950" y="130" width="200" height="120" fill="url(#tokyo)" rx="15"/>
  <text x="1050" y="155" text-anchor="middle" fill="white" font-size="16" font-weight="bold">🏢 도쿄 지사</text>
  <text x="1050" y="175" text-anchor="middle" fill="white" font-size="12">AS 65002</text>
  <text x="1050" y="195" text-anchor="middle" fill="white" font-size="12">OSPF Area 1</text>
  <text x="1050" y="215" text-anchor="middle" fill="white" font-size="12">100명 직원</text>
  
  <!-- Seoul Office (Center) -->
  <rect x="600" y="230" width="200" height="140" fill="url(#seoul)" rx="15"/>
  <text x="700" y="255" text-anchor="middle" fill="white" font-size="16" font-weight="bold">🏛️ 서울 본사</text>
  <text x="700" y="275" text-anchor="middle" fill="white" font-size="12">AS 65001</text>
  <text x="700" y="295" text-anchor="middle" fill="white" font-size="12">OSPF Area 0</text>
  <text x="700" y="315" text-anchor="middle" fill="white" font-size="12">500명 직원</text>
  <text x="700" y="335" text-anchor="middle" fill="white" font-size="12">데이터센터</text>
  
  <!-- New York Office -->
  <rect x="150" y="230" width="200" height="120" fill="url(#newyork)" rx="15"/>
  <text x="250" y="255" text-anchor="middle" fill="white" font-size="16" font-weight="bold">🏢 뉴욕 지사</text>
  <text x="250" y="275" text-anchor="middle" fill="white" font-size="12">AS 65003</text>
  <text x="250" y="295" text-anchor="middle" fill="white" font-size="12">OSPF Area 2</text>
  <text x="250" y="315" text-anchor="middle" fill="white" font-size="12">200명 직원</text>
  
  <!-- London Office -->
  <rect x="600" y="380" width="200" height="120" fill="url(#london)" rx="15"/>
  <text x="700" y="405" text-anchor="middle" fill="white" font-size="16" font-weight="bold">🏢 런던 지사</text>
  <text x="700" y="425" text-anchor="middle" fill="white" font-size="12">AS 65004</text>
  <text x="700" y="445" text-anchor="middle" fill="white" font-size="12">OSPF Area 3</text>
  <text x="700" y="465" text-anchor="middle" fill="white" font-size="12">150명 직원</text>
  
  <!-- Connection Lines -->
  <line x1="350" y1="290" x2="600" y2="300" stroke="#333" stroke-width="3"/>
  <line x1="800" y1="300" x2="950" y2="190" stroke="#333" stroke-width="3"/>
  <line x1="700" y1="370" x2="700" y2="380" stroke="#333" stroke-width="3"/>
  
  <!-- Workflow Section -->
  <rect x="50" y="550" width="1300" height="300" fill="url(#workflow)" rx="15"/>
  <text x="700" y="580" text-anchor="middle" fill="#333" font-size="24" font-weight="bold">📋 네트워크 구축 워크플로우</text>
  
  <!-- Workflow Steps -->
  <rect x="70" y="610" width="280" height="120" fill="rgba(255,255,255,0.9)" rx="10" stroke="#667eea" stroke-width="3" stroke-left-width="5"/>
  <text x="90" y="640" fill="#667eea" font-size="20" font-weight="bold">1</text>
  <text x="90" y="665" fill="#333" font-size="16" font-weight="bold">네트워크 설계</text>
  <text x="90" y="685" fill="#666" font-size="12">IP 주소 계획, AS 번호 할당,</text>
  <text x="90" y="700" fill="#666" font-size="12">라우팅 정책 수립,</text>
  <text x="90" y="715" fill="#666" font-size="12">보안 요구사항 정의</text>
  
  <rect x="370" y="610" width="280" height="120" fill="rgba(255,255,255,0.9)" rx="10" stroke="#667eea" stroke-width="3"/>
  <text x="390" y="640" fill="#667eea" font-size="20" font-weight="bold">2</text>
  <text x="390" y="665" fill="#333" font-size="16" font-weight="bold">장비 구성</text>
  <text x="390" y="685" fill="#666" font-size="12">라우터 설정, OSPF 영역 구성,</text>
  <text x="390" y="700" fill="#666" font-size="12">BGP 피어링 설정,</text>
  <text x="390" y="715" fill="#666" font-size="12">IPsec 터널 구성</text>
  
  <rect x="670" y="610" width="280" height="120" fill="rgba(255,255,255,0.9)" rx="10" stroke="#667eea" stroke-width="3"/>
  <text x="690" y="640" fill="#667eea" font-size="20" font-weight="bold">3</text>
  <text x="690" y="665" fill="#333" font-size="16" font-weight="bold">연결 및 테스트</text>
  <text x="690" y="685" fill="#666" font-size="12">물리적 연결,</text>
  <text x="690" y="700" fill="#666" font-size="12">라우팅 테이블 확인,</text>
  <text x="690" y="715" fill="#666" font-size="12">연결성 테스트, 성능 측정</text>
  
  <rect x="970" y="610" width="280" height="120" fill="rgba(255,255,255,0.9)" rx="10" stroke="#667eea" stroke-width="3"/>
  <text x="990" y="640" fill="#667eea" font-size="20" font-weight="bold">4</text>
  <text x="990" y="665" fill="#333" font-size="16" font-weight="bold">운영 및 모니터링</text>
  <text x="990" y="685" fill="#666" font-size="12">네트워크 모니터링,</text>
  <text x="990" y="700" fill="#666" font-size="12">성능 분석, 장애 대응,</text>
  <text x="990" y="715" fill="#666" font-size="12">정기 점검</text>
  
  <!-- Protocols Used Section -->
  <rect x="50" y="900" width="1300" height="300" fill="url(#protocols)" rx="15"/>
  <text x="700" y="930" text-anchor="middle" fill="#333" font-size="24" font-weight="bold">🔧 사용된 네트워크 계층 프로토콜</text>
  
  <!-- Protocol Cards -->
  <rect x="70" y="960" width="200" height="100" fill="rgba(255,255,255,0.9)" rx="10"/>
  <text x="170" y="985" text-anchor="middle" fill="#333" font-size="16" font-weight="bold">BGP-4</text>
  <text x="80" y="1005" fill="#666" font-size="12">AS 간 라우팅,</text>
  <text x="80" y="1020" fill="#666" font-size="12">정책 기반 경로 선택,</text>
  <text x="80" y="1035" fill="#666" font-size="12">인터넷 연결</text>
  
  <rect x="290" y="960" width="200" height="100" fill="rgba(255,255,255,0.9)" rx="10"/>
  <text x="390" y="985" text-anchor="middle" fill="#333" font-size="16" font-weight="bold">OSPF</text>
  <text x="300" y="1005" fill="#666" font-size="12">AS 내부 라우팅,</text>
  <text x="300" y="1020" fill="#666" font-size="12">영역 기반 계층 구조,</text>
  <text x="300" y="1035" fill="#666" font-size="12">빠른 수렴</text>
  
  <rect x="510" y="960" width="200" height="100" fill="rgba(255,255,255,0.9)" rx="10"/>
  <text x="610" y="985" text-anchor="middle" fill="#333" font-size="16" font-weight="bold">IPsec</text>
  <text x="520" y="1005" fill="#666" font-size="12">VPN 터널링,</text>
  <text x="520" y="1020" fill="#666" font-size="12">데이터 암호화,</text>
  <text x="520" y="1035" fill="#666" font-size="12">인증</text>
  
  <rect x="730" y="960" width="200" height="100" fill="rgba(255,255,255,0.9)" rx="10"/>
  <text x="830" y="985" text-anchor="middle" fill="#333" font-size="16" font-weight="bold">ICMP</text>
  <text x="740" y="1005" fill="#666" font-size="12">네트워크 진단,</text>
  <text x="740" y="1020" fill="#666" font-size="12">오류 보고,</text>
  <text x="740" y="1035" fill="#666" font-size="12">연결성 테스트</text>
  
  <rect x="950" y="960" width="200" height="100" fill="rgba(255,255,255,0.9)" rx="10"/>
  <text x="1050" y="985" text-anchor="middle" fill="#333" font-size="16" font-weight="bold">IGMP</text>
  <text x="960" y="1005" fill="#666" font-size="12">멀티캐스트 그룹 관리,</text>
  <text x="960" y="1020" fill="#666" font-size="12">화상회의,</text>
  <text x="960" y="1035" fill="#666" font-size="12">방송</text>
  
  <rect x="400" y="1080" width="200" height="100" fill="rgba(255,255,255,0.9)" rx="10"/>
  <text x="500" y="1105" text-anchor="middle" fill="#333" font-size="16" font-weight="bold">MPLS</text>
  <text x="410" y="1125" fill="#666" font-size="12">레이블 스위칭,</text>
  <text x="410" y="1140" fill="#666" font-size="12">QoS 보장,</text>
  <text x="410" y="1155" fill="#666" font-size="12">VPN 서비스</text>
  
  <!-- Benefits Section -->
  <rect x="50" y="1250" width="1300" height="350" fill="#f8f9fa" rx="15" stroke="#667eea" stroke-width="2"/>
  <text x="700" y="1280" text-anchor="middle" fill="#333" font-size="24" font-weight="bold">✅ 구축 효과 및 이점</text>
  
  <!-- Benefits Grid -->
  <rect x="70" y="1310" width="400" height="80" fill="white" rx="8" stroke="#667eea" stroke-width="2"/>
  <text x="90" y="1335" fill="#333" font-size="16" font-weight="bold">🚀 성능 향상</text>
  <text x="90" y="1355" fill="#666" font-size="13">최적 경로 자동 선택으로 네트워크 지연 시간 30% 감소</text>
  
  <rect x="500" y="1310" width="400" height="80" fill="white" rx="8" stroke="#667eea" stroke-width="2"/>
  <text x="520" y="1335" fill="#333" font-size="16" font-weight="bold">🔒 보안 강화</text>
  <text x="520" y="1355" fill="#666" font-size="13">IPsec 터널링을 통한 데이터 암호화 및 안전한 원격 접속</text>
  
  <rect x="930" y="1310" width="400" height="80" fill="white" rx="8" stroke="#667eea" stroke-width="2"/>
  <text x="950" y="1335" fill="#333" font-size="16" font-weight="bold">📈 확장성</text>
  <text x="950" y="1355" fill="#666" font-size="13">새로운 지사 추가 시 자동 라우팅 업데이트로 빠른 연결</text>
  
  <rect x="70" y="1410" width="400" height="80" fill="white" rx="8" stroke="#667eea" stroke-width="2"/>
  <text x="90" y="1435" fill="#333" font-size="16" font-weight="bold">💰 비용 절감</text>
  <text x="90" y="1455" fill="#666" font-size="13">효율적인 대역폭 사용과 중앙집중식 관리로 운영비 20% 절감</text>
  
  <rect x="500" y="1410" width="400" height="80" fill="white" rx="8" stroke="#667eea" stroke-width="2"/>
  <text x="520" y="1435" fill="#333" font-size="16" font-weight="bold">🛠️ 관리 효율성</text>
  <text x="520" y="1455" fill="#666" font-size="13">통합 모니터링 시스템을 통한 실시간 네트워크 상태 파악</text>
  
  <rect x="930" y="1410" width="400" height="80" fill="white" rx="8" stroke="#667eea" stroke-width="2"/>
  <text x="950" y="1435" fill="#333" font-size="16" font-weight="bold">⚡ 장애 복구</text>
  <text x="950" y="1455" fill="#666" font-size="13">다중 경로 설정으로 장애 발생 시 자동 우회 경로 활성화</text>
  
  <!-- Success Metrics -->
  <rect x="50" y="1650" width="1300" height="150" fill="#e8f5e8" rx="15"/>
  <text x="700" y="1680" text-anchor="middle" fill="#333" font-size="20" font-weight="bold">📊 주요 성과 지표</text>
  
  <text x="100" y="1710" fill="#333" font-size="14">• <tspan font-weight="bold">네트워크 지연시간:</tspan> 30% 감소</text>
  <text x="100" y="1730" fill="#333" font-size="14">• <tspan font-weight="bold">운영비용:</tspan> 20% 절감</text>
  <text x="100" y="1750" fill="#333" font-size="14">• <tspan font-weight="bold">가용성:</tspan> 99.9% 이상 달성</text>
  
  <text x="700" y="1710" fill="#333" font-size="14">• <tspan font-weight="bold">보안 사고:</tspan> 제로 달성</text>
  <text x="700" y="1730" fill="#333" font-size="14">• <tspan font-weight="bold">확장 시간:</tspan> 신규 지사 연결 시간 80% 단축</text>
  <text x="700" y="1750" fill="#333" font-size="14">• <tspan font-weight="bold">사용자 만족도:</tspan> 95% 이상</text>
</svg>