<svg viewBox="0 0 800 600" xmlns="http://www.w3.org/2000/svg">
  <defs>
    <style>
      .title { font: bold 18px sans-serif; fill: #2c3e50; }
      .subtitle { font: bold 14px sans-serif; fill: #34495e; }
      .text { font: 12px sans-serif; fill: #2c3e50; }
      .box { fill: #ecf0f1; stroke: #34495e; stroke-width: 2; }
      .sender { fill: #3498db; stroke: #2980b9; stroke-width: 2; }
      .receiver { fill: #e74c3c; stroke: #c0392b; stroke-width: 2; }
      .process { fill: #f39c12; stroke: #e67e22; stroke-width: 2; }
      .arrow { stroke: #2c3e50; stroke-width: 2; fill: none; marker-end: url(#arrowhead); }
      .data-flow { stroke: #27ae60; stroke-width: 3; fill: none; }
      .error-flow { stroke: #e74c3c; stroke-width: 3; fill: none; stroke-dasharray: 5,5; }
    </style>
    <marker id="arrowhead" markerWidth="10" markerHeight="7" refX="9" refY="3.5" orient="auto">
      <polygon points="0 0, 10 3.5, 0 7" fill="#2c3e50"/>
    </marker>
  </defs>
  
  <!-- Title -->
  <text x="400" y="30" text-anchor="middle" class="title">Error Control 작동 원리</text>
  
  <!-- Sender Section -->
  <rect x="50" y="60" width="150" height="400" class="sender" rx="10"/>
  <text x="125" y="80" text-anchor="middle" class="subtitle" fill="white">송신자 (Sender)</text>
  
  <!-- Sender Components -->
  <rect x="70" y="100" width="110" height="40" class="box" rx="5"/>
  <text x="125" y="120" text-anchor="middle" class="text">데이터 준비</text>
  
  <rect x="70" y="160" width="110" height="40" class="box" rx="5"/>
  <text x="125" y="175" text-anchor="middle" class="text">오류 검출 코드</text>
  <text x="125" y="190" text-anchor="middle" class="text">추가 (CRC/Checksum)</text>
  
  <rect x="70" y="220" width="110" height="40" class="box" rx="5"/>
  <text x="125" y="235" text-anchor="middle" class="text">프레임 전송</text>
  <text x="125" y="250" text-anchor="middle" class="text">+ 타이머 시작</text>
  
  <rect x="70" y="280" width="110" height="40" class="box" rx="5"/>
  <text x="125" y="295" text-anchor="middle" class="text">ACK/NAK</text>
  <text x="125" y="310" text-anchor="middle" class="text">대기</text>
  
  <rect x="70" y="340" width="110" height="40" class="box" rx="5"/>
  <text x="125" y="355" text-anchor="middle" class="text">재전송 또는</text>
  <text x="125" y="370" text-anchor="middle" class="text">다음 프레임</text>
  
  <!-- Receiver Section -->
  <rect x="600" y="60" width="150" height="400" class="receiver" rx="10"/>
  <text x="675" y="80" text-anchor="middle" class="subtitle" fill="white">수신자 (Receiver)</text>
  
  <!-- Receiver Components -->
  <rect x="620" y="100" width="110" height="40" class="box" rx="5"/>
  <text x="675" y="120" text-anchor="middle" class="text">프레임 수신</text>
  
  <rect x="620" y="160" width="110" height="40" class="box" rx="5"/>
  <text x="675" y="175" text-anchor="middle" class="text">오류 검사</text>
  <text x="675" y="190" text-anchor="middle" class="text">(CRC/Checksum)</text>
  
  <rect x="620" y="220" width="110" height="50" class="process" rx="5"/>
  <text x="675" y="235" text-anchor="middle" class="text">오류 판정</text>
  <text x="675" y="250" text-anchor="middle" class="text">정상 → ACK</text>
  <text x="675" y="265" text-anchor="middle" class="text">오류 → NAK</text>
  
  <rect x="620" y="290" width="110" height="40" class="box" rx="5"/>
  <text x="675" y="305" text-anchor="middle" class="text">응답 전송</text>
  <text x="675" y="320" text-anchor="middle" class="text">(ACK/NAK)</text>
  
  <rect x="620" y="350" width="110" height="40" class="box" rx="5"/>
  <text x="675" y="365" text-anchor="middle" class="text">데이터 처리</text>
  <text x="675" y="380" text-anchor="middle" class="text">또는 폐기</text>
  
  <!-- Data Flow Arrows -->
  <path d="M 200 240 L 600 120" class="data-flow"/>
  <text x="400" y="175" text-anchor="middle" class="text" fill="#27ae60">데이터 프레임 전송</text>
  
  <!-- ACK Flow -->
  <path d="M 620 310 L 200 300" class="data-flow"/>
  <text x="400" y="300" text-anchor="middle" class="text" fill="#27ae60">ACK/NAK 응답</text>
  
  <!-- Error Flow -->
  <path d="M 200 360 L 600 240" class="error-flow"/>
  <text x="400" y="315" text-anchor="middle" class="text" fill="#e74c3c">오류 시 재전송</text>
  
  <!-- Process Flow Arrows -->
  <path d="M 125 140 L 125 160" class="arrow"/>
  <path d="M 125 200 L 125 220" class="arrow"/>
  <path d="M 125 260 L 125 280" class="arrow"/>
  <path d="M 125 320 L 125 340" class="arrow"/>
  
  <path d="M 675 140 L 675 160" class="arrow"/>
  <path d="M 675 200 L 675 220" class="arrow"/>
  <path d="M 675 270 L 675 290" class="arrow"/>
  <path d="M 675 330 L 675 350" class="arrow"/>
  
  <!-- Legend -->
  <rect x="250" y="480" width="300" height="100" class="box" rx="5"/>
  <text x="400" y="500" text-anchor="middle" class="subtitle">범례</text>
  <line x1="270" y1="515" x2="300" y2="515" class="data-flow"/>
  <text x="310" y="520" class="text">정상 데이터 흐름</text>
  <line x1="270" y1="535" x2="300" y2="535" class="error-flow"/>
  <text x="310" y="540" class="text">오류 처리 흐름</text>
  <line x1="270" y1="555" x2="300" y2="555" class="arrow"/>
  <text x="310" y="560" class="text">처리 순서</text>
</svg>