<svg viewBox="0 0 900 700" xmlns="http://www.w3.org/2000/svg">
  <defs>
    <style>
      .title { font: bold 20px sans-serif; fill: #2c3e50; }
      .subtitle { font: bold 14px sans-serif; fill: #34495e; }
      .text { font: 11px sans-serif; fill: #2c3e50; }
      .required { fill: #3498db; stroke: #2980b9; stroke-width: 2; }
      .optional { fill: #95a5a6; stroke: #7f8c8d; stroke-width: 2; }
      .layer { fill: #ecf0f1; stroke: #bdc3c7; stroke-width: 1; }
      .interface { stroke: #e74c3c; stroke-width: 2; fill: none; stroke-dasharray: 3,3; }
      .data-flow { stroke: #27ae60; stroke-width: 2; fill: none; marker-end: url(#arrowhead); }
      .control-flow { stroke: #f39c12; stroke-width: 2; fill: none; marker-end: url(#arrowhead); }
    </style>
    <marker id="arrowhead" markerWidth="10" markerHeight="7" refX="9" refY="3.5" orient="auto">
      <polygon points="0 0, 10 3.5, 0 7" fill="#27ae60"/>
    </marker>
    <marker id="control-arrow" markerWidth="10" markerHeight="7" refX="9" refY="3.5" orient="auto">
      <polygon points="0 0, 10 3.5, 0 7" fill="#f39c12"/>
    </marker>
  </defs>
  
  <!-- Title -->
  <text x="450" y="30" text-anchor="middle" class="title">Error Control 시스템 아키텍처</text>
  
  <!-- Upper Layer Interface -->
  <rect x="50" y="60" width="800" height="40" class="layer" rx="5"/>
  <text x="450" y="85" text-anchor="middle" class="subtitle">상위 계층 인터페이스 (Network Layer / Application)</text>
  
  <!-- Main Error Control Layer -->
  <rect x="50" y="120" width="800" height="450" class="layer" rx="10"/>
  <text x="70" y="140" class="subtitle">Error Control 계층</text>
  
  <!-- Required Components Section -->
  <text x="70" y="165" class="subtitle" fill="#3498db">필수 구성요소</text>
  
  <!-- Error Detection Module -->
  <rect x="80" y="180" width="180" height="80" class="required" rx="8"/>
  <text x="170" y="200" text-anchor="middle" class="subtitle" fill="white">오류 감지 모듈</text>
  <text x="170" y="215" text-anchor="middle" class="text" fill="white">• CRC 검사기</text>
  <text x="170" y="230" text-anchor="middle" class="text" fill="white">• Checksum 계산기</text>
  <text x="170" y="245" text-anchor="middle" class="text" fill="white">• Parity 검사기</text>
  
  <!-- Error Correction Module -->
  <rect x="280" y="180" width="180" height="80" class="required" rx="8"/>
  <text x="370" y="200" text-anchor="middle" class="subtitle" fill="white">오류 수정 모듈</text>
  <text x="370" y="215" text-anchor="middle" class="text" fill="white">• ARQ 프로토콜</text>
  <text x="370" y="230" text-anchor="middle" class="text" fill="white">• FEC 디코더</text>
  <text x="370" y="245" text-anchor="middle" class="text" fill="white">• 하이브리드 처리기</text>
  
  <!-- Buffer Management -->
  <rect x="480" y="180" width="180" height="80" class="required" rx="8"/>
  <text x="570" y="200" text-anchor="middle" class="subtitle" fill="white">버퍼 관리 시스템</text>
  <text x="570" y="215" text-anchor="middle" class="text" fill="white">• 송신 버퍼</text>
  <text x="570" y="230" text-anchor="middle" class="text" fill="white">• 수신 버퍼</text>
  <text x="570" y="245" text-anchor="middle" class="text" fill="white">• 순서 재정렬 큐</text>
  
  <!-- Timer & Control System -->
  <rect x="680" y="180" width="150" height="80" class="required" rx="8"/>
  <text x="755" y="200" text-anchor="middle" class="subtitle" fill="white">타이머/제어</text>
  <text x="755" y="215" text-anchor="middle" class="text" fill="white">• 재전송 타이머</text>
  <text x="755" y="230" text-anchor="middle" class="text" fill="white">• 상태 관리기</text>
  <text x="755" y="245" text-anchor="middle" class="text" fill="white">• 흐름 제어기</text>
  
  <!-- Optional Components Section -->
  <text x="70" y="295" class="subtitle" fill="#95a5a6">선택 구성요소</text>
  
  <!-- Statistics & Monitoring -->
  <rect x="80" y="310" width="200" height="70" class="optional" rx="8"/>
  <text x="180" y="330" text-anchor="middle" class="subtitle" fill="white">통계/모니터링 모듈</text>
  <text x="180" y="345" text-anchor="middle" class="text" fill="white">• 오류율 측정</text>
  <text x="180" y="360" text-anchor="middle" class="text" fill="white">• 성능 지표 수집</text>
  <text x="180" y="375" text-anchor="middle" class="text" fill="white">• 로그 관리</text>
  
  <!-- Adaptive Control -->
  <rect x="300" y="310" width="200" height="70" class="optional" rx="8"/>
  <text x="400" y="330" text-anchor="middle" class="subtitle" fill="white">적응형 제어 모듈</text>
  <text x="400" y="345" text-anchor="middle" class="text" fill="white">• 동적 파라미터 조정</text>
  <text x="400" y="360" text-anchor="middle" class="text" fill="white">• 채널 상태 분석</text>
  <text x="400" y="375" text-anchor="middle" class="text" fill="white">• 최적화 엔진</text>
  
  <!-- Protocol Processing Engine -->
  <rect x="200" y="410" width="500" height="70" class="required" rx="8"/>
  <text x="450" y="430" text-anchor="middle" class="subtitle" fill="white">프로토콜 처리 엔진</text>
  <text x="300" y="450" text-anchor="middle" class="text" fill="white">• Stop-and-Wait</text>
  <text x="450" y="450" text-anchor="middle" class="text" fill="white">• Go-Back-N</text>
  <text x="600" y="450" text-anchor="middle" class="text" fill="white">• Selective Repeat</text>
  <text x="450" y="465" text-anchor="middle" class="text" fill="white">프로토콜별 세부 구현 로직</text>
  
  <!-- Lower Layer Interface -->
  <rect x="50" y="590" width="800" height="40" class="layer" rx="5"/>
  <text x="450" y="615" text-anchor="middle" class="subtitle">하위 계층 인터페이스 (Physical Layer)</text>
  
  <!-- Data Flow Arrows -->
  <path d="M 170 260 L 170 410" class="data-flow"/>
  <path d="M 370 260 L 370 410" class="data-flow"/>
  <path d="M 570 260 L 570 410" class="data-flow"/>
  <path d="M 755 260 L 450 410" class="data-flow" marker-end="url(#control-arrow)" stroke="#f39c12"/>
  
  <!-- Interface connections -->
  <path d="M 450 100 L 450 120" class="data-flow"/>
  <path d="M 450 480 L 450 590" class="data-flow"/>
  
  <!-- Internal connections -->
  <path d="M 260 220 L 280 220" class="data-flow"/>
  <path d="M 460 220 L 480 220" class="data-flow"/>
  <path d="M 660 220 L 680 220" class="data-flow"/>
  
  <!-- Legend -->
  <rect x="550" y="310" width="280" height="90" class="layer" rx="5"/>
  <text x="690" y="330" text-anchor="middle" class="subtitle">범례</text>
  <rect x="570" y="340" width="30" height="15" class="required"/>
  <text x="610" y="352" class="text">필수 구성요소</text>
  <rect x="570" y="360" width="30" height="15" class="optional"/>
  <text x="610" y="372" class="text">선택 구성요소</text>
  <line x1="730" y1="347" x2="760" y2="347" class="data-flow"/>
  <text x="770" y="352" class="text">데이터 흐름</text>
  <line x1="730" y1="367" x2="760" y2="367" stroke="#f39c12" stroke-width="2" marker-end="url(#control-arrow)"/>
  <text x="770" y="372" class="text">제어 흐름</text>
</svg>