<svg viewBox="0 0 900 600" xmlns="http://www.w3.org/2000/svg">
  <!-- 배경 -->
  <rect width="900" height="600" fill="#f8f8f8"/>
  
  <!-- 제목 -->
  <text x="450" y="30" font-family="Arial" font-size="24" font-weight="bold" text-anchor="middle">Git Flow 브랜치 생명주기 및 워크플로우</text>
  
  <!-- 시간축 -->
  <line x1="50" y1="550" x2="850" y2="550" stroke="#333" stroke-width="2"/>
  <text x="450" y="580" font-family="Arial" font-size="16" text-anchor="middle">시간 흐름</text>
  
  <!-- 마일스톤 표시 -->
  <line x1="150" y1="545" x2="150" y2="555" stroke="#333" stroke-width="2"/>
  <text x="150" y="570" font-family="Arial" font-size="12" text-anchor="middle">프로젝트 시작</text>
  
  <line x1="450" y1="545" x2="450" y2="555" stroke="#333" stroke-width="2"/>
  <text x="450" y="570" font-family="Arial" font-size="12" text-anchor="middle">릴리스 준비</text>
  
  <line x1="600" y1="545" x2="600" y2="555" stroke="#333" stroke-width="2"/>
  <text x="600" y="570" font-family="Arial" font-size="12" text-anchor="middle">v1.0.0 릴리스</text>
  
  <line x1="700" y1="545" x2="700" y2="555" stroke="#333" stroke-width="2"/>
  <text x="700" y="570" font-family="Arial" font-size="12" text-anchor="middle">핫픽스</text>
  
  <line x1="800" y1="545" x2="800" y2="555" stroke="#333" stroke-width="2"/>
  <text x="800" y="570" font-family="Arial" font-size="12" text-anchor="middle">v1.0.1 릴리스</text>
  
  <!-- master 브랜치 -->
  <line x1="100" y1="100" x2="850" y2="100" stroke="#e63946" stroke-width="4"/>
  <text x="70" y="105" font-family="Arial" font-size="16" font-weight="bold" fill="#e63946" text-anchor="end">master</text>
  
  <!-- 태그 표시 -->
  <circle cx="600" cy="100" r="8" fill="#e63946"/>
  <text x="600" y="85" font-family="Arial" font-size="12" text-anchor="middle">v1.0.0</text>
  
  <circle cx="800" cy="100" r="8" fill="#e63946"/>
  <text x="800" y="85" font-family="Arial" font-size="12" text-anchor="middle">v1.0.1</text>
  
  <!-- develop 브랜치 -->
  <line x1="150" y1="200" x2="850" y2="200" stroke="#1d3557" stroke-width="4"/>
  <text x="70" y="205" font-family="Arial" font-size="16" font-weight="bold" fill="#1d3557" text-anchor="end">develop</text>
  <path d="M150,100 Q150,150 150,200" fill="none" stroke="#1d3557" stroke-width="3"/>
  
  <!-- feature 브랜치들 -->
  <!-- feature/login -->
  <path d="M200,200 L200,250 L380,250 Q390,250 390,240 L390,200" fill="none" stroke="#2a9d8f" stroke-width="3"/>
  <text x="290" y="270" font-family="Arial" font-size="14" fill="#2a9d8f" text-anchor="middle">feature/login</text>
  <text x="290" y="290" font-family="Arial" font-size="12" fill="#555" text-anchor="middle">develop에서 분기 → 개발 → develop에 병합 → 삭제</text>
  
  <!-- feature/dashboard -->
  <path d="M250,200 L250,300 L420,300 Q430,300 430,290 L430,200" fill="none" stroke="#2a9d8f" stroke-width="3"/>
  <text x="335" y="320" font-family="Arial" font-size="14" fill="#2a9d8f" text-anchor="middle">feature/dashboard</text>
  
  <!-- feature/settings -->
  <path d="M300,200 L300,350 L450,350 Q460,350 460,340 L460,200" fill="none" stroke="#2a9d8f" stroke-width="3"/>
  <text x="375" y="370" font-family="Arial" font-size="14" fill="#2a9d8f" text-anchor="middle">feature/settings</text>
  
  <!-- release 브랜치 -->
  <path d="M480,200 L480,400 L600,400 Q600,400 600,350" fill="none" stroke="#f4a261" stroke-width="3"/>
  <path d="M600,350 L600,100" fill="none" stroke="#f4a261" stroke-width="3" stroke-dasharray="5,5"/>
  <path d="M600,350 Q610,300 620,200" fill="none" stroke="#f4a261" stroke-width="3" stroke-dasharray="5,5"/>
  <text x="540" y="420" font-family="Arial" font-size="14" fill="#f4a261" text-anchor="middle">release/1.0.0</text>
  <text x="540" y="440" font-family="Arial" font-size="12" fill="#555" text-anchor="middle">develop에서 분기 → 준비 → master와 develop에 병합 → 삭제</text>
  
  <!-- hotfix 브랜치 -->
  <path d="M680,100 L680,450 L750,450 Q760,450 760,440" fill="none" stroke="#e76f51" stroke-width="3"/>
  <path d="M760,440 L800,100" fill="none" stroke="#e76f51" stroke-width="3" stroke-dasharray="5,5"/>
  <path d="M760,440 Q780,350 800,200" fill="none" stroke="#e76f51" stroke-width="3" stroke-dasharray="5,5"/>
  <text x="720" y="470" font-family="Arial" font-size="14" fill="#e76f51" text-anchor="middle">hotfix/1.0.1</text>
  <text x="720" y="490" font-family="Arial" font-size="12" fill="#555" text-anchor="middle">master에서 분기 → 수정 → master와 develop에 병합 → 삭제</text>
  
  <!-- 범례 -->
  <rect x="50" y="500" width="800" height="30" fill="#ddd" rx="5"/>
  <text x="450" y="520" font-family="Arial" font-size="14" font-weight="bold" text-anchor="middle">브랜치 범례</text>
  
  <line x1="100" y1="520" x2="130" y2="520" stroke="#e63946" stroke-width="4"/>
  <text x="140" y="525" font-family="Arial" font-size="12">master: 항상 배포 가능한 상태 유지</text>
  
  <line x1="330" y1="520" x2="360" y2="520" stroke="#1d3557" stroke-width="4"/>
  <text x="370" y="525" font-family="Arial" font-size="12">develop: 개발 진행 상황 통합</text>
  
  <line x1="550" y1="520" x2="580" y2="520" stroke="#2a9d8f" stroke-width="4"/>
  <text x="590" y="525" font-family="Arial" font-size="12">feature: 기능 개발</text>
  
  <line x1="680" y1="520" x2="710" y2="520" stroke="#f4a261" stroke-width="4"/>
  <text x="720" y="525" font-family="Arial" font-size="12">release: 릴리스 준비</text>
  
  <line x1="800" y1="520" x2="830" y2="520" stroke="#e76f51" stroke-width="4"/>
  <text x="840" y="525" font-family="Arial" font-size="12">hotfix: 긴급 수정</text>
</svg>
