<svg viewBox="0 0 800 600" xmlns="http://www.w3.org/2000/svg" encoding="UTF-8">
  <style>
    .title-text { font-family: Arial, sans-serif; font-size: 18px; font-weight: bold; fill: #2c3e50; }
    .header-text { font-family: Arial, sans-serif; font-size: 12px; font-weight: bold; fill: white; }
    .content-text { font-family: Arial, sans-serif; font-size: 10px; fill: white; }
    .section-text { font-family: Arial, sans-serif; font-size: 14px; font-weight: bold; fill: #2c3e50; }
    .field-text { font-family: Arial, sans-serif; font-size: 8px; fill: white; }
  </style>
  <!-- 배경 -->
  <rect width="800" height="600" fill="#f8f9fa"/>
  
  <!-- 제목 -->
  <text x="400" y="30" text-anchor="middle" class="title-text">Internet Layer Packet Processing Flow</text>
  
  <!-- 송신자 영역 -->
  <rect x="50" y="80" width="150" height="100" fill="#3498db" stroke="#2980b9" stroke-width="2" rx="10"/>
  <text x="125" y="105" text-anchor="middle" class="header-text">Sender Host</text>
  <text x="125" y="125" text-anchor="middle" class="content-text">Application Data</text>
  <text x="125" y="140" text-anchor="middle" class="content-text">↓</text>
  <text x="125" y="155" text-anchor="middle" class="content-text">Add IP Header</text>
  
  <!-- 라우터 1 -->
  <rect x="300" y="80" width="120" height="100" fill="#e74c3c" stroke="#c0392b" stroke-width="2" rx="10"/>
  <text x="360" y="105" text-anchor="middle" class="header-text">Router 1</text>
  <text x="360" y="125" text-anchor="middle" class="content-text">Routing Table</text>
  <text x="360" y="140" text-anchor="middle" class="content-text">Path Decision</text>
  <text x="360" y="155" text-anchor="middle" class="content-text">TTL Decrease</text>
  
  <!-- 라우터 2 -->
  <rect x="500" y="80" width="120" height="100" fill="#e74c3c" stroke="#c0392b" stroke-width="2" rx="10"/>
  <text x="560" y="105" text-anchor="middle" class="header-text">Router 2</text>
  <text x="560" y="125" text-anchor="middle" class="content-text">Packet Fragment</text>
  <text x="560" y="140" text-anchor="middle" class="content-text">(if needed)</text>
  <text x="560" y="155" text-anchor="middle" class="content-text">Forward</text>
  
  <!-- 수신자 영역 -->
  <rect x="650" y="80" width="120" height="100" fill="#27ae60" stroke="#229954" stroke-width="2" rx="10"/>
  <text x="710" y="105" text-anchor="middle" class="header-text">Receiver Host</text>
  <text x="710" y="125" text-anchor="middle" class="content-text">Packet Reassembly</text>
  <text x="710" y="140" text-anchor="middle" class="content-text">Remove IP Header</text>
  <text x="710" y="155" text-anchor="middle" class="content-text">Forward to Upper Layer</text>
  
  <!-- 화살표들 -->
  <path d="M 200 130 L 290 130" stroke="#2c3e50" stroke-width="2" marker-end="url(#arrowhead)"/>
  <path d="M 420 130 L 490 130" stroke="#2c3e50" stroke-width="2" marker-end="url(#arrowhead)"/>
  <path d="M 620 130 L 640 130" stroke="#2c3e50" stroke-width="2" marker-end="url(#arrowhead)"/>
  
  <!-- IP 패킷 구조 -->
  <rect x="100" y="250" width="600" height="200" fill="#ecf0f1" stroke="#bdc3c7" stroke-width="2" rx="5"/>
  <text x="400" y="275" text-anchor="middle" class="section-text">IP Packet Structure</text>
  
  <!-- IP 헤더 -->
  <rect x="120" y="290" width="560" height="80" fill="#f39c12" stroke="#e67e22" stroke-width="1"/>
  <text x="400" y="315" text-anchor="middle" class="header-text">IP Header (20-60 bytes)</text>
  
  <!-- 헤더 필드들 -->
  <rect x="130" y="325" width="80" height="20" fill="#d68910" stroke="#b7711a" stroke-width="1"/>
  <text x="170" y="338" text-anchor="middle" class="field-text">Version</text>
  
  <rect x="210" y="325" width="80" height="20" fill="#d68910" stroke="#b7711a" stroke-width="1"/>
  <text x="250" y="338" text-anchor="middle" class="field-text">Header Len</text>
  
  <rect x="290" y="325" width="80" height="20" fill="#d68910" stroke="#b7711a" stroke-width="1"/>
  <text x="330" y="338" text-anchor="middle" class="field-text">ToS/DSCP</text>
  
  <rect x="370" y="325" width="100" height="20" fill="#d68910" stroke="#b7711a" stroke-width="1"/>
  <text x="420" y="338" text-anchor="middle" class="field-text">Total Length</text>
  
  <rect x="470" y="325" width="80" height="20" fill="#d68910" stroke="#b7711a" stroke-width="1"/>
  <text x="510" y="338" text-anchor="middle" class="field-text">ID</text>
  
  <rect x="550" y="325" width="120" height="20" fill="#d68910" stroke="#b7711a" stroke-width="1"/>
  <text x="610" y="338" text-anchor="middle" class="field-text">Flags &amp; Fragment</text>
  
  <rect x="130" y="345" width="80" height="20" fill="#d68910" stroke="#b7711a" stroke-width="1"/>
  <text x="170" y="358" text-anchor="middle" class="field-text">TTL</text>
  
  <rect x="210" y="345" width="80" height="20" fill="#d68910" stroke="#b7711a" stroke-width="1"/>
  <text x="250" y="358" text-anchor="middle" class="field-text">Protocol</text>
  
  <rect x="290" y="345" width="100" height="20" fill="#d68910" stroke="#b7711a" stroke-width="1"/>
  <text x="340" y="358" text-anchor="middle" class="field-text">Header Checksum</text>
  
  <rect x="390" y="345" width="140" height="20" fill="#d68910" stroke="#b7711a" stroke-width="1"/>
  <text x="460" y="358" text-anchor="middle" class="field-text">Source IP Address</text>
  
  <rect x="530" y="345" width="140" height="20" fill="#d68910" stroke="#b7711a" stroke-width="1"/>
  <text x="600" y="358" text-anchor="middle" class="field-text">Dest IP Address</text>
  
  <!-- 데이터 영역 -->
  <rect x="120" y="380" width="560" height="50" fill="#95a5a6" stroke="#7f8c8d" stroke-width="1"/>
  <text x="400" y="408" text-anchor="middle" class="header-text">Data (Payload)</text>
  
  <!-- ICMP 오류 처리 -->
  <rect x="50" y="480" width="200" height="80" fill="#8e44ad" stroke="#7d3c98" stroke-width="2" rx="10"/>
  <text x="150" y="505" text-anchor="middle" class="header-text">ICMP Error Control</text>
  <text x="150" y="525" text-anchor="middle" class="content-text">• Destination Unreachable</text>
  <text x="150" y="540" text-anchor="middle" class="content-text">• Time Exceeded</text>
  <text x="150" y="555" text-anchor="middle" class="content-text">• Parameter Problem</text>
  
  <!-- 라우팅 프로토콜 -->
  <rect x="300" y="480" width="200" height="80" fill="#16a085" stroke="#138d75" stroke-width="2" rx="10"/>
  <text x="400" y="505" text-anchor="middle" class="header-text">Routing Protocols</text>
  <text x="400" y="525" text-anchor="middle" class="content-text">• RIP (Distance Vector)</text>
  <text x="400" y="540" text-anchor="middle" class="content-text">• OSPF (Link State)</text>
  <text x="400" y="555" text-anchor="middle" class="content-text">• BGP (Path Vector)</text>
  
  <!-- IGMP -->
  <rect x="550" y="480" width="200" height="80" fill="#c0392b" stroke="#a93226" stroke-width="2" rx="10"/>
  <text x="650" y="505" text-anchor="middle" class="header-text">IGMP</text>
  <text x="650" y="525" text-anchor="middle" class="content-text">• Multicast Group Management</text>
  <text x="650" y="540" text-anchor="middle" class="content-text">• Join/Leave Messages</text>
  <text x="650" y="555" text-anchor="middle" class="content-text">• Query/Report</text>
  
  <!-- 화살표 마커 정의 -->
  <defs>
    <marker id="arrowhead" markerWidth="10" markerHeight="7" refX="9" refY="3.5" orient="auto">
      <polygon points="0 0, 10 3.5, 0 7" fill="#2c3e50"/>
    </marker>
  </defs>
</svg>