<svg viewBox="0 0 1000 700" xmlns="http://www.w3.org/2000/svg">
  <!-- 배경 -->
  <rect width="1000" height="700" fill="#f8f9fa"/>
  
  <!-- 제목 -->
  <text x="500" y="35" font-family="Arial, sans-serif" font-size="24" font-weight="bold" text-anchor="middle" fill="#2c3e50">웹 애플리케이션 모니터링 활용 시나리오</text>
  
  <!-- 사용자 시나리오 설명 -->
  <rect x="50" y="60" width="900" height="30" fill="#3498db" stroke="#2980b9" stroke-width="2" rx="5"/>
  <text x="500" y="78" font-family="Arial, sans-serif" font-size="14" text-anchor="middle" fill="white">시나리오: E-commerce 웹사이트의 블랙프라이데이 이벤트 기간 운영</text>
  
  <!-- 1단계: 정상 상태 모니터링 -->
  <rect x="50" y="110" width="300" height="200" fill="#ecf0f1" stroke="#bdc3c7" stroke-width="2" rx="10"/>
  <text x="200" y="135" font-family="Arial, sans-serif" font-size="16" font-weight="bold" text-anchor="middle" fill="#2c3e50">1단계: 정상 상태 모니터링</text>
  
  <!-- 정상 메트릭들 -->
  <rect x="70" y="150" width="260" height="30" fill="#27ae60" rx="5"/>
  <text x="200" y="168" font-family="Arial, sans-serif" font-size="12" text-anchor="middle" fill="white">페이지 로딩 시간: 0.5초</text>
  
  <rect x="70" y="185" width="260" height="30" fill="#27ae60" rx="5"/>
  <text x="200" y="203" font-family="Arial, sans-serif" font-size="12" text-anchor="middle" fill="white">서버 CPU 사용률: 45%</text>
  
  <rect x="70" y="220" width="260" height="30" fill="#27ae60" rx="5"/>
  <text x="200" y="238" font-family="Arial, sans-serif" font-size="12" text-anchor="middle" fill="white">동시 접속자: 5,000명</text>
  
  <rect x="70" y="255" width="260" height="30" fill="#27ae60" rx="5"/>
  <text x="200" y="273" font-family="Arial, sans-serif" font-size="12" text-anchor="middle" fill="white">에러율: 0.1%</text>
  
  <!-- 2단계: 트래픽 증가 감지 -->
  <rect x="370" y="110" width="300" height="200" fill="#ecf0f1" stroke="#bdc3c7" stroke-width="2" rx="10"/>
  <text x="520" y="135" font-family="Arial, sans-serif" font-size="16" font-weight="bold" text-anchor="middle" fill="#2c3e50">2단계: 증가 트래픽 감지</text>
  
  <!-- 변화 메트릭들 -->
  <rect x="390" y="150" width="260" height="30" fill="#f39c12" rx="5"/>
  <text x="520" y="168" font-family="Arial, sans-serif" font-size="12" text-anchor="middle" fill="white">페이지 로딩 시간: 1.2초 ↑</text>
  
  <rect x="390" y="185" width="260" height="30" fill="#f39c12" rx="5"/>
  <text x="520" y="203" font-family="Arial, sans-serif" font-size="12" text-anchor="middle" fill="white">서버 CPU 사용률: 85% ↑</text>
  
  <rect x="390" y="220" width="260" height="30" fill="#f39c12" rx="5"/>
  <text x="520" y="238" font-family="Arial, sans-serif" font-size="12" text-anchor="middle" fill="white">동시 접속자: 25,000명 ↑</text>
  
  <rect x="390" y="255" width="260" height="30" fill="#f39c12" rx="5"/>
  <text x="520" y="273" font-family="Arial, sans-serif" font-size="12" text-anchor="middle" fill="white">에러율: 0.5% ↑</text>
  
  <!-- 3단계: 긴급 상황 발생 -->
  <rect x="690" y="110" width="260" height="200" fill="#ecf0f1" stroke="#bdc3c7" stroke-width="2" rx="10"/>
  <text x="820" y="135" font-family="Arial, sans-serif" font-size="16" font-weight="bold" text-anchor="middle" fill="#2c3e50">3단계: 긴급 상황 발생</text>
  
  <!-- 위기 메트릭들 -->
  <rect x="710" y="150" width="220" height="30" fill="#e74c3c" rx="5"/>
  <text x="820" y="168" font-family="Arial, sans-serif" font-size="12" text-anchor="middle" fill="white">페이지 로딩 시간: 5초 ↑↑</text>
  
  <rect x="710" y="185" width="220" height="30" fill="#e74c3c" rx="5"/>
  <text x="820" y="203" font-family="Arial, sans-serif" font-size="12" text-anchor="middle" fill="white">서버 CPU 사용률: 98% ↑↑</text>
  
  <rect x="710" y="220" width="220" height="30" fill="#e74c3c" rx="5"/>
  <text x="820" y="238" font-family="Arial, sans-serif" font-size="12" text-anchor="middle" fill="white">동시 접속자: 50,000명 ↑↑</text>
  
  <rect x="710" y="255" width="220" height="30" fill="#e74c3c" rx="5"/>
  <text x="820" y="273" font-family="Arial, sans-serif" font-size="12" text-anchor="middle" fill="white">에러율: 5% ↑↑</text>
  
  <!-- 모니터링 알림 프로세스 -->
  <rect x="50" y="330" width="900" height="60" fill="#3498db" stroke="#2980b9" stroke-width="2" rx="10"/>
  <text x="500" y="355" font-family="Arial, sans-serif" font-size="16" font-weight="bold" text-anchor="middle" fill="white">모니터링 알림 시스템 활성화</text>
  
  <!-- 알림 유형들 -->
  <rect x="80" y="355" width="170" height="25" fill="#f39c12" rx="5"/>
  <text x="165" y="370" font-family="Arial, sans-serif" font-size="11" text-anchor="middle" fill="white">🔔 이메일 알림</text>
  
  <rect x="270" y="355" width="170" height="25" fill="#f39c12" rx="5"/>
  <text x="355" y="370" font-family="Arial, sans-serif" font-size="11" text-anchor="middle" fill="white">📱 SMS 알림</text>
  
  <rect x="460" y="355" width="170" height="25" fill="#e74c3c" rx="5"/>
  <text x="545" y="370" font-family="Arial, sans-serif" font-size="11" text-anchor="middle" fill="white">💬 Slack 긴급 채널</text>
  
  <rect x="650" y="355" width="170" height="25" fill="#e74c3c" rx="5"/>
  <text x="735" y="370" font-family="Arial, sans-serif" font-size="11" text-anchor="middle" fill="white">📞 자동 전화 알림</text>
  
  <!-- 대응 팀 활성화 -->
  <rect x="50" y="410" width="900" height="150" fill="#ecf0f1" stroke="#bdc3c7" stroke-width="2" rx="10"/>
  <text x="500" y="435" font-family="Arial, sans-serif" font-size="16" font-weight="bold" text-anchor="middle" fill="#2c3e50">대응 팀 역할별 행동</text>
  
  <!-- 팀별 대응 -->
  <rect x="80" y="450" width="200" height="90" fill="#3498db" rx="5"/>
  <text x="180" y="470" font-family="Arial, sans-serif" font-size="12" font-weight="bold" text-anchor="middle" fill="white">인프라 팀</text>
  <text x="180" y="485" font-family="Arial, sans-serif" font-size="10" text-anchor="middle" fill="white">• 자동 스케일링 확인</text>
  <text x="180" y="498" font-family="Arial, sans-serif" font-size="10" text-anchor="middle" fill="white">• 추가 서버 증설</text>
  <text x="180" y="511" font-family="Arial, sans-serif" font-size="10" text-anchor="middle" fill="white">• 로드밸런서 조정</text>
  <text x="180" y="524" font-family="Arial, sans-serif" font-size="10" text-anchor="middle" fill="white">• CDN 캐시 최적화</text>
  
  <rect x="300" y="450" width="200" height="90" fill="#27ae60" rx="5"/>
  <text x="400" y="470" font-family="Arial, sans-serif" font-size="12" font-weight="bold" text-anchor="middle" fill="white">개발 팀</text>
  <text x="400" y="485" font-family="Arial, sans-serif" font-size="10" text-anchor="middle" fill="white">• 쿼리 최적화</text>
  <text x="400" y="498" font-family="Arial, sans-serif" font-size="10" text-anchor="middle" fill="white">• 코드 긴급 수정</text>
  <text x="400" y="511" font-family="Arial, sans-serif" font-size="10" text-anchor="middle" fill="white">• 배치 작업 중단</text>
  <text x="400" y="524" font-family="Arial, sans-serif" font-size="10" text-anchor="middle" fill="white">• 비필수 기능 비활성화</text>
  
  <rect x="520" y="450" width="200" height="90" fill="#9b59b6" rx="5"/>
  <text x="620" y="470" font-family="Arial, sans-serif" font-size="12" font-weight="bold" text-anchor="middle" fill="white">운영 팀</text>
  <text x="620" y="485" font-family="Arial, sans-serif" font-size="10" text-anchor="middle" fill="white">• 사용자 공지</text>
  <text x="620" y="498" font-family="Arial, sans-serif" font-size="10" text-anchor="middle" fill="white">• 고객지원 대기</text>
  <text x="620" y="511" font-family="Arial, sans-serif" font-size="10" text-anchor="middle" fill="white">• 상황 모니터링</text>
  <text x="620" y="524" font-family="Arial, sans-serif" font-size="10" text-anchor="middle" fill="white">• 장애 상황실 운영</text>
  
  <rect x="740" y="450" width="200" height="90" fill="#e74c3c" rx="5"/>
  <text x="840" y="470" font-family="Arial, sans-serif" font-size="12" font-weight="bold" text-anchor="middle" fill="white">보안 팀</text>
  <text x="840" y="485" font-family="Arial, sans-serif" font-size="10" text-anchor="middle" fill="white">• DDoS 공격 검사</text>
  <text x="840" y="498" font-family="Arial, sans-serif" font-size="10" text-anchor="middle" fill="white">• WAF 규칙 적용</text>
  <text x="840" y="511" font-family="Arial, sans-serif" font-size="10" text-anchor="middle" fill="white">• 트래픽 패턴 분석</text>
  <text x="840" y="524" font-family="Arial, sans-serif" font-size="10" text-anchor="middle" fill="white">• 봇 트래픽 차단</text>
  
  <!-- 문제 해결 과정 -->
  <rect x="50" y="580" width="900" height="100" fill="#2ecc71" rx="10"/>
  <text x="500" y="605" font-family="Arial, sans-serif" font-size="16" font-weight="bold" text-anchor="middle" fill="white">문제 해결 및 결과</text>
  
  <!-- 해결 결과 -->
  <rect x="100" y="620" width="300" height="45" fill="#ecf0f1" rx="5"/>
  <text x="250" y="635" font-family="Arial, sans-serif" font-size="12" font-weight="bold" text-anchor="middle" fill="#2c3e50">15분 내 서버 증설 완료</text>
  <text x="250" y="648" font-family="Arial, sans-serif" font-size="10" text-anchor="middle" fill="#2c3e50">응답 시간 0.8초로 안정화</text>
  <text x="250" y="660" font-family="Arial, sans-serif" font-size="10" text-anchor="middle" fill="#2c3e50">고객 이탈 최소화</text>
  
  <rect x="420" y="620" width="300" height="45" fill="#ecf0f1" rx="5"/>
  <text x="570" y="635" font-family="Arial, sans-serif" font-size="12" font-weight="bold" text-anchor="middle" fill="#2c3e50">자동 스케일링 규칙 개선</text>
  <text x="570" y="648" font-family="Arial, sans-serif" font-size="10" text-anchor="middle" fill="#2c3e50">미래 이벤트 대비 용량 확보</text>
  <text x="570" y="660" font-family="Arial, sans-serif" font-size="10" text-anchor="middle" fill="#2c3e50">모니터링 임계값 조정</text>
  
  <rect x="740" y="620" width="220" height="45" fill="#ecf0f1" rx="5"/>
  <text x="850" y="635" font-family="Arial, sans-serif" font-size="12" font-weight="bold" text-anchor="middle" fill="#2c3e50">총 매출 증가 25%</text>
  <text x="850" y="648" font-family="Arial, sans-serif" font-size="10" text-anchor="middle" fill="#2c3e50">성공적 이벤트 완료</text>
  <text x="850" y="660" font-family="Arial, sans-serif" font-size="10" text-anchor="middle" fill="#2c3e50">고객 만족도 유지</text>
  
  <!-- 화살표 연결 -->
  <path d="M 350 210 L 370 210" stroke="#2c3e50" stroke-width="2" fill="none" marker-end="url(#arrowhead)"/>
  <path d="M 670 210 L 690 210" stroke="#2c3e50" stroke-width="2" fill="none" marker-end="url(#arrowhead)"/>
  <path d="M 820 310 L 820 330" stroke="#2c3e50" stroke-width="2" fill="none" marker-end="url(#arrowhead)"/>
  <path d="M 500 390 L 500 410" stroke="#2c3e50" stroke-width="2" fill="none" marker-end="url(#arrowhead)"/>
  <path d="M 500 560 L 500 580" stroke="#2c3e50" stroke-width="2" fill="none" marker-end="url(#arrowhead)"/>
  
  <!-- 화살표 마커 정의 -->
  <defs>
    <marker id="arrowhead" markerWidth="10" markerHeight="7" refX="0" refY="3.5" orient="auto">
      <polygon points="0 0, 10 3.5, 0 7" fill="#2c3e50"/>
    </marker>
  </defs>
</svg>