<svg xmlns="http://www.w3.org/2000/svg" viewBox="0 0 1200 1600">
  <!-- Background -->
  <defs>
    <linearGradient id="bgGradient" x1="0%" y1="0%" x2="100%" y2="100%">
      <stop offset="0%" style="stop-color:#667eea;stop-opacity:1" />
      <stop offset="100%" style="stop-color:#764ba2;stop-opacity:1" />
    </linearGradient>
    
    <linearGradient id="senderGrad" x1="0%" y1="0%" x2="100%" y2="100%">
      <stop offset="0%" style="stop-color:#4facfe;stop-opacity:1" />
      <stop offset="100%" style="stop-color:#00f2fe;stop-opacity:1" />
    </linearGradient>
    
    <linearGradient id="routingGrad" x1="0%" y1="0%" x2="100%" y2="100%">
      <stop offset="0%" style="stop-color:#43e97b;stop-opacity:1" />
      <stop offset="100%" style="stop-color:#38f9d7;stop-opacity:1" />
    </linearGradient>
    
    <linearGradient id="forwardingGrad" x1="0%" y1="0%" x2="100%" y2="100%">
      <stop offset="0%" style="stop-color:#fa709a;stop-opacity:1" />
      <stop offset="100%" style="stop-color:#fee140;stop-opacity:1" />
    </linearGradient>
    
    <linearGradient id="receiverGrad" x1="0%" y1="0%" x2="100%" y2="100%">
      <stop offset="0%" style="stop-color:#a8edea;stop-opacity:1" />
      <stop offset="100%" style="stop-color:#fed6e3;stop-opacity:1" />
    </linearGradient>
  </defs>
  
  <!-- Title -->
  <text x="600" y="50" text-anchor="middle" fill="#333" font-size="32" font-weight="bold" font-family="Arial, sans-serif">
    🌐 네트워크 계층 프로토콜 작동 원리
  </text>
  
  <!-- OSI 7 Layer Stack -->
  <rect x="50" y="100" width="500" height="300" fill="#f8f9fa" stroke="#667eea" stroke-width="3" rx="10"/>
  <text x="300" y="130" text-anchor="middle" fill="#333" font-size="18" font-weight="bold">OSI 7계층 모델에서의 위치</text>
  
  <rect x="70" y="150" width="460" height="25" fill="#e74c3c" rx="5"/>
  <text x="90" y="167" fill="white" font-size="14" font-weight="bold">7. 응용 계층 (Application Layer)</text>
  
  <rect x="70" y="180" width="460" height="25" fill="#e74c3c" rx="5"/>
  <text x="90" y="197" fill="white" font-size="14" font-weight="bold">6. 표현 계층 (Presentation Layer)</text>
  
  <rect x="70" y="210" width="460" height="25" fill="#e74c3c" rx="5"/>
  <text x="90" y="227" fill="white" font-size="14" font-weight="bold">5. 세션 계층 (Session Layer)</text>
  
  <rect x="70" y="240" width="460" height="25" fill="#f39c12" rx="5"/>
  <text x="90" y="257" fill="white" font-size="14" font-weight="bold">4. 전송 계층 (Transport Layer)</text>
  
  <rect x="70" y="270" width="460" height="25" fill="#27ae60" rx="5"/>
  <text x="90" y="287" fill="white" font-size="14" font-weight="bold">3. 네트워크 계층 (Network Layer) ← 여기!</text>
  
  <rect x="70" y="300" width="460" height="25" fill="#3498db" rx="5"/>
  <text x="90" y="317" fill="white" font-size="14" font-weight="bold">2. 데이터링크 계층 (Data Link Layer)</text>
  
  <rect x="70" y="330" width="460" height="25" fill="#9b59b6" rx="5"/>
  <text x="90" y="347" fill="white" font-size="14" font-weight="bold">1. 물리 계층 (Physical Layer)</text>
  
  <!-- Workflow Steps -->
  <!-- Step 1 -->
  <rect x="600" y="100" width="550" height="80" fill="url(#senderGrad)" rx="10"/>
  <circle cx="640" cy="140" r="25" fill="rgba(255,255,255,0.3)" stroke="rgba(255,255,255,0.5)" stroke-width="2"/>
  <text x="640" y="148" text-anchor="middle" fill="white" font-size="18" font-weight="bold">1</text>
  <text x="680" y="130" fill="white" font-size="18" font-weight="bold">패킷 생성 및 주소 지정</text>
  <text x="680" y="155" fill="white" font-size="14">송신 호스트에서 데이터를 패킷으로 분할하고 목적지 IP 주소를 헤더에 추가</text>
  
  <!-- Arrow 1 -->
  <text x="600" y="220" text-anchor="middle" fill="#667eea" font-size="30">↓</text>
  
  <!-- Step 2 -->
  <rect x="600" y="240" width="550" height="80" fill="url(#routingGrad)" rx="10"/>
  <circle cx="640" cy="280" r="25" fill="rgba(255,255,255,0.3)" stroke="rgba(255,255,255,0.5)" stroke-width="2"/>
  <text x="640" y="288" text-anchor="middle" fill="white" font-size="18" font-weight="bold">2</text>
  <text x="680" y="270" fill="white" font-size="18" font-weight="bold">라우팅 테이블 조회</text>
  <text x="680" y="295" fill="white" font-size="14">라우터가 라우팅 테이블을 참조하여 목적지까지의 최적 경로 결정</text>
  
  <!-- Arrow 2 -->
  <text x="600" y="360" text-anchor="middle" fill="#667eea" font-size="30">↓</text>
  
  <!-- Step 3 -->
  <rect x="600" y="380" width="550" height="80" fill="url(#forwardingGrad)" rx="10"/>
  <circle cx="640" cy="420" r="25" fill="rgba(255,255,255,0.3)" stroke="rgba(255,255,255,0.5)" stroke-width="2"/>
  <text x="640" y="428" text-anchor="middle" fill="white" font-size="18" font-weight="bold">3</text>
  <text x="680" y="410" fill="white" font-size="18" font-weight="bold">패킷 전달 (홉-바이-홉)</text>
  <text x="680" y="435" fill="white" font-size="14">각 라우터에서 다음 홉으로 패킷을 전달하며 TTL 값을 감소</text>
  
  <!-- Arrow 3 -->
  <text x="600" y="500" text-anchor="middle" fill="#667eea" font-size="30">↓</text>
  
  <!-- Step 4 -->
  <rect x="600" y="520" width="550" height="80" fill="url(#receiverGrad)" rx="10"/>
  <circle cx="640" cy="560" r="25" fill="rgba(255,255,255,0.3)" stroke="rgba(255,255,255,0.5)" stroke-width="2"/>
  <text x="640" y="568" text-anchor="middle" fill="white" font-size="18" font-weight="bold">4</text>
  <text x="680" y="550" fill="white" font-size="18" font-weight="bold">패킷 수신 및 처리</text>
  <text x="680" y="575" fill="white" font-size="14">목적지 호스트에서 패킷을 수신하고 상위 계층으로 전달</text>
  
  <!-- Packet Flow -->
  <rect x="50" y="650" width="1100" height="120" fill="url(#forwardingGrad)" rx="10" opacity="0.3"/>
  
  <rect x="100" y="680" width="80" height="60" fill="#667eea" rx="10"/>
  <text x="140" y="705" text-anchor="middle" fill="white" font-size="12" font-weight="bold">송신</text>
  <text x="140" y="720" text-anchor="middle" fill="white" font-size="12" font-weight="bold">호스트</text>
  
  <line x1="190" y1="710" x2="250" y2="710" stroke="#333" stroke-width="3"/>
  <text x="260" y="718" fill="#333" font-size="20">→</text>
  
  <rect x="280" y="680" width="80" height="60" fill="#fa709a" rx="10"/>
  <text x="320" y="705" text-anchor="middle" fill="white" font-size="12" font-weight="bold">라우터</text>
  <text x="320" y="720" text-anchor="middle" fill="white" font-size="12" font-weight="bold">A</text>
  
  <line x1="370" y1="710" x2="430" y2="710" stroke="#333" stroke-width="3"/>
  <text x="440" y="718" fill="#333" font-size="20">→</text>
  
  <rect x="460" y="680" width="80" height="60" fill="#fa709a" rx="10"/>
  <text x="500" y="705" text-anchor="middle" fill="white" font-size="12" font-weight="bold">라우터</text>
  <text x="500" y="720" text-anchor="middle" fill="white" font-size="12" font-weight="bold">B</text>
  
  <line x1="550" y1="710" x2="610" y2="710" stroke="#333" stroke-width="3"/>
  <text x="620" y="718" fill="#333" font-size="20">→</text>
  
  <rect x="640" y="680" width="80" height="60" fill="#fa709a" rx="10"/>
  <text x="680" y="705" text-anchor="middle" fill="white" font-size="12" font-weight="bold">라우터</text>
  <text x="680" y="720" text-anchor="middle" fill="white" font-size="12" font-weight="bold">C</text>
  
  <line x1="730" y1="710" x2="790" y2="710" stroke="#333" stroke-width="3"/>
  <text x="800" y="718" fill="#333" font-size="20">→</text>
  
  <rect x="820" y="680" width="80" height="60" fill="#667eea" rx="10"/>
  <text x="860" y="705" text-anchor="middle" fill="white" font-size="12" font-weight="bold">수신</text>
  <text x="860" y="720" text-anchor="middle" fill="white" font-size="12" font-weight="bold">호스트</text>
  
  <!-- Features -->
  <rect x="50" y="820" width="250" height="120" fill="url(#bgGradient)" rx="10"/>
  <text x="175" y="850" text-anchor="middle" fill="white" font-size="16" font-weight="bold">📍 주소 지정</text>
  <text x="70" y="875" fill="white" font-size="12">논리적 IP 주소를 사용하여</text>
  <text x="70" y="895" fill="white" font-size="12">네트워크상의 호스트를</text>
  <text x="70" y="915" fill="white" font-size="12">고유하게 식별</text>
  
  <rect x="320" y="820" width="250" height="120" fill="url(#bgGradient)" rx="10"/>
  <text x="445" y="850" text-anchor="middle" fill="white" font-size="16" font-weight="bold">🗺️ 경로 결정</text>
  <text x="340" y="875" fill="white" font-size="12">라우팅 알고리즘을 통해</text>
  <text x="340" y="895" fill="white" font-size="12">패킷이 목적지까지 가는</text>
  <text x="340" y="915" fill="white" font-size="12">최적 경로를 동적으로 결정</text>
  
  <rect x="590" y="820" width="250" height="120" fill="url(#bgGradient)" rx="10"/>
  <text x="715" y="850" text-anchor="middle" fill="white" font-size="16" font-weight="bold">📦 패킷 전달</text>
  <text x="610" y="875" fill="white" font-size="12">홉-바이-홉 방식으로</text>
  <text x="610" y="895" fill="white" font-size="12">패킷을 다음 라우터로</text>
  <text x="610" y="915" fill="white" font-size="12">순차적으로 전달</text>
  
  <rect x="860" y="820" width="250" height="120" fill="url(#bgGradient)" rx="10"/>
  <text x="985" y="850" text-anchor="middle" fill="white" font-size="16" font-weight="bold">⚠️ 오류 처리</text>
  <text x="880" y="875" fill="white" font-size="12">ICMP를 통해 네트워크</text>
  <text x="880" y="895" fill="white" font-size="12">오류 상황을 송신자에게</text>
  <text x="880" y="915" fill="white" font-size="12">보고</text>
</svg>