<svg viewBox="0 0 1000 800" xmlns="http://www.w3.org/2000/svg">
  <!-- 배경 -->
  <rect width="1000" height="800" fill="#f8f9fa"/>
  
  <!-- 제목 -->
  <text x="500" y="35" font-family="Arial, sans-serif" font-size="24" font-weight="bold" text-anchor="middle" fill="#2c3e50">관찰 가능성 방법론 아키텍처</text>
  
  <!-- 레이어 구분 -->
  <!-- 1. Application/Service Layer -->
  <rect x="50" y="70" width="900" height="150" fill="#3498db" rx="10"/>
  <text x="500" y="95" font-family="Arial, sans-serif" font-size="18" font-weight="bold" text-anchor="middle" fill="white">Application/Service Layer</text>
  
  <!-- Service 박스들 -->
  <rect x="100" y="120" width="160" height="80" fill="#ecf0f1" rx="5"/>
  <text x="180" y="135" font-family="Arial, sans-serif" font-size="12" font-weight="bold" text-anchor="middle" fill="#2c3e50">Service A</text>
  <text x="180" y="155" font-family="Arial, sans-serif" font-size="11" text-anchor="middle" fill="#2c3e50">RED Method</text>
  <text x="180" y="170" font-family="Arial, sans-serif" font-size="10" text-anchor="middle" fill="#2c3e50">Rate: 1000 RPS</text>
  <text x="180" y="183" font-family="Arial, sans-serif" font-size="10" text-anchor="middle" fill="#2c3e50">Error: 0.1%</text>
  <text x="180" y="196" font-family="Arial, sans-serif" font-size="10" text-anchor="middle" fill="#2c3e50">Duration: 50ms p99</text>
  
  <rect x="280" y="120" width="160" height="80" fill="#ecf0f1" rx="5"/>
  <text x="360" y="135" font-family="Arial, sans-serif" font-size="12" font-weight="bold" text-anchor="middle" fill="#2c3e50">Service B</text>
  <text x="360" y="155" font-family="Arial, sans-serif" font-size="11" text-anchor="middle" fill="#2c3e50">Golden Signals</text>
  <text x="360" y="170" font-family="Arial, sans-serif" font-size="10" text-anchor="middle" fill="#2c3e50">Latency: 20ms p50</text>
  <text x="360" y="183" font-family="Arial, sans-serif" font-size="10" text-anchor="middle" fill="#2c3e50">Traffic: 500 QPS</text>
  <text x="360" y="196" font-family="Arial, sans-serif" font-size="10" text-anchor="middle" fill="#2c3e50">Errors: 0.05%</text>
  
  <rect x="460" y="120" width="160" height="80" fill="#ecf0f1" rx="5"/>
  <text x="540" y="135" font-family="Arial, sans-serif" font-size="12" font-weight="bold" text-anchor="middle" fill="#2c3e50">Service C</text>
  <text x="540" y="155" font-family="Arial, sans-serif" font-size="11" text-anchor="middle" fill="#2c3e50">RED Method</text>
  <text x="540" y="170" font-family="Arial, sans-serif" font-size="10" text-anchor="middle" fill="#2c3e50">Rate: 300 RPS</text>
  <text x="540" y="183" font-family="Arial, sans-serif" font-size="10" text-anchor="middle" fill="#2c3e50">Error: 0.2%</text>
  <text x="540" y="196" font-family="Arial, sans-serif" font-size="10" text-anchor="middle" fill="#2c3e50">Duration: 80ms p99</text>
  
  <rect x="740" y="120" width="160" height="80" fill="#ecf0f1" rx="5"/>
  <text x="820" y="135" font-family="Arial, sans-serif" font-size="12" font-weight="bold" text-anchor="middle" fill="#2c3e50">API Gateway</text>
  <text x="820" y="155" font-family="Arial, sans-serif" font-size="11" text-anchor="middle" fill="#2c3e50">Golden Signals</text>
  <text x="820" y="170" font-family="Arial, sans-serif" font-size="10" text-anchor="middle" fill="#2c3e50">Latency: 100ms p95</text>
  <text x="820" y="183" font-family="Arial, sans-serif" font-size="10" text-anchor="middle" fill="#2c3e50">Traffic: 2000 RPS</text>
  <text x="820" y="196" font-family="Arial, sans-serif" font-size="10" text-anchor="middle" fill="#2c3e50">Saturation: 65%</text>
  
  <!-- 2. Infrastructure Layer -->
  <rect x="50" y="250" width="900" height="150" fill="#27ae60" rx="10"/>
  <text x="500" y="275" font-family="Arial, sans-serif" font-size="18" font-weight="bold" text-anchor="middle" fill="white">Infrastructure Layer</text>
  
  <!-- Infrastructure 박스들 -->
  <rect x="100" y="300" width="200" height="80" fill="#ecf0f1" rx="5"/>
  <text x="200" y="315" font-family="Arial, sans-serif" font-size="12" font-weight="bold" text-anchor="middle" fill="#2c3e50">CPU/Memory</text>
  <text x="200" y="335" font-family="Arial, sans-serif" font-size="11" text-anchor="middle" fill="#2c3e50">USE Method</text>
  <text x="200" y="350" font-family="Arial, sans-serif" font-size="10" text-anchor="middle" fill="#2c3e50">Utilization: 75%</text>
  <text x="200" y="363" font-family="Arial, sans-serif" font-size="10" text-anchor="middle" fill="#2c3e50">Saturation: 2 queue</text>
  <text x="200" y="376" font-family="Arial, sans-serif" font-size="10" text-anchor="middle" fill="#2c3e50">Errors: 0</text>
  
  <rect x="320" y="300" width="200" height="80" fill="#ecf0f1" rx="5"/>
  <text x="420" y="315" font-family="Arial, sans-serif" font-size="12" font-weight="bold" text-anchor="middle" fill="#2c3e50">Network</text>
  <text x="420" y="335" font-family="Arial, sans-serif" font-size="11" text-anchor="middle" fill="#2c3e50">USE Method</text>
  <text x="420" y="350" font-family="Arial, sans-serif" font-size="10" text-anchor="middle" fill="#2c3e50">Utilization: 45%</text>
  <text x="420" y="363" font-family="Arial, sans-serif" font-size="10" text-anchor="middle" fill="#2c3e50">Saturation: 0</text>
  <text x="420" y="376" font-family="Arial, sans-serif" font-size="10" text-anchor="middle" fill="#2c3e50">Errors: 12 packets</text>
  
  <rect x="540" y="300" width="200" height="80" fill="#ecf0f1" rx="5"/>
  <text x="640" y="315" font-family="Arial, sans-serif" font-size="12" font-weight="bold" text-anchor="middle" fill="#2c3e50">Storage/Disk</text>
  <text x="640" y="335" font-family="Arial, sans-serif" font-size="11" text-anchor="middle" fill="#2c3e50">USE Method</text>
  <text x="640" y="350" font-family="Arial, sans-serif" font-size="10" text-anchor="middle" fill="#2c3e50">Utilization: 90%</text>
  <text x="640" y="363" font-family="Arial, sans-serif" font-size="10" text-anchor="middle" fill="#2c3e50">Saturation: 5 I/O wait</text>
  <text x="640" y="376" font-family="Arial, sans-serif" font-size="10" text-anchor="middle" fill="#2c3e50">Errors: 3 read failures</text>
  
  <rect x="760" y="300" width="140" height="80" fill="#ecf0f1" rx="5"/>
  <text x="830" y="315" font-family="Arial, sans-serif" font-size="12" font-weight="bold" text-anchor="middle" fill="#2c3e50">Container</text>
  <text x="830" y="335" font-family="Arial, sans-serif" font-size="11" text-anchor="middle" fill="#2c3e50">USE + Golden</text>
  <text x="830" y="350" font-family="Arial, sans-serif" font-size="10" text-anchor="middle" fill="#2c3e50">CPU: 60%</text>
  <text x="830" y="363" font-family="Arial, sans-serif" font-size="10" text-anchor="middle" fill="#2c3e50">Memory: 1.2GB</text>
  <text x="830" y="376" font-family="Arial, sans-serif" font-size="10" text-anchor="middle" fill="#2c3e50">Restart: 0</text>
  
  <!-- 3. Data Collection Layer -->
  <rect x="50" y="430" width="900" height="100" fill="#9b59b6" rx="10"/>
  <text x="500" y="455" font-family="Arial, sans-serif" font-size="18" font-weight="bold" text-anchor="middle" fill="white">Data Collection & Processing Layer</text>
  
  <!-- Collection 컴포넌트들 -->
  <rect x="120" y="475" width="140" height="40" fill="#ecf0f1" rx="5"/>
  <text x="190" y="495" font-family="Arial, sans-serif" font-size="12" text-anchor="middle" fill="#2c3e50">Prometheus</text>
  
  <rect x="280" y="475" width="140" height="40" fill="#ecf0f1" rx="5"/>
  <text x="350" y="495" font-family="Arial, sans-serif" font-size="12" text-anchor="middle" fill="#2c3e50">OpenTelemetry</text>
  
  <rect x="440" y="475" width="140" height="40" fill="#ecf0f1" rx="5"/>
  <text x="510" y="495" font-family="Arial, sans-serif" font-size="12" text-anchor="middle" fill="#2c3e50">DataDog</text>
  
  <rect x="600" y="475" width="140" height="40" fill="#ecf0f1" rx="5"/>
  <text x="670" y="495" font-family="Arial, sans-serif" font-size="12" text-anchor="middle" fill="#2c3e50">New Relic</text>
  
  <rect x="760" y="475" width="140" height="40" fill="#ecf0f1" rx="5"/>
  <text x="830" y="495" font-family="Arial, sans-serif" font-size="12" text-anchor="middle" fill="#2c3e50">Grafana Agent</text>
  
  <!-- 4. Analysis & Visualization Layer -->
  <rect x="50" y="560" width="900" height="160" fill="#f39c12" rx="10"/>
  <text x="500" y="585" font-family="Arial, sans-serif" font-size="18" font-weight="bold" text-anchor="middle" fill="white">Analysis & Visualization Layer</text>
  
  <!-- 방법론별 대시보드 -->
  <rect x="100" y="610" width="250" height="90" fill="#ecf0f1" rx="5"/>
  <text x="225" y="625" font-family="Arial, sans-serif" font-size="13" font-weight="bold" text-anchor="middle" fill="#2c3e50">RED Dashboard</text>
  <text x="225" y="640" font-family="Arial, sans-serif" font-size="11" text-anchor="middle" fill="#2c3e50">마이크로서비스 모니터링</text>
  <text x="225" y="655" font-family="Arial, sans-serif" font-size="10" text-anchor="middle" fill="#2c3e50">• Request Rate</text>
  <text x="225" y="668" font-family="Arial, sans-serif" font-size="10" text-anchor="middle" fill="#2c3e50">• Error Rate</text>
  <text x="225" y="681" font-family="Arial, sans-serif" font-size="10" text-anchor="middle" fill="#2c3e50">• Request Duration</text>
  <text x="225" y="694" font-family="Arial, sans-serif" font-size="10" text-anchor="middle" fill="#2c3e50">• Service Health</text>
  
  <rect x="370" y="610" width="250" height="90" fill="#ecf0f1" rx="5"/>
  <text x="495" y="625" font-family="Arial, sans-serif" font-size="13" font-weight="bold" text-anchor="middle" fill="#2c3e50">Golden Signals Dashboard</text>
  <text x="495" y="640" font-family="Arial, sans-serif" font-size="11" text-anchor="middle" fill="#2c3e50">종합 시스템 관찰</text>
  <text x="495" y="655" font-family="Arial, sans-serif" font-size="10" text-anchor="middle" fill="#2c3e50">• Latency Distribution</text>
  <text x="495" y="668" font-family="Arial, sans-serif" font-size="10" text-anchor="middle" fill="#2c3e50">• Traffic Patterns</text>
  <text x="495" y="681" font-family="Arial, sans-serif" font-size="10" text-anchor="middle" fill="#2c3e50">• Error Analysis</text>
  <text x="495" y="694" font-family="Arial, sans-serif" font-size="10" text-anchor="middle" fill="#2c3e50">• Saturation Alerts</text>
  
  <rect x="640" y="610" width="250" height="90" fill="#ecf0f1" rx="5"/>
  <text x="765" y="625" font-family="Arial, sans-serif" font-size="13" font-weight="bold" text-anchor="middle" fill="#2c3e50">USE Dashboard</text>
  <text x="765" y="640" font-family="Arial, sans-serif" font-size="11" text-anchor="middle" fill="#2c3e50">인프라 리소스 분석</text>
  <text x="765" y="655" font-family="Arial, sans-serif" font-size="10" text-anchor="middle" fill="#2c3e50">• Resource Utilization</text>
  <text x="765" y="668" font-family="Arial, sans-serif" font-size="10" text-anchor="middle" fill="#2c3e50">• Queue Lengths</text>
  <text x="765" y="681" font-family="Arial, sans-serif" font-size="10" text-anchor="middle" fill="#2c3e50">• Error Tracking</text>
  <text x="765" y="694" font-family="Arial, sans-serif" font-size="10" text-anchor="middle" fill="#2c3e50">• Bottleneck Detection</text>
  
  <!-- 5. Decision Layer -->
  <rect x="50" y="740" width="900" height="50" fill="#34495e" rx="10"/>
  <text x="500" y="765" font-family="Arial, sans-serif" font-size="18" font-weight="bold" text-anchor="middle" fill="white">Action & Decision Layer</text>
  
  <!-- Decision 컴포넌트들 -->
  <rect x="150" y="765" width="120" height="20" fill="#ecf0f1" rx="5"/>
  <text x="210" y="778" font-family="Arial, sans-serif" font-size="10" text-anchor="middle" fill="#2c3e50">알림 & 페이징</text>
  
  <rect x="290" y="765" width="120" height="20" fill="#ecf0f1" rx="5"/>
  <text x="350" y="778" font-family="Arial, sans-serif" font-size="10" text-anchor="middle" fill="#2c3e50">자동 스케일링</text>
  
  <rect x="430" y="765" width="120" height="20" fill="#ecf0f1" rx="5"/>
  <text x="490" y="778" font-family="Arial, sans-serif" font-size="10" text-anchor="middle" fill="#2c3e50">용량 계획</text>
  
  <rect x="570" y="765" width="120" height="20" fill="#ecf0f1" rx="5"/>
  <text x="630" y="778" font-family="Arial, sans-serif" font-size="10" text-anchor="middle" fill="#2c3e50">성능 최적화</text>
  
  <rect x="710" y="765" width="120" height="20" fill="#ecf0f1" rx="5"/>
  <text x="770" y="778" font-family="Arial, sans-serif" font-size="10" text-anchor="middle" fill="#2c3e50">장애 대응</text>
  
  <!-- 연결선 -->
  <g stroke="#34495e" stroke-width="2" fill="none">
    <!-- Service to Infrastructure -->
    <path d="M 180 200 L 180 250"/>
    <path d="M 360 200 L 360 250"/>
    <path d="M 540 200 L 540 250"/>
    <path d="M 820 200 L 820 250"/>
    
    <!-- Infrastructure to Collection -->
    <path d="M 180 400 L 190 430"/>
    <path d="M 420 380 L 350 430"/>
    <path d="M 640 380 L 510 430"/>
    <path d="M 830 380 L 830 430"/>
    
    <!-- Collection to Analysis -->
    <path d="M 190 515 L 225 560"/>
    <path d="M 350 515 L 495 560"/>
    <path d="M 510 515 L 765 560"/>
    <path d="M 830 515 L 765 560"/>
    
    <!-- Analysis to Decision -->
    <path d="M 225 700 L 225 740"/>
    <path d="M 495 700 L 495 740"/>
    <path d="M 765 700 L 765 740"/>
  </g>
  
  <!-- 화살표 마커 -->
  <defs>
    <marker id="arrowhead" markerWidth="10" markerHeight="7" refX="0" refY="3.5" orient="auto">
      <polygon points="0 0, 10 3.5, 0 7" fill="#34495e"/>
    </marker>
  </defs>
</svg>