<svg viewBox="0 0 800 600" xmlns="http://www.w3.org/2000/svg">
  <!-- Background -->
  <rect width="800" height="600" fill="#f8f9fa"/>
  
  <!-- Title -->
  <text x="400" y="30" text-anchor="middle" font-size="20" font-weight="bold" fill="#333">PCB와 문맥교환(Context Switching) 작동 원리</text>
  
  <!-- Timeline -->
  <line x1="50" y1="500" x2="750" y2="500" stroke="#666" stroke-width="2"/>
  <text x="50" y="520" font-size="12" fill="#666">시간</text>
  
  <!-- Process A execution phase -->
  <rect x="80" y="100" width="200" height="60" fill="#4CAF50" stroke="#2E7D32" stroke-width="2" rx="5"/>
  <text x="180" y="125" text-anchor="middle" font-size="14" font-weight="bold" fill="white">프로세스 A 실행</text>
  <text x="180" y="145" text-anchor="middle" font-size="12" fill="white">CPU 사용 중</text>
  
  <!-- Interrupt -->
  <rect x="300" y="80" width="80" height="40" fill="#FF5722" stroke="#D84315" stroke-width="2" rx="5"/>
  <text x="340" y="95" text-anchor="middle" font-size="10" font-weight="bold" fill="white">인터럽트</text>
  <text x="340" y="110" text-anchor="middle" font-size="10" fill="white">발생</text>
  
  <!-- PCB A Save -->
  <rect x="80" y="200" width="200" height="80" fill="#2196F3" stroke="#1565C0" stroke-width="2" rx="5"/>
  <text x="180" y="220" text-anchor="middle" font-size="12" font-weight="bold" fill="white">PCB A에 상태 저장</text>
  <text x="180" y="240" text-anchor="middle" font-size="10" fill="white">• 레지스터 값</text>
  <text x="180" y="255" text-anchor="middle" font-size="10" fill="white">• 프로그램 카운터</text>
  <text x="180" y="270" text-anchor="middle" font-size="10" fill="white">• 프로세스 상태</text>
  
  <!-- Context Switch -->
  <rect x="320" y="200" width="120" height="80" fill="#9C27B0" stroke="#6A1B9A" stroke-width="2" rx="5"/>
  <text x="380" y="220" text-anchor="middle" font-size="12" font-weight="bold" fill="white">문맥교환</text>
  <text x="380" y="240" text-anchor="middle" font-size="10" fill="white">Context</text>
  <text x="380" y="255" text-anchor="middle" font-size="10" fill="white">Switching</text>
  <text x="380" y="270" text-anchor="middle" font-size="10" fill="white">수행</text>
  
  <!-- PCB B Load -->
  <rect x="480" y="200" width="200" height="80" fill="#FF9800" stroke="#F57C00" stroke-width="2" rx="5"/>
  <text x="580" y="220" text-anchor="middle" font-size="12" font-weight="bold" fill="white">PCB B에서 상태 복원</text>
  <text x="580" y="240" text-anchor="middle" font-size="10" fill="white">• 레지스터 값 복원</text>
  <text x="580" y="255" text-anchor="middle" font-size="10" fill="white">• 프로그램 카운터 복원</text>
  <text x="580" y="270" text-anchor="middle" font-size="10" fill="white">• CPU에 상태 적재</text>
  
  <!-- Process B execution phase -->
  <rect x="480" y="100" width="200" height="60" fill="#607D8B" stroke="#37474F" stroke-width="2" rx="5"/>
  <text x="580" y="125" text-anchor="middle" font-size="14" font-weight="bold" fill="white">프로세스 B 실행</text>
  <text x="580" y="145" text-anchor="middle" font-size="12" fill="white">CPU 사용 중</text>
  
  <!-- PCB Storage Area -->
  <rect x="50" y="320" width="700" height="150" fill="#E8F5E8" stroke="#4CAF50" stroke-width="2" rx="10"/>
  <text x="400" y="340" text-anchor="middle" font-size="16" font-weight="bold" fill="#2E7D32">PCB 저장 영역 (커널 메모리)</text>
  
  <!-- PCB A -->
  <rect x="80" y="360" width="160" height="100" fill="#BBDEFB" stroke="#1976D2" stroke-width="2" rx="5"/>
  <text x="160" y="380" text-anchor="middle" font-size="12" font-weight="bold" fill="#1976D2">PCB A</text>
  <text x="160" y="395" text-anchor="middle" font-size="10" fill="#1976D2">PID: 1001</text>
  <text x="160" y="410" text-anchor="middle" font-size="10" fill="#1976D2">상태: READY</text>
  <text x="160" y="425" text-anchor="middle" font-size="10" fill="#1976D2">PC: 0x2000</text>
  <text x="160" y="440" text-anchor="middle" font-size="10" fill="#1976D2">레지스터 값들</text>
  
  <!-- PCB B -->
  <rect x="280" y="360" width="160" height="100" fill="#FFE0B2" stroke="#F57C00" stroke-width="2" rx="5"/>
  <text x="360" y="380" text-anchor="middle" font-size="12" font-weight="bold" fill="#F57C00">PCB B</text>
  <text x="360" y="395" text-anchor="middle" font-size="10" fill="#F57C00">PID: 1002</text>
  <text x="360" y="410" text-anchor="middle" font-size="10" fill="#F57C00">상태: RUNNING</text>
  <text x="360" y="425" text-anchor="middle" font-size="10" fill="#F57C00">PC: 0x3000</text>
  <text x="360" y="440" text-anchor="middle" font-size="10" fill="#F57C00">레지스터 값들</text>
  
  <!-- PCB C -->
  <rect x="480" y="360" width="160" height="100" fill="#E1BEE7" stroke="#8E24AA" stroke-width="2" rx="5"/>
  <text x="560" y="380" text-anchor="middle" font-size="12" font-weight="bold" fill="#8E24AA">PCB C</text>
  <text x="560" y="395" text-anchor="middle" font-size="10" fill="#8E24AA">PID: 1003</text>
  <text x="560" y="410" text-anchor="middle" font-size="10" fill="#8E24AA">상태: BLOCKED</text>
  <text x="560" y="425" text-anchor="middle" font-size="10" fill="#8E24AA">PC: 0x4000</text>
  <text x="560" y="440" text-anchor="middle" font-size="10" fill="#8E24AA">레지스터 값들</text>
  
  <!-- Arrows -->
  <!-- A to PCB A -->
  <path d="M 180 160 L 160 200" stroke="#333" stroke-width="2" fill="none" marker-end="url(#arrowhead)"/>
  
  <!-- PCB A to Context Switch -->
  <path d="M 280 240 L 320 240" stroke="#333" stroke-width="2" fill="none" marker-end="url(#arrowhead)"/>
  
  <!-- Context Switch to PCB B -->
  <path d="M 440 240 L 480 240" stroke="#333" stroke-width="2" fill="none" marker-end="url(#arrowhead)"/>
  
  <!-- PCB B to B -->
  <path d="M 580 200 L 580 160" stroke="#333" stroke-width="2" fill="none" marker-end="url(#arrowhead)"/>
  
  <!-- Arrow marker definition -->
  <defs>
    <marker id="arrowhead" markerWidth="10" markerHeight="7" refX="9" refY="3.5" orient="auto">
      <polygon points="0 0, 10 3.5, 0 7" fill="#333"/>
    </marker>
  </defs>
  
  <!-- Step labels -->
  <text x="180" y="190" text-anchor="middle" font-size="10" font-weight="bold" fill="#333">1. 상태 저장</text>
  <text x="380" y="190" text-anchor="middle" font-size="10" font-weight="bold" fill="#333">2. 문맥교환</text>
  <text x="580" y="190" text-anchor="middle" font-size="10" font-weight="bold" fill="#333">3. 상태 복원</text>
  
</svg>