<svg viewBox="0 0 1000 800" xmlns="http://www.w3.org/2000/svg">
  <!-- 배경 -->
  <rect width="1000" height="800" fill="#f5f5f5" rx="10" ry="10"/>
  
  <!-- 제목 -->
  <text x="500" y="40" font-family="Arial" font-size="24" font-weight="bold" text-anchor="middle" fill="#333">버전 관리 시스템 작동 원리 통합 다이어그램</text>
  
  <!-- 스냅샷 vs 델타 저장 비교 -->
  <rect x="50" y="70" width="900" height="200" fill="#fff" stroke="#ddd" stroke-width="2" rx="10" ry="10"/>
  <text x="500" y="95" font-family="Arial" font-size="18" font-weight="bold" text-anchor="middle" fill="#333">1. 스냅샷 vs 델타 기반 저장</text>
  
  <!-- Git (스냅샷) -->
  <rect x="100" y="110" width="350" height="140" fill="#e1f5fe" stroke="#81d4fa" stroke-width="2" rx="8" ry="8"/>
  <text x="275" y="130" font-family="Arial" font-size="16" font-weight="bold" text-anchor="middle" fill="#0277bd">Git (스냅샷 방식)</text>
  
  <!-- 스냅샷 시각화 -->
  <rect x="120" y="145" width="60" height="80" fill="#bbdefb" stroke="#64b5f6" stroke-width="1"/>
  <text x="150" y="170" font-family="Arial" font-size="12" text-anchor="middle">파일 A v1</text>
  <text x="150" y="190" font-family="Arial" font-size="12" text-anchor="middle">파일 B v1</text>
  <text x="150" y="210" font-family="Arial" font-size="12" text-anchor="middle">파일 C v1</text>
  
  <rect x="200" y="145" width="60" height="80" fill="#bbdefb" stroke="#64b5f6" stroke-width="1"/>
  <text x="230" y="170" font-family="Arial" font-size="12" text-anchor="middle">파일 A v2</text>
  <text x="230" y="190" font-family="Arial" font-size="12" text-anchor="middle">파일 B v1</text>
  <text x="230" y="210" font-family="Arial" font-size="12" text-anchor="middle">파일 C v1</text>
  
  <rect x="280" y="145" width="60" height="80" fill="#bbdefb" stroke="#64b5f6" stroke-width="1"/>
  <text x="310" y="170" font-family="Arial" font-size="12" text-anchor="middle">파일 A v2</text>
  <text x="310" y="190" font-family="Arial" font-size="12" text-anchor="middle">파일 B v2</text>
  <text x="310" y="210" font-family="Arial" font-size="12" text-anchor="middle">파일 C v1</text>
  
  <rect x="360" y="145" width="60" height="80" fill="#bbdefb" stroke="#64b5f6" stroke-width="1"/>
  <text x="390" y="170" font-family="Arial" font-size="12" text-anchor="middle">파일 A v3</text>
  <text x="390" y="190" font-family="Arial" font-size="12" text-anchor="middle">파일 B v2</text>
  <text x="390" y="210" font-family="Arial" font-size="12" text-anchor="middle">파일 C v2</text>
  
  <!-- SVN (델타) -->
  <rect x="550" y="110" width="350" height="140" fill="#f3e5f5" stroke="#ce93d8" stroke-width="2" rx="8" ry="8"/>
  <text x="725" y="130" font-family="Arial" font-size="16" font-weight="bold" text-anchor="middle" fill="#7b1fa2">SVN (델타 방식)</text>
  
  <!-- 델타 시각화 -->
  <rect x="570" y="145" width="60" height="80" fill="#e1bee7" stroke="#ba68c8" stroke-width="1"/>
  <text x="600" y="170" font-family="Arial" font-size="12" text-anchor="middle">파일 A v1</text>
  <text x="600" y="190" font-family="Arial" font-size="12" text-anchor="middle">파일 B v1</text>
  <text x="600" y="210" font-family="Arial" font-size="12" text-anchor="middle">파일 C v1</text>
  
  <rect x="650" y="145" width="60" height="80" fill="#e1bee7" stroke="#ba68c8" stroke-width="1"/>
  <text x="680" y="165" font-family="Arial" font-size="12" text-anchor="middle">델타 1</text>
  <text x="680" y="185" font-family="Arial" font-size="10" text-anchor="middle">A: 라인 2 변경</text>
  
  <rect x="730" y="145" width="60" height="80" fill="#e1bee7" stroke="#ba68c8" stroke-width="1"/>
  <text x="760" y="165" font-family="Arial" font-size="12" text-anchor="middle">델타 2</text>
  <text x="760" y="185" font-family="Arial" font-size="10" text-anchor="middle">B: 라인 5 추가</text>
  
  <rect x="810" y="145" width="60" height="80" fill="#e1bee7" stroke="#ba68c8" stroke-width="1"/>
  <text x="840" y="165" font-family="Arial" font-size="12" text-anchor="middle">델타 3</text>
  <text x="840" y="185" font-family="Arial" font-size="10" text-anchor="middle">A: 라인 7 삭제</text>
  <text x="840" y="205" font-family="Arial" font-size="10" text-anchor="middle">C: 내용 수정</text>
  
  <!-- 화살표 (커밋) -->
  <line x1="150" y1="235" x2="170" y2="235" stroke="#64b5f6" stroke-width="2"/>
  <polygon points="175,235 170,232 170,238" fill="#64b5f6"/>
  
  <line x1="230" y1="235" x2="250" y2="235" stroke="#64b5f6" stroke-width="2"/>
  <polygon points="255,235 250,232 250,238" fill="#64b5f6"/>
  
  <line x1="310" y1="235" x2="330" y2="235" stroke="#64b5f6" stroke-width="2"/>
  <polygon points="335,235 330,232 330,238" fill="#64b5f6"/>
  
  <line x1="600" y1="235" x2="620" y2="235" stroke="#ba68c8" stroke-width="2"/>
  <polygon points="625,235 620,232 620,238" fill="#ba68c8"/>
  
  <line x1="680" y1="235" x2="700" y2="235" stroke="#ba68c8" stroke-width="2"/>
  <polygon points="705,235 700,232 700,238" fill="#ba68c8"/>
  
  <line x1="760" y1="235" x2="780" y2="235" stroke="#ba68c8" stroke-width="2"/>
  <polygon points="785,235 780,232 780,238" fill="#ba68c8"/>
  
  <!-- 커밋 그래프와 브랜치 섹션 -->
  <rect x="50" y="290" width="900" height="230" fill="#fff" stroke="#ddd" stroke-width="2" rx="10" ry="10"/>
  <text x="500" y="315" font-family="Arial" font-size="18" font-weight="bold" text-anchor="middle" fill="#333">2. 그래프 기반 히스토리와 브랜칭</text>
  
  <!-- 커밋 그래프 -->
  <circle cx="150" cy="360" r="20" fill="#c8e6c9" stroke="#66bb6a" stroke-width="2"/>
  <text x="150" y="365" font-family="Arial" font-size="12" font-weight="bold" text-anchor="middle">A</text>
  
  <circle cx="250" cy="360" r="20" fill="#c8e6c9" stroke="#66bb6a" stroke-width="2"/>
  <text x="250" y="365" font-family="Arial" font-size="12" font-weight="bold" text-anchor="middle">B</text>
  
  <circle cx="350" cy="360" r="20" fill="#c8e6c9" stroke="#66bb6a" stroke-width="2"/>
  <text x="350" y="365" font-family="Arial" font-size="12" font-weight="bold" text-anchor="middle">C</text>
  
  <circle cx="450" cy="360" r="20" fill="#c8e6c9" stroke="#66bb6a" stroke-width="2"/>
  <text x="450" y="365" font-family="Arial" font-size="12" font-weight="bold" text-anchor="middle">D</text>
  
  <circle cx="350" cy="430" r="20" fill="#c8e6c9" stroke="#66bb6a" stroke-width="2"/>
  <text x="350" y="435" font-family="Arial" font-size="12" font-weight="bold" text-anchor="middle">E</text>
  
  <circle cx="450" cy="430" r="20" fill="#c8e6c9" stroke="#66bb6a" stroke-width="2"/>
  <text x="450" y="435" font-family="Arial" font-size="12" font-weight="bold" text-anchor="middle">F</text>
  
  <circle cx="550" cy="360" r="20" fill="#c8e6c9" stroke="#66bb6a" stroke-width="2"/>
  <text x="550" y="365" font-family="Arial" font-size="12" font-weight="bold" text-anchor="middle">G</text>
  
  <!-- 커밋 그래프 연결선 -->
  <line x1="170" y1="360" x2="230" y2="360" stroke="#66bb6a" stroke-width="2"/>
  <line x1="270" y1="360" x2="330" y2="360" stroke="#66bb6a" stroke-width="2"/>
  <line x1="370" y1="360" x2="430" y2="360" stroke="#66bb6a" stroke-width="2"/>
  <line x1="470" y1="360" x2="530" y2="360" stroke="#66bb6a" stroke-width="2"/>
  
  <!-- 브랜치 -->
  <line x1="350" y1="380" x2="350" y2="410" stroke="#66bb6a" stroke-width="2" stroke-dasharray="5,3"/>
  <line x1="370" y1="430" x2="430" y2="430" stroke="#66bb6a" stroke-width="2"/>
  <line x1="450" y1="410" x2="450" y2="380" stroke="#66bb6a" stroke-width="2" stroke-dasharray="5,3"/>
  
  <!-- 브랜치 레이블 -->
  <rect x="570" y="345" width="80" height="30" fill="#ffecb3" stroke="#ffd54f" stroke-width="2" rx="15" ry="15"/>
  <text x="610" y="365" font-family="Arial" font-size="14" font-weight="bold" text-anchor="middle" fill="#ff6f00">main</text>
  
  <rect x="470" y="415" width="80" height="30" fill="#ffecb3" stroke="#ffd54f" stroke-width="2" rx="15" ry="15"/>
  <text x="510" y="435" font-family="Arial" font-size="14" font-weight="bold" text-anchor="middle" fill="#ff6f00">feature</text>
  
  <!-- 해시 설명 -->
  <rect x="650" y="345" width="250" height="115" fill="#e8f5e9" stroke="#a5d6a7" stroke-width="2" rx="8" ry="8"/>
  <text x="775" y="365" font-family="Arial" font-size="14" font-weight="bold" text-anchor="middle" fill="#2e7d32">해시 기반 식별자</text>
  <text x="775" y="385" font-family="Arial" font-size="11" text-anchor="middle">커밋 A: 8a7e21f9c...</text>
  <text x="775" y="405" font-family="Arial" font-size="11" text-anchor="middle">커밋 B: 2b3c45d6e...</text>
  <text x="775" y="425" font-family="Arial" font-size="11" text-anchor="middle">커밋 C: 3d4e56f7g...</text>
  <text x="775" y="445" font-family="Arial" font-size="11" text-anchor="middle">각 커밋은 SHA-1 해시로 고유하게 식별됨</text>
  
  <!-- 머지 섹션 -->
  <rect x="50" y="540" width="900" height="230" fill="#fff" stroke="#ddd" stroke-width="2" rx="10" ry="10"/>
  <text x="500" y="565" font-family="Arial" font-size="18" font-weight="bold" text-anchor="middle" fill="#333">3. 머지 알고리즘과 워크플로</text>
  
  <!-- 3-way 머지 설명 -->
  <rect x="70" y="580" width="400" height="170" fill="#fff3e0" stroke="#ffe0b2" stroke-width="2" rx="8" ry="8"/>
  <text x="270" y="600" font-family="Arial" font-size="16" font-weight="bold" text-anchor="middle" fill="#e65100">3-way 머지</text>
  
  <!-- 3-way 머지 시각화 -->
  <circle cx="150" cy="650" r="20" fill="#ffcc80" stroke="#ff9800" stroke-width="2"/>
  <text x="150" y="655" font-family="Arial" font-size="12" font-weight="bold" text-anchor="middle">공통조상</text>
  
  <circle cx="220" cy="620" r="20" fill="#ffcc80" stroke="#ff9800" stroke-width="2"/>
  <text x="220" y="625" font-family="Arial" font-size="12" font-weight="bold" text-anchor="middle">브랜치1</text>
  
  <circle cx="220" cy="680" r="20" fill="#ffcc80" stroke="#ff9800" stroke-width="2"/>
  <text x="220" y="685" font-family="Arial" font-size="12" font-weight="bold" text-anchor="middle">브랜치2</text>
  
  <circle cx="320" cy="650" r="20" fill="#ffcc80" stroke="#ff9800" stroke-width="2"/>
  <text x="320" y="655" font-family="Arial" font-size="12" font-weight="bold" text-anchor="middle">병합결과</text>
  
  <!-- 3-way 머지 화살표 -->
  <line x1="170" y1="645" x2="200" y2="625" stroke="#ff9800" stroke-width="2"/>
  <line x1="170" y1="655" x2="200" y2="675" stroke="#ff9800" stroke-width="2"/>
  <line x1="240" y1="625" x2="300" y2="645" stroke="#ff9800" stroke-width="2"/>
  <line x1="240" y1="675" x2="300" y2="655" stroke="#ff9800" stroke-width="2"/>
  
  <text x="270" y="710" font-family="Arial" font-size="12" text-anchor="middle" fill="#333">공통 조상과 두 브랜치의 현재 상태를</text>
  <text x="270" y="730" font-family="Arial" font-size="12" text-anchor="middle" fill="#333">비교하여 자동으로 변경 사항 통합</text>
  
  <!-- Git 워크플로 -->
  <rect x="530" y="580" width="400" height="170" fill="#e0f2f1" stroke="#b2dfdb" stroke-width="2" rx="8" ry="8"/>
  <text x="730" y="600" font-family="Arial" font-size="16" font-weight="bold" text-anchor="middle" fill="#00695c">Git 워크플로</text>
  
  <!-- 워킹 디렉토리, 스테이징, 리포지토리 -->
  <rect x="550" y="620" width="100" height="80" fill="#80cbc4" stroke="#26a69a" stroke-width="2"/>
  <text x="600" y="640" font-family="Arial" font-size="12" font-weight="bold" text-anchor="middle" fill="#333">작업 디렉토리</text>
  <text x="600" y="660" font-family="Arial" font-size="10" text-anchor="middle" fill="#333">(Working</text>
  <text x="600" y="675" font-family="Arial" font-size="10" text-anchor="middle" fill="#333">Directory)</text>
  
  <rect x="680" y="620" width="100" height="80" fill="#80cbc4" stroke="#26a69a" stroke-width="2"/>
  <text x="730" y="640" font-family="Arial" font-size="12" font-weight="bold" text-anchor="middle" fill="#333">스테이징 영역</text>
  <text x="730" y="660" font-family="Arial" font-size="10" text-anchor="middle" fill="#333">(Index/</text>
  <text x="730" y="675" font-family="Arial" font-size="10" text-anchor="middle" fill="#333">Staging Area)</text>
  
  <rect x="810" y="620" width="100" height="80" fill="#80cbc4" stroke="#26a69a" stroke-width="2"/>
  <text x="860" y="640" font-family="Arial" font-size="12" font-weight="bold" text-anchor="middle" fill="#333">리포지토리</text>
  <text x="860" y="660" font-family="Arial" font-size="10" text-anchor="middle" fill="#333">(Repository)</text>
  
  <!-- 워크플로 화살표 -->
  <line x1="650" y1="660" x2="680" y2="660" stroke="#00897b" stroke-width="2"/>
  <polygon points="685,660 680,657 680,663" fill="#00897b"/>
  <text x="665" y="650" font-family="Arial" font-size="10" text-anchor="middle">git add</text>
  
  <line x1="780" y1="660" x2="810" y2="660" stroke="#00897b" stroke-width="2"/>
  <polygon points="815,660 810,657 810,663" fill="#00897b"/>
  <text x="795" y="650" font-family="Arial" font-size="10" text-anchor="middle">git commit</text>
  
  <!-- 분산 동기화 -->
  <line x1="860" y1="700" x2="860" y2="720" stroke="#00897b" stroke-width="2"/>
  <polygon points="860,725 857,720 863,720" fill="#00897b"/>
  <text x="860" y="740" font-family="Arial" font-size="10" text-anchor="middle" fill="#333">git push / git pull</text>
  
  <!-- 저장소 간 동기화 -->
  <rect x="810" y="725" width="100" height="20" fill="#b2ebf2" stroke="#4dd0e1" stroke-width="1"/>
  <text x="860" y="740" font-family="Arial" font-size="10" font-weight="bold" text-anchor="middle" fill="#006064">원격 저장소</text>
</svg>
